<svg width="24" height="24" viewBox="0 0 24 24" fill="none" xmlns="http://www.w3.org/2000/svg">
  <path d="M13.5 2H10.5C9.67 2 9 2.67 9 3.5V5H7.5C6.67 5 6 5.67 6 6.5V8H4.5C3.67 8 3 8.67 3 9.5V14.5C3 15.33 3.67 16 4.5 16H6V17.5C6 18.33 6.67 19 7.5 19H9V20.5C9 21.33 9.67 22 10.5 22H13.5C14.33 22 15 21.33 15 20.5V19H16.5C17.33 19 18 18.33 18 17.5V16H19.5C20.33 16 21 15.33 21 14.5V9.5C21 8.67 20.33 8 19.5 8H18V6.5C18 5.67 17.33 5 16.5 5H15V3.5C15 2.67 14.33 2 13.5 2ZM13 4V6H11V4H13ZM8 7H16V9H8V7ZM5 10H19V14H5V10ZM8 15H16V17H8V15ZM11 18H13V20H11V18Z" fill="currentColor"/>
</svg>
