<svg version="1.1" xmlns="http://www.w3.org/2000/svg" viewBox="0 0 2114.8561354677645 1128.7056699169348" width="4229.712270935529" height="2257.4113398338695"><!-- svg-source:excalidraw --><metadata/><defs><style class="style-fonts">
      </style></defs><rect x="0" y="0" width="2114.8561354677645" height="1128.7056699169348" fill="#ffffff"/><g stroke-linecap="round" transform="translate(10 82) rotate(0 162.14625840293576 30.333483714834916)"><path d="M15.17 0 C129.5 1.05, 242.39 4.1, 309.13 0 C316.26 2.91, 322.59 4.64, 324.29 15.17 C324.2 21.52, 327.02 34.35, 324.29 45.5 C327.74 54.7, 318.58 58.49, 309.13 60.67 C248.04 61.44, 189.83 64.6, 15.17 60.67 C5.23 59.67, 2.15 54.91, 0 45.5 C0.95 31.18, 2.34 26.23, 0 15.17 C-3.03 3.26, 2.7 -2.84, 15.17 0" stroke="none" stroke-width="0" fill="#fff9db"/><path d="M15.17 0 C105.42 -0.07, 194.06 -1.44, 309.13 0 M15.17 0 C130.94 -0.07, 246.42 0.4, 309.13 0 M309.13 0 C319.25 1.92, 324.94 5.23, 324.29 15.17 M309.13 0 C321.18 -0.36, 325.66 4.05, 324.29 15.17 M324.29 15.17 C323.21 21.83, 322.84 26.26, 324.29 45.5 M324.29 15.17 C323.08 21.89, 324.2 27.1, 324.29 45.5 M324.29 45.5 C325.29 55.39, 319.06 60.69, 309.13 60.67 M324.29 45.5 C323.84 55.2, 321.35 61.57, 309.13 60.67 M309.13 60.67 C248.61 62.64, 188.72 61.27, 15.17 60.67 M309.13 60.67 C241.59 59.5, 174.63 60.06, 15.17 60.67 M15.17 60.67 C3.83 62.46, 1.92 54.31, 0 45.5 M15.17 60.67 C3.4 60.01, -2.28 54.71, 0 45.5 M0 45.5 C0.11 33.44, -1.6 24.88, 0 15.17 M0 45.5 C-0.79 37.74, 0.38 28.91, 0 15.17 M0 15.17 C-1.98 6.33, 5.19 0.46, 15.17 0 M0 15.17 C0.42 5.18, 5.37 -2.1, 15.17 0" stroke="#ced4da" stroke-width="1" fill="none"/></g><g transform="translate(10 10) rotate(0 127.0458984375 20.700000000000003)"><text x="0" y="30.420703125" font-family="Helvetica, Segoe UI Emoji" font-size="36px" fill="#1e1e1e" text-anchor="start" style="white-space: pre;" direction="ltr" dominant-baseline="alphabetic">System Context</text></g><g transform="translate(22 98) rotate(0 110.068359375 11.5)"><text x="0" y="16.900390625" font-family="Helvetica, Segoe UI Emoji" font-size="20px" fill="#868e96" text-anchor="start" style="white-space: pre;" direction="ltr" dominant-baseline="alphabetic">What does this thing do?</text></g><g stroke-linecap="round" transform="translate(734.2041005021582 447.34090364137955) rotate(0 250 125)"><path d="M32 0 C181.11 -2.67, 331.14 -2.02, 468 0 C488.92 -1.22, 501.95 7.15, 500 32 C501.44 89.23, 497.49 138.9, 500 218 C497.82 235.83, 491.7 252.67, 468 250 C362.74 249.83, 255.59 250.83, 32 250 C9.97 252.47, 0.07 235.74, 0 218 C6 154.19, 1.13 94.09, 0 32 C-2.84 10.77, 11.67 3.52, 32 0" stroke="none" stroke-width="0" fill="#d0ebff"/><path d="M32 0 C175.16 2.04, 318.64 0.82, 468 0 M32 0 C163.26 0.82, 295.25 0.98, 468 0 M468 0 C489.51 1.69, 499.68 11.85, 500 32 M468 0 C488.33 -2.22, 501.26 10.16, 500 32 M500 32 C499.19 74.27, 499.02 118.77, 500 218 M500 32 C500.36 69.83, 500.79 106.57, 500 218 M500 218 C500.03 238.94, 488.98 251.84, 468 250 M500 218 C500.91 237.1, 487.5 251.36, 468 250 M468 250 C361.73 247.67, 256.92 248.03, 32 250 M468 250 C359.46 249.16, 251.13 249.95, 32 250 M32 250 C9.37 248.56, -0.57 237.35, 0 218 M32 250 C9.76 250.91, -1.17 241.52, 0 218 M0 218 C1.63 162.19, 3.61 108.97, 0 32 M0 218 C-0.99 170.36, -0.59 124.76, 0 32 M0 32 C0.46 11.03, 10.77 0.28, 32 0 M0 32 C-2.1 12.63, 9.73 -2.16, 32 0" stroke="#1971c2" stroke-width="2" fill="none"/></g><g transform="translate(859.2041005021582 501.09090364137955) rotate(0 104.0625 13.800000000000011)"><text x="0" y="20.280468749999997" font-family="Helvetica, Segoe UI Emoji" font-size="24px" fill="#1971c2" text-anchor="start" style="white-space: pre;" direction="ltr" dominant-baseline="alphabetic">VS Code Extension</text></g><g transform="translate(744.2041005021582 556.0909036413796) rotate(0 71.03759765625 10.349999999999994)"><text x="0" y="15.2103515625" font-family="Helvetica, Segoe UI Emoji" font-size="18px" fill="#1971c2" text-anchor="start" style="white-space: pre;" direction="ltr" dominant-baseline="alphabetic">TreeView Sidebar</text></g><g transform="translate(1009.2041005021582 556.0909036413796) rotate(0 87.86865234375 10.349999999999994)"><text x="0" y="15.2103515625" font-family="Helvetica, Segoe UI Emoji" font-size="18px" fill="#1971c2" text-anchor="start" style="white-space: pre;" direction="ltr" dominant-baseline="alphabetic">Marketplace Webview</text></g><g stroke-linecap="round" transform="translate(10.228679517104354 498.13701458453664) rotate(0 100 75)"><path d="M32 0 C61.13 -0.06, 93.05 -2.36, 168 0 C188.94 -1.72, 202.43 13.7, 200 32 C197.42 62.53, 201.98 102.74, 200 118 C197.95 136.44, 189.1 151.36, 168 150 C125.86 153.92, 85.19 147.86, 32 150 C11.63 146.86, 2.35 142.42, 0 118 C-2.07 99.55, 1.78 84.4, 0 32 C1.65 12.79, 11.66 -1.48, 32 0" stroke="none" stroke-width="0" fill="#f8f9fa"/><path d="M32 0 C85.58 -1.37, 138.38 -0.12, 168 0 M32 0 C72.95 0.41, 113.57 0.16, 168 0 M168 0 C188.46 -1.93, 201.1 10.22, 200 32 M168 0 C187.89 0.56, 198.14 9.21, 200 32 M200 32 C197.4 50.66, 199.64 66.28, 200 118 M200 32 C199.92 61.89, 199.73 93.1, 200 118 M200 118 C200.79 137.39, 187.74 151.19, 168 150 M200 118 C198.68 140.38, 187.67 148.92, 168 150 M168 150 C135.91 148.48, 105.38 149.99, 32 150 M168 150 C134.91 150.59, 102.84 150.32, 32 150 M32 150 C9.88 150.79, -1.02 141.23, 0 118 M32 150 C10.61 147.97, -2.01 139.32, 0 118 M0 118 C-1.83 95.46, 0.52 70.75, 0 32 M0 118 C-0.32 100.88, -0.5 83.54, 0 32 M0 32 C-1.83 12.37, 9.85 -1.88, 32 0 M0 32 C0.95 8.39, 11.34 0.35, 32 0" stroke="#343a40" stroke-width="2" fill="none"/></g><g transform="translate(60.228679517104354 561.2620145845367) rotate(0 45.5810546875 11.5)"><text x="0" y="16.900390625" font-family="Helvetica, Segoe UI Emoji" font-size="20px" fill="#343a40" text-anchor="start" style="white-space: pre;" direction="ltr" dominant-baseline="alphabetic">Developer</text></g><g stroke-linecap="round"><g transform="translate(283.29370869897883 572.5576408560612) rotate(0 169.87432372668536 0.34494045465575596)"><path d="M-1.04 -0.44 C55.59 -0.33, 282.47 0.44, 339.46 0.7 M0.61 -1.72 C57.09 -1.4, 281.68 2.13, 338.36 2.24" stroke="#343a40" stroke-width="2" fill="none"/></g><g transform="translate(283.29370869897883 572.5576408560612) rotate(0 169.87432372668536 0.34494045465575596)"><path d="M314.79 10.56 C320.5 8.01, 327.69 8.13, 338.36 2.24 M314.79 10.56 C322.46 8.19, 330.01 3.87, 338.36 2.24" stroke="#343a40" stroke-width="2" fill="none"/></g><g transform="translate(283.29370869897883 572.5576408560612) rotate(0 169.87432372668536 0.34494045465575596)"><path d="M314.95 -6.54 C320.62 -4.42, 327.77 0.38, 338.36 2.24 M314.95 -6.54 C322.58 -3.23, 330.08 -1.87, 338.36 2.24" stroke="#343a40" stroke-width="2" fill="none"/></g></g><mask/><g transform="translate(290.2062713818973 597.1003482537777) rotate(0 82.26171875 9.199999999999989)"><text x="0" y="13.5203125" font-family="Helvetica, Segoe UI Emoji" font-size="16px" fill="#343a40" text-anchor="start" style="white-space: pre;" direction="ltr" dominant-baseline="alphabetic">Browse, Install, Update</text></g><g stroke-linecap="round" transform="translate(1342.418386216444 149.30518935566525) rotate(0 140 40)"><path d="M20 0 C83.55 2.09, 149.77 6.04, 260 0 C276.78 -0.92, 279.34 4.49, 280 20 C278.42 25.21, 280.24 37.57, 280 60 C280.17 72.34, 275.48 79.3, 260 80 C172.36 73.79, 85.08 78.97, 20 80 C3.64 78.21, -2.36 70.49, 0 60 C1.45 50.01, 0.79 34.29, 0 20 C1.21 9.21, 9 1.34, 20 0" stroke="none" stroke-width="0" fill="#d3f9d8"/><path d="M20 0 C71.19 2.08, 122.91 0.62, 260 0 M20 0 C111.89 -1.99, 204.97 -1.37, 260 0 M260 0 C272.08 0.49, 278.38 5.4, 280 20 M260 0 C271.16 -1.65, 278.22 4.38, 280 20 M280 20 C281.05 33.73, 279.88 47.93, 280 60 M280 20 C280.32 30.24, 279.13 43, 280 60 M280 60 C278.85 74.24, 271.88 79.06, 260 80 M280 60 C278.35 74.49, 272.51 78.83, 260 80 M260 80 C199.3 81.97, 142.25 79.39, 20 80 M260 80 C204.99 78.35, 150.21 78.81, 20 80 M20 80 C6.62 78.24, -1.75 73.32, 0 60 M20 80 C6.15 82.26, 1.95 72.2, 0 60 M0 60 C-2.25 46.63, -0.14 31.17, 0 20 M0 60 C-0.94 48.13, -0.43 33.61, 0 20 M0 20 C0.83 4.69, 7.25 0.3, 20 0 M0 20 C-1.9 8.53, 5.58 -0.26, 20 0" stroke="#2f9e44" stroke-width="2" fill="none"/></g><g transform="translate(1412.418386216444 177.43018935566525) rotate(0 53.9013671875 11.5)"><text x="0" y="16.900390625" font-family="Helvetica, Segoe UI Emoji" font-size="20px" fill="#2f9e44" text-anchor="start" style="white-space: pre;" direction="ltr" dominant-baseline="alphabetic">skills.sh API</text></g><g stroke-linecap="round"><g transform="translate(1213.1093258515816 429.9616868595042) rotate(0 89.26427345004453 -68.33781905850404)"><path d="M1.15 0.39 C30.97 -22.23, 149.1 -112.94, 178.63 -135.66 M0.3 -0.46 C29.99 -23.39, 148.21 -114.34, 177.74 -137.25" stroke="#2f9e44" stroke-width="2" fill="none"/></g><g transform="translate(1213.1093258515816 429.9616868595042) rotate(0 89.26427345004453 -68.33781905850404)"><path d="M164.37 -116.13 C168.71 -121.91, 173.44 -128.24, 177.74 -137.25 M164.37 -116.13 C169.82 -123.81, 173.45 -130.94, 177.74 -137.25" stroke="#2f9e44" stroke-width="2" fill="none"/></g><g transform="translate(1213.1093258515816 429.9616868595042) rotate(0 89.26427345004453 -68.33781905850404)"><path d="M153.92 -129.66 C161.14 -131.81, 168.76 -134.4, 177.74 -137.25 M153.92 -129.66 C163.06 -132.38, 170.45 -134.64, 177.74 -137.25" stroke="#2f9e44" stroke-width="2" fill="none"/></g></g><mask/><g transform="translate(1327.3637760361921 346.8282163134738) rotate(0 100.05078124999994 9.200000000000003)"><text x="0" y="13.5203125" font-family="Helvetica, Segoe UI Emoji" font-size="16px" fill="#2f9e44" text-anchor="start" style="white-space: pre;" direction="ltr" dominant-baseline="alphabetic">REST: search, leaderboards</text></g><g stroke-linecap="round" transform="translate(1824.8561354677645 315.1831255276941) rotate(0 140 40)"><path d="M20 0 C83.44 -3.8, 140.58 -4.85, 260 0 C269.83 2.37, 282.67 4.62, 280 20 C280.12 27.79, 282.1 36.87, 280 60 C282.47 73.4, 269.74 80.96, 260 80 C206.42 81.59, 155.92 80.72, 20 80 C6.77 81, 3.52 74.98, 0 60 C1.01 48.18, 2.13 32.61, 0 20 C-0.28 8.1, 9.9 -1.18, 20 0" stroke="none" stroke-width="0" fill="#d3f9d8"/><path d="M20 0 C116.43 -0.44, 211.03 -0.91, 260 0 M20 0 C68.35 0.65, 117.07 -0.08, 260 0 M260 0 C271.45 -1.43, 278.45 4.68, 280 20 M260 0 C274.45 0.3, 278.74 7.81, 280 20 M280 20 C279.57 31.2, 281.8 43.89, 280 60 M280 20 C279.11 28.57, 278.96 35.77, 280 60 M280 60 C278.57 74.34, 272.61 78.98, 260 80 M280 60 C278.82 72.78, 273.88 78.59, 260 80 M260 80 C165.34 78.22, 71.43 78.05, 20 80 M260 80 C178.47 81.16, 96.24 81.89, 20 80 M20 80 C6.22 81.97, 1.7 72.35, 0 60 M20 80 C8.19 81.57, 0.56 71.06, 0 60 M0 60 C0.34 45.55, 0.25 29.06, 0 20 M0 60 C0.58 43.61, 0.45 29.34, 0 20 M0 20 C-1.66 8.28, 5.72 -0.23, 20 0 M0 20 C-0.78 7.92, 4.42 -0.25, 20 0" stroke="#2f9e44" stroke-width="2" fill="none"/></g><g transform="translate(1904.8561354677645 343.3081255276941) rotate(0 50.01953125 11.5)"><text x="0" y="16.900390625" font-family="Helvetica, Segoe UI Emoji" font-size="20px" fill="#2f9e44" text-anchor="start" style="white-space: pre;" direction="ltr" dominant-baseline="alphabetic">GitHub API</text></g><g stroke-linecap="round"><g transform="translate(1351.160508200342 512.6477634090697) rotate(0 193.0529771201858 -42.52578438925258)"><path d="M-0.19 0.71 C64.06 -13.83, 321.09 -71.87, 385.58 -86.21 M-1.75 0.04 C62.28 -13.87, 319.67 -71.25, 384.36 -85.28" stroke="#2f9e44" stroke-width="2" fill="none"/></g><g transform="translate(1351.160508200342 512.6477634090697) rotate(0 193.0529771201858 -42.52578438925258)"><path d="M363.25 -71.87 C370.84 -76.85, 374.25 -79.02, 384.36 -85.28 M363.25 -71.87 C368.39 -76.28, 374.12 -80.09, 384.36 -85.28" stroke="#2f9e44" stroke-width="2" fill="none"/></g><g transform="translate(1351.160508200342 512.6477634090697) rotate(0 193.0529771201858 -42.52578438925258)"><path d="M359.58 -88.57 C368.44 -88.39, 372.98 -85.4, 384.36 -85.28 M359.58 -88.57 C365.63 -88.35, 372.38 -87.52, 384.36 -85.28" stroke="#2f9e44" stroke-width="2" fill="none"/></g></g><mask/><g transform="translate(1579.8236092098523 456.7837748783435) rotate(0 97.98046875 9.199999999999989)"><text x="0" y="13.5203125" font-family="Helvetica, Segoe UI Emoji" font-size="16px" fill="#2f9e44" text-anchor="start" style="white-space: pre;" direction="ltr" dominant-baseline="alphabetic">Trees API: update checking</text></g><g stroke-linecap="round" transform="translate(1691.0953877849315 572.3259826705511) rotate(0 140 40)"><path d="M20 0 C82.97 4.16, 154.02 0.47, 260 0 C270.44 -0.23, 281.36 6.84, 280 20 C282.89 30.96, 276.83 42.75, 280 60 C276.86 75.68, 276.42 76.97, 260 80 C200.05 78, 142.86 78.54, 20 80 C8.79 80.99, -1.48 74.54, 0 60 C-0.74 46.61, 2.77 29.17, 0 20 C-1.28 6.1, 9.82 3.6, 20 0" stroke="none" stroke-width="0" fill="#d3f9d8"/><path d="M20 0 C86.6 1.79, 156.05 -0.17, 260 0 M20 0 C97.06 0.67, 175.04 0.44, 260 0 M260 0 C274.31 0.26, 278.91 7.66, 280 20 M260 0 C273.08 -0.2, 280.03 6.21, 280 20 M280 20 C278.43 29.69, 281.55 41.44, 280 60 M280 20 C278.99 34.32, 279.35 47.13, 280 60 M280 60 C278.97 72.85, 273.81 78.77, 260 80 M280 60 C282.06 75.55, 271.84 78.34, 260 80 M260 80 C195.55 78.37, 131.37 79.17, 20 80 M260 80 C208.94 80.81, 158.97 79.58, 20 80 M20 80 C7.99 81.37, 0.49 71.36, 0 60 M20 80 C8.14 80.15, 0.53 73.75, 0 60 M0 60 C1.65 46.97, -1.93 36.41, 0 20 M0 60 C-0.94 52.76, -0.59 43.79, 0 20 M0 20 C-0.68 7.75, 4.71 -0.22, 20 0 M0 20 C-1.1 8.22, 8.6 2.2, 20 0" stroke="#2f9e44" stroke-width="2" fill="none"/></g><g transform="translate(1741.0953877849315 600.4509826705511) rotate(0 73.7255859375 11.5)"><text x="0" y="16.900390625" font-family="Helvetica, Segoe UI Emoji" font-size="20px" fill="#2f9e44" text-anchor="start" style="white-space: pre;" direction="ltr" dominant-baseline="alphabetic">skills.sh Website</text></g><g stroke-linecap="round"><g transform="translate(1337.5576612212521 590.0376472887995) rotate(0 138.6415892038262 5.927377016382167)"><path d="M0.66 -0.27 C46.84 1.95, 230.59 10.25, 276.53 12.15 M-0.45 -1.45 C46.15 0.49, 232.32 7.93, 278.85 10.18" stroke="#2f9e44" stroke-width="2" fill="none"/></g><g transform="translate(1337.5576612212521 590.0376472887995) rotate(0 138.6415892038262 5.927377016382167)"><path d="M255.01 17.7 C260.75 14.39, 267.79 12.1, 278.85 10.18 M255.01 17.7 C259.95 15.1, 266.86 14.44, 278.85 10.18" stroke="#2f9e44" stroke-width="2" fill="none"/></g><g transform="translate(1337.5576612212521 590.0376472887995) rotate(0 138.6415892038262 5.927377016382167)"><path d="M255.75 0.61 C261.13 1.69, 267.98 3.77, 278.85 10.18 M255.75 0.61 C260.36 2.05, 267.09 5.44, 278.85 10.18" stroke="#2f9e44" stroke-width="2" fill="none"/></g></g><mask/><g transform="translate(1362.4976445799496 622.2818291754131) rotate(0 101.375 9.199999999999989)"><text x="0" y="13.5203125" font-family="Helvetica, Segoe UI Emoji" font-size="16px" fill="#2f9e44" text-anchor="start" style="white-space: pre;" direction="ltr" dominant-baseline="alphabetic">HTML scrape: details, audits</text></g><g stroke-linecap="round" transform="translate(645.9679321040284 938.7056699169347) rotate(0 350.00000000000006 90)"><path d="M32 0 C263.51 2.52, 497.87 2.68, 668 0 C688.34 2.15, 699.3 13.13, 700 32 C694.77 69.37, 701 99.02, 700 148 C698.21 166.97, 686.49 180.11, 668 180 C460.3 182.5, 250.31 182.58, 32 180 C13.21 182.33, 1.34 169.06, 0 148 C-3.16 108.01, 1.28 72.76, 0 32 C-2.63 8.41, 13.43 -3.56, 32 0" stroke="none" stroke-width="0" fill="#ffe8cc"/><path d="M32 0 C257.92 0.95, 482.95 0.84, 668 0 M32 0 C177.39 2.58, 322.17 2.73, 668 0 M668 0 C689.11 -0.18, 700.03 10.27, 700 32 M668 0 C688.93 2.11, 700.91 8.43, 700 32 M700 32 C701.6 56.08, 699.75 81.63, 700 148 M700 32 C699.07 72.39, 699.82 112.66, 700 148 M700 148 C701.79 171.26, 688.03 178.56, 668 180 M700 148 C699.34 167.05, 688.43 180.91, 668 180 M668 180 C508.79 179.24, 350.99 179.76, 32 180 M668 180 C414.87 179.02, 161.31 178.35, 32 180 M32 180 C11.94 180.13, 0.46 169.7, 0 148 M32 180 C10.79 180.32, -2.1 171.29, 0 148 M0 148 C-0.89 118.52, 1.39 86.22, 0 32 M0 148 C0.21 104.37, -0.43 59.54, 0 32 M0 32 C-0.95 12.02, 12.35 1.92, 32 0 M0 32 C-0.59 10.25, 9.27 -2.24, 32 0" stroke="#e8590c" stroke-width="2" fill="none"/></g><g transform="translate(875.9679321040284 938.0806699169347) rotate(0 81.91455078125 12.649999999999977)"><text x="0" y="18.5904296875" font-family="Helvetica, Segoe UI Emoji" font-size="22px" fill="#e8590c" text-anchor="start" style="white-space: pre;" direction="ltr" dominant-baseline="alphabetic">Local Filesystem</text></g><g transform="translate(685.9679321040284 981.2056699169347) rotate(0 181.6875 9.199999999999989)"><text x="0" y="13.5203125" font-family="Helvetica, Segoe UI Emoji" font-size="16px" fill="#e8590c" text-anchor="start" style="white-space: pre;" direction="ltr" dominant-baseline="alphabetic">~/.claude/skills/ · ~/.cursor/skills/ · ... (11 agent dirs)</text></g><g transform="translate(745.9679321040284 1018.7056699169347) rotate(0 118.9296875 9.199999999999989)"><text x="0" y="13.5203125" font-family="Helvetica, Segoe UI Emoji" font-size="16px" fill="#e8590c" text-anchor="start" style="white-space: pre;" direction="ltr" dominant-baseline="alphabetic">~/.agents/.skill-lock.json (lock file)</text></g><g transform="translate(795.9679321040284 1056.2056699169348) rotate(0 92.0234375 9.199999999999989)"><text x="0" y="13.5203125" font-family="Helvetica, Segoe UI Emoji" font-size="16px" fill="#e8590c" text-anchor="start" style="white-space: pre;" direction="ltr" dominant-baseline="alphabetic">skills.json (team manifest)</text></g><g stroke-linecap="round"><g transform="translate(989.0553111604602 750.245616296442) rotate(0 1.3666425148001053 72.76416443424415)"><path d="M-0.86 -0.93 C-0.48 23.61, 0.92 121.81, 1.54 146.11 M0.89 1.2 C1.69 25.49, 3.41 120.19, 3.63 144.3" stroke="#e8590c" stroke-width="2" fill="none"/></g><g transform="translate(989.0553111604602 750.245616296442) rotate(0 1.3666425148001053 72.76416443424415)"><path d="M8.05 22.43 C4.62 14.85, 5.03 11.57, -0.86 -0.93 M8.05 22.43 C5.66 16.7, 3.36 10.78, -0.86 -0.93" stroke="#e8590c" stroke-width="2" fill="none"/></g><g transform="translate(989.0553111604602 750.245616296442) rotate(0 1.3666425148001053 72.76416443424415)"><path d="M-9.05 22.69 C-8.43 15.17, -3.97 11.83, -0.86 -0.93 M-9.05 22.69 C-7.25 16.92, -5.35 10.94, -0.86 -0.93" stroke="#e8590c" stroke-width="2" fill="none"/></g><g transform="translate(989.0553111604602 750.245616296442) rotate(0 1.3666425148001053 72.76416443424415)"><path d="M-5.26 120.93 C-4.92 124.54, -0.3 132.32, 3.63 144.3 M-5.26 120.93 C-3.05 126.69, -0.98 132.23, 3.63 144.3" stroke="#e8590c" stroke-width="2" fill="none"/></g><g transform="translate(989.0553111604602 750.245616296442) rotate(0 1.3666425148001053 72.76416443424415)"><path d="M11.84 120.68 C8.12 124.23, 8.7 132.06, 3.63 144.3 M11.84 120.68 C9.85 126.48, 7.73 132.08, 3.63 144.3" stroke="#e8590c" stroke-width="2" fill="none"/></g></g><mask/><g stroke-linecap="round" transform="translate(777.9541005021582 113.59090364137955) rotate(0 175 40)"><path d="M20 0 C113.96 -0.62, 208.97 -4.96, 330 0 C344.3 -3.14, 352.35 9.75, 350 20 C346.8 28.74, 350.65 40.79, 350 60 C351.65 75.46, 344.32 78.52, 330 80 C227.55 82.39, 124.21 84.91, 20 80 C5.49 78.72, -0.57 76.49, 0 60 C3.29 40.45, 0.19 26.13, 0 20 C-3.21 4.97, 6.72 2.91, 20 0" stroke="none" stroke-width="0" fill="#e5dbff"/><path d="M20 0 C82.33 2.42, 147.69 0.93, 330 0 M20 0 C128.47 0.05, 236.8 0.85, 330 0 M330 0 C344.12 -1.94, 348.4 7.85, 350 20 M330 0 C342.01 1.05, 348.33 5.59, 350 20 M350 20 C349.19 28.11, 349.72 38.75, 350 60 M350 20 C349.71 28.82, 350.07 38.09, 350 60 M350 60 C349.21 74.13, 342.32 81.9, 330 80 M350 60 C349.95 71.31, 341.32 79.99, 330 80 M330 80 C243.26 82.83, 158.91 82.23, 20 80 M330 80 C267.81 80.28, 205.33 80.25, 20 80 M20 80 C4.84 81.7, -0.82 71.45, 0 60 M20 80 C7.62 77.73, 0.67 73.68, 0 60 M0 60 C-0.55 50.63, 0.76 40.67, 0 20 M0 60 C1.03 49.39, -0.06 36.69, 0 20 M0 20 C-1.21 4.72, 7.98 1.49, 20 0 M0 20 C-1.31 4.82, 6.52 0.87, 20 0" stroke="#7048e8" stroke-width="2" fill="none"/></g><g transform="translate(807.9541005021582 137.96590364137955) rotate(0 139.4970703125 11.5)"><text x="0" y="16.900390625" font-family="Helvetica, Segoe UI Emoji" font-size="20px" fill="#7048e8" text-anchor="start" style="white-space: pre;" direction="ltr" dominant-baseline="alphabetic">Terminal: npx skills add/remove</text></g><g stroke-linecap="round"><g transform="translate(952.9541005021582 436.84090364137955) rotate(0 0 -84.5)"><path d="M0.58 0.16 C0.63 -27.71, -0.54 -140.19, -0.66 -168.4 M-0.57 -0.81 C-0.05 -28.93, 1.78 -142.37, 1.71 -170.21" stroke="#7048e8" stroke-width="2" fill="none"/></g><g transform="translate(952.9541005021582 436.84090364137955) rotate(0 0 -84.5)"><path d="M10.07 -146.65 C8.7 -152.95, 7.58 -157.33, 1.71 -170.21 M10.07 -146.65 C7.45 -152.61, 5.59 -161.36, 1.71 -170.21" stroke="#7048e8" stroke-width="2" fill="none"/></g><g transform="translate(952.9541005021582 436.84090364137955) rotate(0 0 -84.5)"><path d="M-7.04 -146.79 C-4.6 -153.14, -1.91 -157.49, 1.71 -170.21 M-7.04 -146.79 C-4.67 -152.67, -1.55 -161.38, 1.71 -170.21" stroke="#7048e8" stroke-width="2" fill="none"/></g></g><mask/><g stroke-linecap="round" transform="translate(1727.13563812912 752.3259826705511) rotate(0 122 32)"><path d="M16 0 C72.33 0.78, 132.22 2, 228 0 C241.75 -3.03, 242.21 2.97, 244 16 C247.54 24.73, 246.14 31.14, 244 48 C242.52 59.88, 241.21 66.33, 228 64 C159.37 64.3, 83.92 64.84, 16 64 C8.49 67.6, -2.63 56.41, 0 48 C-1.31 32.74, -1.12 23.94, 0 16 C2.91 8.13, 3.62 -2.19, 16 0" stroke="none" stroke-width="0" fill="#fff9db"/><path d="M16 0 C57.59 0.64, 100.9 -0.4, 228 0 M16 0 C80.69 0.68, 142.91 -0.37, 228 0 M228 0 C239.85 -1.15, 244.91 3.88, 244 16 M228 0 C237.59 -1.65, 245.16 4.51, 244 16 M244 16 C244.31 22.75, 245.62 33.87, 244 48 M244 16 C242.78 23.13, 244.17 30.54, 244 48 M244 48 C245.9 58.62, 236.91 62.25, 228 64 M244 48 C243.99 58.15, 240.93 65.95, 228 64 M228 64 C175.25 63.53, 122.78 65.39, 16 64 M228 64 C159.59 63.29, 91.7 63.74, 16 64 M16 64 C3.45 64.83, -1.98 59.25, 0 48 M16 64 C5.68 62.1, 1.86 57.58, 0 48 M0 48 C-1.84 38.55, -0.84 30.89, 0 16 M0 48 C-0.49 35.1, -1.28 24.07, 0 16 M0 16 C1.49 4.19, 3.73 -0.13, 16 0 M0 16 C0.87 5.44, 4.7 1.37, 16 0" stroke="#ced4da" stroke-width="1" fill="none"/></g><g transform="translate(1744.13563812912 763.8259826705511) rotate(0 105.8125 18.399999999999977)"><text x="0" y="13.5203125" font-family="Helvetica, Segoe UI Emoji" font-size="16px" fill="#495057" text-anchor="start" style="white-space: pre;" direction="ltr" dominant-baseline="alphabetic">No API for detail pages —</text><text x="0" y="31.920312499999998" font-family="Helvetica, Segoe UI Emoji" font-size="16px" fill="#495057" text-anchor="start" style="white-space: pre;" direction="ltr" dominant-baseline="alphabetic">scrapes RSC-rendered HTML</text></g><g stroke-linecap="round" transform="translate(1727 830) rotate(0 152.79999999999995 32)"><path d="M16 0 C96.17 0.8, 183.62 -3.38, 289.6 0 C298.47 -2.36, 302.76 5.44, 305.6 16 C308.29 27.48, 304.69 38.19, 305.6 48 C308.14 61, 301.6 63.72, 289.6 64 C195.63 62.31, 106.1 65.54, 16 64 C2.7 61.74, 2.77 55.11, 0 48 C-1.39 38.75, 3.21 32.2, 0 16 C-1.71 3.14, 5.91 3.58, 16 0" stroke="none" stroke-width="0" fill="#fff9db"/><path d="M16 0 C101.44 -1.2, 187.25 -1.37, 289.6 0 M16 0 C92.48 -1.46, 170.93 -1.28, 289.6 0 M289.6 0 C301.18 -1.45, 304.66 3.9, 305.6 16 M289.6 0 C301.42 -0.83, 304.43 4.15, 305.6 16 M305.6 16 C307.46 26.75, 304.38 32.21, 305.6 48 M305.6 16 C305.68 24.17, 306.23 33.34, 305.6 48 M305.6 48 C303.84 56.92, 300.26 63.55, 289.6 64 M305.6 48 C307.86 60.62, 299.14 65.52, 289.6 64 M289.6 64 C189.82 62, 88.41 62.18, 16 64 M289.6 64 C206.76 61.74, 121.86 62.38, 16 64 M16 64 C3.36 64.58, 0.3 57.01, 0 48 M16 64 C7.19 62.91, -0.26 57.89, 0 48 M0 48 C-0.64 38.01, 2 27.24, 0 16 M0 48 C-0.92 39.87, 0.8 29.86, 0 16 M0 16 C-1.61 5.2, 6.09 0.09, 16 0 M0 16 C-0.64 6.7, 4.89 1.58, 16 0" stroke="#ced4da" stroke-width="1" fill="none"/></g><g transform="translate(1744 842) rotate(0 119.61328125 18.399999999999977)"><text x="0" y="13.5203125" font-family="Helvetica, Segoe UI Emoji" font-size="16px" fill="#495057" text-anchor="start" style="white-space: pre;" direction="ltr" dominant-baseline="alphabetic">Bypassed skills.sh check-updates</text><text x="0" y="31.920312499999998" font-family="Helvetica, Segoe UI Emoji" font-size="16px" fill="#495057" text-anchor="start" style="white-space: pre;" direction="ltr" dominant-baseline="alphabetic">API due to branch mismatch bug</text></g><g transform="translate(808.5149541960083 237.79440783711067) rotate(0 113.390625 18.4)"><text x="0" y="13.5203125" font-family="Helvetica, Segoe UI Emoji" font-size="16px" fill="#495057" text-anchor="start" style="white-space: pre;" direction="ltr" dominant-baseline="alphabetic">Never writes symlinks itself —</text><text x="0" y="31.920312499999998" font-family="Helvetica, Segoe UI Emoji" font-size="16px" fill="#495057" text-anchor="start" style="white-space: pre;" direction="ltr" dominant-baseline="alphabetic">delegates to CLI for correctness</text></g><g stroke-linecap="round" transform="translate(10 82) rotate(0 162.14625840293576 30.333483714834916)"><path d="M15.17 0 C83.13 -6.1, 157.07 -5.72, 309.13 0 C317.91 -0.47, 327.63 3.87, 324.29 15.17 C324.96 23.54, 326.09 27.72, 324.29 45.5 C323.53 58.19, 320.5 61.75, 309.13 60.67 C246.04 60.79, 184.95 61.88, 15.17 60.67 C6.87 62.85, -2.96 53.64, 0 45.5 C3.15 34.25, -2.99 28.62, 0 15.17 C-1.46 2.28, 4.03 -3.35, 15.17 0" stroke="none" stroke-width="0" fill="#fff9db"/><path d="M15.17 0 C129.31 -1.09, 239.95 -0.5, 309.13 0 M15.17 0 C105.34 -0.29, 194.75 0.24, 309.13 0 M309.13 0 C318.42 -1.88, 325.12 3.08, 324.29 15.17 M309.13 0 C319.91 0.35, 322.39 6.91, 324.29 15.17 M324.29 15.17 C325.34 20.88, 324.04 29.55, 324.29 45.5 M324.29 15.17 C324.29 26.13, 323.94 36.48, 324.29 45.5 M324.29 45.5 C325.61 57.1, 318.1 59.06, 309.13 60.67 M324.29 45.5 C324.14 56.48, 319.35 60.03, 309.13 60.67 M309.13 60.67 C203.45 60.68, 98.11 60.87, 15.17 60.67 M309.13 60.67 C201.41 58.34, 93.85 58.85, 15.17 60.67 M15.17 60.67 C5.61 62.62, 0.92 56.79, 0 45.5 M15.17 60.67 C5.69 59.72, 0.77 57.24, 0 45.5 M0 45.5 C0.68 36.23, -0.77 22.66, 0 15.17 M0 45.5 C-1 36.25, 0.5 27.27, 0 15.17 M0 15.17 C-0.19 4.01, 3.27 -0.94, 15.17 0 M0 15.17 C0.03 6.91, 6.84 -1.09, 15.17 0" stroke="#ced4da" stroke-width="1" fill="none"/></g><g transform="translate(10 10) rotate(0 127.0458984375 20.700000000000003)"><text x="0" y="30.420703125" font-family="Helvetica, Segoe UI Emoji" font-size="36px" fill="#1e1e1e" text-anchor="start" style="white-space: pre;" direction="ltr" dominant-baseline="alphabetic">System Context</text></g><g transform="translate(22 98) rotate(0 110.068359375 11.5)"><text x="0" y="16.900390625" font-family="Helvetica, Segoe UI Emoji" font-size="20px" fill="#868e96" text-anchor="start" style="white-space: pre;" direction="ltr" dominant-baseline="alphabetic">What does this thing do?</text></g><g stroke-linecap="round" transform="translate(734.2041005021582 447.34090364137955) rotate(0 250 125)"><path d="M32 0 C123.64 -2.64, 217.52 -0.28, 468 0 C488.15 -1.91, 497.43 13.29, 500 32 C498.39 92.51, 503.4 155.82, 500 218 C501.08 236.06, 492.17 251.37, 468 250 C363.37 249.07, 260.22 246.65, 32 250 C8.69 248.86, 1.5 236.08, 0 218 C2.29 143.28, 0.12 70.46, 0 32 C-3.35 10.66, 12.4 3.12, 32 0" stroke="none" stroke-width="0" fill="#d0ebff"/><path d="M32 0 C193.24 2.25, 353.42 2.37, 468 0 M32 0 C165.5 1.81, 297.66 2.23, 468 0 M468 0 C487.36 0.58, 500.3 9.01, 500 32 M468 0 C491.19 -1.09, 499.74 9.89, 500 32 M500 32 C497.23 99.25, 499.87 165.71, 500 218 M500 32 C498.69 83.73, 500.4 133.57, 500 218 M500 218 C498.39 239.2, 490.09 250.09, 468 250 M500 218 C499.36 240.7, 488.89 251.58, 468 250 M468 250 C335.47 251.25, 205.57 249.74, 32 250 M468 250 C358.95 248.4, 250.36 248.49, 32 250 M32 250 C11.85 250.55, -0.82 240, 0 218 M32 250 C12.29 251.49, 0.85 239.16, 0 218 M0 218 C-2.38 154.48, 0.08 93.59, 0 32 M0 218 C0.18 175.72, 0.65 132.74, 0 32 M0 32 C-0.94 10.69, 12.28 1.55, 32 0 M0 32 C-1.09 9.27, 11.03 2.28, 32 0" stroke="#1971c2" stroke-width="2" fill="none"/></g><g transform="translate(859.2041005021582 501.09090364137955) rotate(0 104.0625 13.800000000000011)"><text x="0" y="20.280468749999997" font-family="Helvetica, Segoe UI Emoji" font-size="24px" fill="#1971c2" text-anchor="start" style="white-space: pre;" direction="ltr" dominant-baseline="alphabetic">VS Code Extension</text></g><g transform="translate(744.2041005021582 556.0909036413796) rotate(0 71.03759765625 10.349999999999994)"><text x="0" y="15.2103515625" font-family="Helvetica, Segoe UI Emoji" font-size="18px" fill="#1971c2" text-anchor="start" style="white-space: pre;" direction="ltr" dominant-baseline="alphabetic">TreeView Sidebar</text></g><g transform="translate(1009.2041005021582 556.0909036413796) rotate(0 87.86865234375 10.349999999999994)"><text x="0" y="15.2103515625" font-family="Helvetica, Segoe UI Emoji" font-size="18px" fill="#1971c2" text-anchor="start" style="white-space: pre;" direction="ltr" dominant-baseline="alphabetic">Marketplace Webview</text></g><g stroke-linecap="round" transform="translate(10.228679517104354 498.13701458453664) rotate(0 100 75)"><path d="M32 0 C66.59 -4.18, 100.98 0.35, 168 0 C190.39 0.88, 202.19 8.24, 200 32 C202.19 52.7, 203.95 81.31, 200 118 C197.82 137.49, 187.66 149.63, 168 150 C118.35 146.84, 74.15 144.74, 32 150 C14.05 146.89, -2.76 138.72, 0 118 C-2.15 95.69, 2.93 76.5, 0 32 C-1.21 10.95, 9.14 0.12, 32 0" stroke="none" stroke-width="0" fill="#f8f9fa"/><path d="M32 0 C73.8 0.03, 113.57 1.46, 168 0 M32 0 C66.26 -0.27, 102.64 -1.39, 168 0 M168 0 C190.95 -0.94, 199.77 9.99, 200 32 M168 0 C190.58 -2.25, 199.75 9.57, 200 32 M200 32 C200.22 63.23, 199.51 93.25, 200 118 M200 32 C199.84 63.4, 201.02 94.97, 200 118 M200 118 C199.45 140.53, 188.95 151.37, 168 150 M200 118 C200.04 137.04, 189.95 147.99, 168 150 M168 150 C117.34 147.54, 67.09 148.91, 32 150 M168 150 C124 150.9, 78.4 150.96, 32 150 M32 150 C12.08 151.29, 0.74 139.18, 0 118 M32 150 C11.58 152.07, -0.75 138.52, 0 118 M0 118 C-2.22 92.3, 0.78 67.14, 0 32 M0 118 C-0.02 93.02, 1.26 68.79, 0 32 M0 32 C-0.95 9.45, 10.99 1.99, 32 0 M0 32 C-2 8.78, 11.8 -1.56, 32 0" stroke="#343a40" stroke-width="2" fill="none"/></g><g transform="translate(60.228679517104354 561.2620145845367) rotate(0 45.5810546875 11.5)"><text x="0" y="16.900390625" font-family="Helvetica, Segoe UI Emoji" font-size="20px" fill="#343a40" text-anchor="start" style="white-space: pre;" direction="ltr" dominant-baseline="alphabetic">Developer</text></g><g stroke-linecap="round"><g transform="translate(283.29370869897883 572.5576408560612) rotate(0 169.87432372668536 0.34494045465575596)"><path d="M0.17 -1.1 C56.92 -1.07, 284.36 -0.18, 340.77 0.2 M-1.21 0.94 C55.46 1.12, 283.34 1.79, 340.36 1.48" stroke="#343a40" stroke-width="2" fill="none"/></g><g transform="translate(283.29370869897883 572.5576408560612) rotate(0 169.87432372668536 0.34494045465575596)"><path d="M316.87 10.04 C322.51 8.99, 330.99 2.68, 340.36 1.48 M316.87 10.04 C325.13 6.22, 333.8 3.66, 340.36 1.48" stroke="#343a40" stroke-width="2" fill="none"/></g><g transform="translate(283.29370869897883 572.5576408560612) rotate(0 169.87432372668536 0.34494045465575596)"><path d="M316.86 -7.06 C322.51 -2.67, 331 -3.54, 340.36 1.48 M316.86 -7.06 C324.95 -5.04, 333.63 -1.77, 340.36 1.48" stroke="#343a40" stroke-width="2" fill="none"/></g></g><mask/><g transform="translate(290.2062713818973 597.1003482537777) rotate(0 82.26171875 9.199999999999989)"><text x="0" y="13.5203125" font-family="Helvetica, Segoe UI Emoji" font-size="16px" fill="#343a40" text-anchor="start" style="white-space: pre;" direction="ltr" dominant-baseline="alphabetic">Browse, Install, Update</text></g><g stroke-linecap="round" transform="translate(1342.418386216444 149.30518935566525) rotate(0 140 40)"><path d="M20 0 C80.15 -1.88, 140.36 -4.65, 260 0 C272.57 2.57, 281.27 7.75, 280 20 C278.39 26.52, 278.89 36.35, 280 60 C281.82 75.51, 270.37 78.03, 260 80 C198.44 74.15, 128.95 76.24, 20 80 C5.21 77.22, -1.02 69.98, 0 60 C-1.55 48.28, -1.88 36.13, 0 20 C-1.37 3.42, 4.29 3.25, 20 0" stroke="none" stroke-width="0" fill="#d3f9d8"/><path d="M20 0 C94.63 -3.27, 171.31 -3.35, 260 0 M20 0 C99.66 1.26, 177.87 1.37, 260 0 M260 0 C274.42 -1.95, 279.78 5.71, 280 20 M260 0 C274.88 1.94, 282.2 6.08, 280 20 M280 20 C281.07 32.75, 278.62 40.93, 280 60 M280 20 C279.87 32.34, 279.96 44.17, 280 60 M280 60 C280.04 71.34, 273.87 78.25, 260 80 M280 60 C281.5 75.3, 271.4 78.85, 260 80 M260 80 C204.19 81.69, 148.22 81.04, 20 80 M260 80 C182 81.21, 103.13 80.61, 20 80 M20 80 C7.46 81.8, -0.65 72.62, 0 60 M20 80 C6.3 82.01, 2.3 71.65, 0 60 M0 60 C-0.49 49.47, -2.09 40.08, 0 20 M0 60 C-0.8 47.33, -0.16 36.88, 0 20 M0 20 C-1.74 5.03, 7.66 -1.36, 20 0 M0 20 C-0.85 6.36, 8.8 -0.76, 20 0" stroke="#2f9e44" stroke-width="2" fill="none"/></g><g transform="translate(1412.418386216444 177.43018935566525) rotate(0 53.9013671875 11.5)"><text x="0" y="16.900390625" font-family="Helvetica, Segoe UI Emoji" font-size="20px" fill="#2f9e44" text-anchor="start" style="white-space: pre;" direction="ltr" dominant-baseline="alphabetic">skills.sh API</text></g><g stroke-linecap="round"><g transform="translate(1213.1093258515816 429.9616868595042) rotate(0 89.26427345004453 -68.33781905850404)"><path d="M-1.13 0.5 C28.26 -22.14, 147.37 -113.3, 177.34 -136.33 M0.48 -0.29 C30.13 -23.26, 149.84 -115.5, 179.43 -138.27" stroke="#2f9e44" stroke-width="2" fill="none"/></g><g transform="translate(1213.1093258515816 429.9616868595042) rotate(0 89.26427345004453 -68.33781905850404)"><path d="M166.04 -117.16 C172.11 -127.14, 177.02 -132.99, 179.43 -138.27 M166.04 -117.16 C168.66 -122.02, 172.23 -127.24, 179.43 -138.27" stroke="#2f9e44" stroke-width="2" fill="none"/></g><g transform="translate(1213.1093258515816 429.9616868595042) rotate(0 89.26427345004453 -68.33781905850404)"><path d="M155.6 -130.71 C165.64 -135.37, 174.57 -136, 179.43 -138.27 M155.6 -130.71 C160.6 -132.58, 166.44 -134.86, 179.43 -138.27" stroke="#2f9e44" stroke-width="2" fill="none"/></g></g><mask/><g transform="translate(1327.3637760361921 346.8282163134738) rotate(0 100.05078124999994 9.200000000000003)"><text x="0" y="13.5203125" font-family="Helvetica, Segoe UI Emoji" font-size="16px" fill="#2f9e44" text-anchor="start" style="white-space: pre;" direction="ltr" dominant-baseline="alphabetic">REST: search, leaderboards</text></g><g stroke-linecap="round" transform="translate(1824.8561354677645 315.1831255276941) rotate(0 140 40)"><path d="M20 0 C97.26 4.58, 176.85 3.33, 260 0 C270.06 2.84, 281.37 4.49, 280 20 C281.48 32.13, 276.7 37.93, 280 60 C278.86 74.83, 270.08 83.38, 260 80 C207.55 77.07, 156.68 76.6, 20 80 C6.66 81.74, 3.12 72.13, 0 60 C-1.06 44.44, -2.07 38.63, 0 20 C0.36 5.48, 9.43 -1.76, 20 0" stroke="none" stroke-width="0" fill="#d3f9d8"/><path d="M20 0 C69.94 2.23, 117.52 3.32, 260 0 M20 0 C81.12 -0.14, 141.25 0.28, 260 0 M260 0 C274.68 1.69, 281.92 6.16, 280 20 M260 0 C272.91 -1.39, 277.76 8.18, 280 20 M280 20 C279.64 35.73, 279.87 49.39, 280 60 M280 20 C279.94 33.38, 280.19 47.89, 280 60 M280 60 C281.3 75.05, 271.65 79, 260 80 M280 60 C278.49 71.52, 273.4 80.64, 260 80 M260 80 C164.98 80.5, 69.6 82.36, 20 80 M260 80 C172.8 80.59, 84.67 79.55, 20 80 M20 80 C6.35 81.75, 2 71.87, 0 60 M20 80 C5.22 81.77, -2.27 73.12, 0 60 M0 60 C0.38 51.7, 1.91 39.22, 0 20 M0 60 C-0.93 49.62, 0.43 40.19, 0 20 M0 20 C-0.74 6.4, 8.52 -0.66, 20 0 M0 20 C-1.22 5.03, 8.34 0.68, 20 0" stroke="#2f9e44" stroke-width="2" fill="none"/></g><g transform="translate(1904.8561354677645 343.3081255276941) rotate(0 50.01953125 11.5)"><text x="0" y="16.900390625" font-family="Helvetica, Segoe UI Emoji" font-size="20px" fill="#2f9e44" text-anchor="start" style="white-space: pre;" direction="ltr" dominant-baseline="alphabetic">GitHub API</text></g><g stroke-linecap="round"><g transform="translate(1351.160508200342 512.6477634090697) rotate(0 193.0529771201858 -42.52578438925258)"><path d="M0.18 -0.99 C64.89 -15.32, 322.78 -71.54, 387.08 -85.62 M-1.18 1.1 C63.56 -13.1, 322.25 -70.14, 386.64 -84.38" stroke="#2f9e44" stroke-width="2" fill="none"/></g><g transform="translate(1351.160508200342 512.6477634090697) rotate(0 193.0529771201858 -42.52578438925258)"><path d="M365.54 -70.96 C368.09 -72.08, 373.05 -76.62, 386.64 -84.38 M365.54 -70.96 C370.97 -74.8, 377.37 -77.06, 386.64 -84.38" stroke="#2f9e44" stroke-width="2" fill="none"/></g><g transform="translate(1351.160508200342 512.6477634090697) rotate(0 193.0529771201858 -42.52578438925258)"><path d="M361.85 -87.66 C365.19 -85.42, 370.89 -86.61, 386.64 -84.38 M361.85 -87.66 C368.36 -87.02, 375.74 -84.83, 386.64 -84.38" stroke="#2f9e44" stroke-width="2" fill="none"/></g></g><mask/><g transform="translate(1579.8236092098523 456.7837748783435) rotate(0 97.98046875 9.199999999999989)"><text x="0" y="13.5203125" font-family="Helvetica, Segoe UI Emoji" font-size="16px" fill="#2f9e44" text-anchor="start" style="white-space: pre;" direction="ltr" dominant-baseline="alphabetic">Trees API: update checking</text></g><g stroke-linecap="round" transform="translate(1691.0953877849315 572.3259826705511) rotate(0 140 40)"><path d="M20 0 C106.43 1.28, 199.45 -2.9, 260 0 C271.49 -1.67, 279.63 8.49, 280 20 C278.26 35.92, 276.16 52.22, 280 60 C276.89 70.57, 272.72 78.54, 260 80 C206.53 78.1, 155.67 75.64, 20 80 C6.95 78.47, 0.12 71.97, 0 60 C0.83 50.42, 3.24 41.47, 0 20 C-2.1 5.77, 3.08 0.85, 20 0" stroke="none" stroke-width="0" fill="#d3f9d8"/><path d="M20 0 C94.85 -1.81, 170.7 -0.71, 260 0 M20 0 C69.13 1.65, 117.93 0.74, 260 0 M260 0 C272.97 -1.21, 278.05 7.98, 280 20 M260 0 C275.04 -1.31, 278.15 6.52, 280 20 M280 20 C281.21 33.12, 281.39 47.06, 280 60 M280 20 C280.76 28.86, 279.27 35.51, 280 60 M280 60 C278.69 71.76, 273.39 80.56, 260 80 M280 60 C282.25 74.39, 274.69 80.63, 260 80 M260 80 C198.92 82.03, 135.56 82.08, 20 80 M260 80 C166.3 80.02, 73.7 78.68, 20 80 M20 80 C5.41 81.54, -1.98 73.15, 0 60 M20 80 C5.47 77.95, -1.08 73.37, 0 60 M0 60 C-1.53 45.09, 1.68 27.8, 0 20 M0 60 C-0.57 51.15, 0.73 42.23, 0 20 M0 20 C-1.06 5.24, 8.12 0.59, 20 0 M0 20 C0.57 8.07, 5.11 -0.49, 20 0" stroke="#2f9e44" stroke-width="2" fill="none"/></g><g transform="translate(1741.0953877849315 600.4509826705511) rotate(0 73.7255859375 11.5)"><text x="0" y="16.900390625" font-family="Helvetica, Segoe UI Emoji" font-size="20px" fill="#2f9e44" text-anchor="start" style="white-space: pre;" direction="ltr" dominant-baseline="alphabetic">skills.sh Website</text></g><g stroke-linecap="round"><g transform="translate(1337.5576612212521 590.0376472887995) rotate(0 138.6415892038262 5.927377016382167)"><path d="M-0.14 -0.41 C46.02 1.47, 231.72 8.73, 277.93 10.68 M-1.67 -1.67 C44.31 0.36, 231 9.28, 277.33 11.61" stroke="#2f9e44" stroke-width="2" fill="none"/></g><g transform="translate(1337.5576612212521 590.0376472887995) rotate(0 138.6415892038262 5.927377016382167)"><path d="M253.45 19 C261.9 17.3, 269.72 13.18, 277.33 11.61 M253.45 19 C260.38 16.68, 265.27 14.46, 277.33 11.61" stroke="#2f9e44" stroke-width="2" fill="none"/></g><g transform="translate(1337.5576612212521 590.0376472887995) rotate(0 138.6415892038262 5.927377016382167)"><path d="M254.28 1.92 C262.34 6.72, 269.84 9.11, 277.33 11.61 M254.28 1.92 C261.12 3.92, 265.8 6.01, 277.33 11.61" stroke="#2f9e44" stroke-width="2" fill="none"/></g></g><mask/><g transform="translate(1362.4976445799496 622.2818291754131) rotate(0 101.375 9.199999999999989)"><text x="0" y="13.5203125" font-family="Helvetica, Segoe UI Emoji" font-size="16px" fill="#2f9e44" text-anchor="start" style="white-space: pre;" direction="ltr" dominant-baseline="alphabetic">HTML scrape: details, audits</text></g><g stroke-linecap="round" transform="translate(645.9679321040284 938.7056699169347) rotate(0 350.00000000000006 90)"><path d="M32 0 C272.22 2.1, 513.77 3.5, 668 0 C691.51 -2.96, 698.03 9.52, 700 32 C695 68.86, 697.5 109.78, 700 148 C697.22 168.31, 685.98 180, 668 180 C446.64 177.85, 225.11 177.92, 32 180 C7.42 177.63, 3.25 169.69, 0 148 C-3.7 116.13, -5.19 86.9, 0 32 C-3.42 12.98, 8.32 -0.73, 32 0" stroke="none" stroke-width="0" fill="#ffe8cc"/><path d="M32 0 C214.7 -1.47, 398.58 -0.84, 668 0 M32 0 C276.32 0.4, 520.39 0.91, 668 0 M668 0 C690.82 -1.14, 698.39 10.54, 700 32 M668 0 C690.2 0.11, 699.36 12.04, 700 32 M700 32 C698.8 65.09, 699.05 98.41, 700 148 M700 32 C698.37 75.94, 699.05 121.74, 700 148 M700 148 C701.96 170.25, 690.52 180.55, 668 180 M700 148 C699.06 170.11, 690.96 181.49, 668 180 M668 180 C454.28 180.75, 238.85 180.89, 32 180 M668 180 C421.26 178.45, 174.62 178.1, 32 180 M32 180 C9.62 178.22, -0.94 169.36, 0 148 M32 180 C12.52 181.79, -1.09 167.93, 0 148 M0 148 C-2.79 112.34, -2.51 73.96, 0 32 M0 148 C-1.61 114.01, -0.35 81.74, 0 32 M0 32 C0.49 11.88, 9.32 -0.42, 32 0 M0 32 C1.64 11.48, 11.36 -2.09, 32 0" stroke="#e8590c" stroke-width="2" fill="none"/></g><g transform="translate(875.9679321040284 938.0806699169347) rotate(0 81.91455078125 12.649999999999977)"><text x="0" y="18.5904296875" font-family="Helvetica, Segoe UI Emoji" font-size="22px" fill="#e8590c" text-anchor="start" style="white-space: pre;" direction="ltr" dominant-baseline="alphabetic">Local Filesystem</text></g><g transform="translate(685.9679321040284 981.2056699169347) rotate(0 181.6875 9.199999999999989)"><text x="0" y="13.5203125" font-family="Helvetica, Segoe UI Emoji" font-size="16px" fill="#e8590c" text-anchor="start" style="white-space: pre;" direction="ltr" dominant-baseline="alphabetic">~/.claude/skills/ · ~/.cursor/skills/ · ... (11 agent dirs)</text></g><g transform="translate(745.9679321040284 1018.7056699169347) rotate(0 118.9296875 9.199999999999989)"><text x="0" y="13.5203125" font-family="Helvetica, Segoe UI Emoji" font-size="16px" fill="#e8590c" text-anchor="start" style="white-space: pre;" direction="ltr" dominant-baseline="alphabetic">~/.agents/.skill-lock.json (lock file)</text></g><g transform="translate(795.9679321040284 1056.2056699169348) rotate(0 92.0234375 9.199999999999989)"><text x="0" y="13.5203125" font-family="Helvetica, Segoe UI Emoji" font-size="16px" fill="#e8590c" text-anchor="start" style="white-space: pre;" direction="ltr" dominant-baseline="alphabetic">skills.json (team manifest)</text></g><g stroke-linecap="round"><g transform="translate(989.0553111604602 750.245616296442) rotate(0 1.3666425148001053 72.76416443424415)"><path d="M1.01 1.15 C1.51 25.23, 2.26 121.44, 2.43 145.31 M0.08 0.71 C0.45 24.9, 0.58 122.67, 1.32 146.73" stroke="#e8590c" stroke-width="2" fill="none"/></g><g transform="translate(989.0553111604602 750.245616296442) rotate(0 1.3666425148001053 72.76416443424415)"><path d="M9.81 24.55 C9.35 18.21, 4.85 11.6, 1.01 1.15 M9.81 24.55 C7.3 19.07, 6.03 15.51, 1.01 1.15" stroke="#e8590c" stroke-width="2" fill="none"/></g><g transform="translate(989.0553111604602 750.245616296442) rotate(0 1.3666425148001053 72.76416443424415)"><path d="M-7.29 24.73 C-3.44 18.2, -3.63 11.55, 1.01 1.15 M-7.29 24.73 C-6.33 19.09, -4.15 15.49, 1.01 1.15" stroke="#e8590c" stroke-width="2" fill="none"/></g><g transform="translate(989.0553111604602 750.245616296442) rotate(0 1.3666425148001053 72.76416443424415)"><path d="M-7.56 123.36 C-3.24 128.67, -3.28 133.87, 1.32 146.73 M-7.56 123.36 C-6.17 127.23, -3.87 133.14, 1.32 146.73" stroke="#e8590c" stroke-width="2" fill="none"/></g><g transform="translate(989.0553111604602 750.245616296442) rotate(0 1.3666425148001053 72.76416443424415)"><path d="M9.54 123.12 C9.54 128.64, 5.19 133.9, 1.32 146.73 M9.54 123.12 C7.46 127.16, 6.3 133.13, 1.32 146.73" stroke="#e8590c" stroke-width="2" fill="none"/></g></g><mask/><g stroke-linecap="round" transform="translate(777.9541005021582 113.59090364137955) rotate(0 175 40)"><path d="M20 0 C127.25 2.47, 238.4 0.96, 330 0 C346.71 -3.11, 347.24 6.06, 350 20 C346.09 30.38, 351.18 43.88, 350 60 C348.79 73.61, 341.8 80.12, 330 80 C251.1 77.62, 166.68 79.34, 20 80 C4.91 77.9, -0.89 69.74, 0 60 C-1.66 46.32, -0.65 37.65, 0 20 C-2.66 4, 10.04 2.75, 20 0" stroke="none" stroke-width="0" fill="#e5dbff"/><path d="M20 0 C133.54 -2.39, 246.94 -3.52, 330 0 M20 0 C132.83 1.22, 247.08 1.3, 330 0 M330 0 C342.78 1.19, 349.61 8.04, 350 20 M330 0 C343.38 -2.3, 350.62 4.66, 350 20 M350 20 C349.35 33.3, 348.76 49.27, 350 60 M350 20 C350.98 33.39, 349.98 46.57, 350 60 M350 60 C351.41 74.63, 344.08 79.85, 330 80 M350 60 C350.92 75.4, 342.58 79.18, 330 80 M330 80 C240.84 81.32, 154.88 80.8, 20 80 M330 80 C239.57 78.03, 150.39 78.58, 20 80 M20 80 C5.72 78.78, 0.32 75.32, 0 60 M20 80 C4.67 78.11, 1.14 71.77, 0 60 M0 60 C-0.61 48.42, -1.37 40.41, 0 20 M0 60 C-0.77 46.61, 0.62 34, 0 20 M0 20 C0.6 4.85, 8.24 0.76, 20 0 M0 20 C-1.39 5.49, 5.6 -0.24, 20 0" stroke="#7048e8" stroke-width="2" fill="none"/></g><g transform="translate(807.9541005021582 137.96590364137955) rotate(0 139.4970703125 11.5)"><text x="0" y="16.900390625" font-family="Helvetica, Segoe UI Emoji" font-size="20px" fill="#7048e8" text-anchor="start" style="white-space: pre;" direction="ltr" dominant-baseline="alphabetic">Terminal: npx skills add/remove</text></g><g stroke-linecap="round"><g transform="translate(952.9541005021582 436.84090364137955) rotate(0 0 -84.5)"><path d="M-0.22 -0.73 C-0.61 -28.71, -1.35 -140.05, -1.17 -168.21 M-1.79 1.51 C-1.93 -26.79, 0.53 -141.55, 0.93 -169.92" stroke="#7048e8" stroke-width="2" fill="none"/></g><g transform="translate(952.9541005021582 436.84090364137955) rotate(0 0 -84.5)"><path d="M9.06 -146.28 C4.69 -157.6, 4 -163.52, 0.93 -169.92 M9.06 -146.28 C7.65 -151.98, 5.02 -157.18, 0.93 -169.92" stroke="#7048e8" stroke-width="2" fill="none"/></g><g transform="translate(952.9541005021582 436.84090364137955) rotate(0 0 -84.5)"><path d="M-8.04 -146.58 C-5.64 -157.75, 0.44 -163.55, 0.93 -169.92 M-8.04 -146.58 C-5.29 -152.2, -3.77 -157.32, 0.93 -169.92" stroke="#7048e8" stroke-width="2" fill="none"/></g></g><mask/><g stroke-linecap="round" transform="translate(1727.13563812912 752.3259826705511) rotate(0 122 32)"><path d="M16 0 C65.11 1.58, 117.2 -3.83, 228 0 C238.06 -1.46, 241.22 4.31, 244 16 C247.12 21.42, 244.28 27.72, 244 48 C244.12 57.3, 235.42 61.63, 228 64 C147.68 61.35, 60.64 62.11, 16 64 C1.74 64.85, -3.42 60.98, 0 48 C3.66 37.83, -2.55 36.35, 0 16 C2.75 6.63, 5.45 -0.28, 16 0" stroke="none" stroke-width="0" fill="#fff9db"/><path d="M16 0 C72.49 2.29, 133.72 0.13, 228 0 M16 0 C62.61 -0.95, 109.66 -0.88, 228 0 M228 0 C240.04 0.04, 242 5.87, 244 16 M228 0 C236.66 1.5, 245.97 3.4, 244 16 M244 16 C243.85 24.56, 245.75 32.93, 244 48 M244 16 C244.42 28.2, 244.73 39.35, 244 48 M244 48 C243.85 59.46, 240.46 63.35, 228 64 M244 48 C243.18 58.3, 240.68 66.3, 228 64 M228 64 C178.18 65.27, 130.92 63.87, 16 64 M228 64 C175.06 65.09, 120.21 65.65, 16 64 M16 64 C7.32 62.26, -1.64 59.66, 0 48 M16 64 C3.77 63.15, -0.3 60.8, 0 48 M0 48 C1.63 40.04, 0.66 32.12, 0 16 M0 48 C0.42 40.86, -0.84 33.91, 0 16 M0 16 C0.76 4.12, 4.31 -0.93, 16 0 M0 16 C-0.24 6.5, 6.73 -1.89, 16 0" stroke="#ced4da" stroke-width="1" fill="none"/></g><g transform="translate(1744.13563812912 763.8259826705511) rotate(0 105.8125 18.399999999999977)"><text x="0" y="13.5203125" font-family="Helvetica, Segoe UI Emoji" font-size="16px" fill="#495057" text-anchor="start" style="white-space: pre;" direction="ltr" dominant-baseline="alphabetic">No API for detail pages —</text><text x="0" y="31.920312499999998" font-family="Helvetica, Segoe UI Emoji" font-size="16px" fill="#495057" text-anchor="start" style="white-space: pre;" direction="ltr" dominant-baseline="alphabetic">scrapes RSC-rendered HTML</text></g><g stroke-linecap="round" transform="translate(1727 830) rotate(0 152.79999999999995 32)"><path d="M16 0 C107.03 -5.74, 202.43 -4.73, 289.6 0 C297.49 -1.02, 302.25 5.33, 305.6 16 C306.38 25.61, 306.22 36.92, 305.6 48 C302.35 56.29, 303.52 64.36, 289.6 64 C214.91 61.44, 140.69 62.79, 16 64 C1.92 66.31, -2.35 57.93, 0 48 C-3.23 42.97, 2.18 32.47, 0 16 C0.12 5.05, 2.85 1.48, 16 0" stroke="none" stroke-width="0" fill="#fff9db"/><path d="M16 0 C82.66 -2.29, 145.75 -1.5, 289.6 0 M16 0 C108.88 0.44, 201.36 0.6, 289.6 0 M289.6 0 C298.27 0.54, 303.85 6.64, 305.6 16 M289.6 0 C302.24 -1.94, 304.45 3.83, 305.6 16 M305.6 16 C307.57 23.99, 306.79 30.7, 305.6 48 M305.6 16 C306.35 24.66, 305.63 32.97, 305.6 48 M305.6 48 C307.4 58.01, 299.56 63.68, 289.6 64 M305.6 48 C307.61 60.97, 298.58 62.56, 289.6 64 M289.6 64 C185.7 62.42, 82.68 63.82, 16 64 M289.6 64 C184.97 63.11, 82.06 62.31, 16 64 M16 64 C3.69 64.99, -1.36 57.93, 0 48 M16 64 C5.03 66.13, -0.76 57.45, 0 48 M0 48 C0.26 41.9, -1.58 32.94, 0 16 M0 48 C-1.02 36.9, 0.27 23.62, 0 16 M0 16 C-1.02 4.4, 5.13 1.01, 16 0 M0 16 C1.39 3.44, 4.07 -0.73, 16 0" stroke="#ced4da" stroke-width="1" fill="none"/></g><g transform="translate(1744 842) rotate(0 119.61328125 18.399999999999977)"><text x="0" y="13.5203125" font-family="Helvetica, Segoe UI Emoji" font-size="16px" fill="#495057" text-anchor="start" style="white-space: pre;" direction="ltr" dominant-baseline="alphabetic">Bypassed skills.sh check-updates</text><text x="0" y="31.920312499999998" font-family="Helvetica, Segoe UI Emoji" font-size="16px" fill="#495057" text-anchor="start" style="white-space: pre;" direction="ltr" dominant-baseline="alphabetic">API due to branch mismatch bug</text></g><g transform="translate(808.5149541960083 237.79440783711067) rotate(0 113.390625 18.4)"><text x="0" y="13.5203125" font-family="Helvetica, Segoe UI Emoji" font-size="16px" fill="#495057" text-anchor="start" style="white-space: pre;" direction="ltr" dominant-baseline="alphabetic">Never writes symlinks itself —</text><text x="0" y="31.920312499999998" font-family="Helvetica, Segoe UI Emoji" font-size="16px" fill="#495057" text-anchor="start" style="white-space: pre;" direction="ltr" dominant-baseline="alphabetic">delegates to CLI for correctness</text></g></svg>