<svg version="1.1" xmlns="http://www.w3.org/2000/svg" viewBox="0 0 1488 1039" width="2976" height="2078"><!-- svg-source:excalidraw --><metadata/><defs><style class="style-fonts">
      </style></defs><rect x="0" y="0" width="1488" height="1039" fill="#ffffff"/><g stroke-linecap="round" transform="translate(735 550) rotate(0 100 27.5)"><path d="M13.75 0 C56.99 -4.69, 105.48 0.59, 186.25 0 C198.56 2.65, 201.79 2.51, 200 13.75 C199.36 20.47, 197.11 25.87, 200 41.25 C196.54 50.67, 198.89 54.44, 186.25 55 C127.68 57.51, 61.87 59.35, 13.75 55 C4.55 56.19, -0.87 49.4, 0 41.25 C3.72 33.21, 1.55 24.07, 0 13.75 C-2.62 7.05, 6.13 1.66, 13.75 0" stroke="none" stroke-width="0" fill="#fff9db"/><path d="M13.75 0 C78.02 -2.99, 142.06 -3.37, 186.25 0 M13.75 0 C63.15 1.02, 112.25 0.22, 186.25 0 M186.25 0 C195.57 1.84, 200.43 4.26, 200 13.75 M186.25 0 C194.79 -1.11, 200.45 5.35, 200 13.75 M200 13.75 C198.54 18.76, 199.38 26.77, 200 41.25 M200 13.75 C199.74 20.11, 200.98 25.7, 200 41.25 M200 41.25 C198.67 49.78, 193.51 53.06, 186.25 55 M200 41.25 C200.43 50.09, 195.74 54.49, 186.25 55 M186.25 55 C120.6 54.13, 54.6 54.96, 13.75 55 M186.25 55 C117.91 55.14, 51.01 55.32, 13.75 55 M13.75 55 C4.98 54.77, -1.54 50.84, 0 41.25 M13.75 55 C3.66 53.24, -1.62 50.38, 0 41.25 M0 41.25 C1.84 33.86, 0.44 29.6, 0 13.75 M0 41.25 C-0.9 30.87, -0.84 20.57, 0 13.75 M0 13.75 C-0.59 3.99, 6.28 -1.39, 13.75 0 M0 13.75 C0.03 3.15, 6.03 1.29, 13.75 0" stroke="#ced4da" stroke-width="1" fill="none"/></g><g stroke-linecap="round" transform="translate(738 654) rotate(0 90 25)"><path d="M12.5 0 C59.35 -2.14, 110.18 0.27, 167.5 0 C177.3 2.27, 180.51 2.37, 180 12.5 C180.78 18.55, 178.72 25.17, 180 37.5 C179.88 48.96, 175.74 49.63, 167.5 50 C134.17 48.46, 103.25 50.18, 12.5 50 C3.22 47.63, 0.24 47.15, 0 37.5 C-2.26 28.91, 2.48 26.39, 0 12.5 C-1.83 7.73, 1.45 -0.16, 12.5 0" stroke="none" stroke-width="0" fill="#fff9db"/><path d="M12.5 0 C54.79 1.06, 97.54 -2.49, 167.5 0 M12.5 0 C74.44 -0.13, 135.34 -0.95, 167.5 0 M167.5 0 C175.49 -0.95, 179.16 3.64, 180 12.5 M167.5 0 C177.17 0.09, 180.55 2.05, 180 12.5 M180 12.5 C181.77 20.95, 179.76 26.77, 180 37.5 M180 12.5 C180.33 21.79, 180.69 30.53, 180 37.5 M180 37.5 C179.05 44.71, 174.31 50.4, 167.5 50 M180 37.5 C180.23 43.65, 173.81 51.13, 167.5 50 M167.5 50 C122.33 52.81, 77.52 52.47, 12.5 50 M167.5 50 C109.44 49.65, 51.79 49.47, 12.5 50 M12.5 50 C4.31 51.05, -0.29 46.48, 0 37.5 M12.5 50 C2.56 51.69, -1.78 47.99, 0 37.5 M0 37.5 C1.74 30.99, 0.33 22.77, 0 12.5 M0 37.5 C-0.56 31.69, 0.57 27.1, 0 12.5 M0 12.5 C-0.66 3.49, 5.67 -0.87, 12.5 0 M0 12.5 C1.62 4.38, 4.88 -0.24, 12.5 0" stroke="#ced4da" stroke-width="1" fill="none"/></g><g stroke-linecap="round" transform="translate(985 550) rotate(0 105 27.5)"><path d="M13.75 0 C89.83 -1.34, 161.15 -1.28, 196.25 0 C207.85 -2.16, 208.15 4.35, 210 13.75 C211.96 18.93, 208.56 23.48, 210 41.25 C211.71 49.39, 207.29 58.01, 196.25 55 C157.03 56.91, 116.54 54.35, 13.75 55 C3.72 55.14, -0.24 51.27, 0 41.25 C-1.91 32.13, 1.04 24.22, 0 13.75 C0.1 2.03, 2.72 -3.14, 13.75 0" stroke="none" stroke-width="0" fill="#fff9db"/><path d="M13.75 0 C59.63 1.35, 100.74 -0.69, 196.25 0 M13.75 0 C60.27 0.4, 108.86 0.49, 196.25 0 M196.25 0 C203.5 1.83, 210.88 6.31, 210 13.75 M196.25 0 C206.92 1.82, 209.33 4.95, 210 13.75 M210 13.75 C208.99 20.15, 211.16 27.88, 210 41.25 M210 13.75 C211.11 22.16, 210.08 29.81, 210 41.25 M210 41.25 C211.42 48.93, 205.58 56.62, 196.25 55 M210 41.25 C209.72 51.44, 203.35 55.23, 196.25 55 M196.25 55 C149.64 51.89, 104.26 55.04, 13.75 55 M196.25 55 C140.29 54.44, 84.83 54.39, 13.75 55 M13.75 55 C4.93 53.53, 0.08 51.29, 0 41.25 M13.75 55 C3.83 53.16, -1.71 52.24, 0 41.25 M0 41.25 C0.5 31.17, -1.59 24.03, 0 13.75 M0 41.25 C-0.82 32.8, -0.8 25.58, 0 13.75 M0 13.75 C-0.12 6.24, 5.18 -0.29, 13.75 0 M0 13.75 C-0.95 5.34, 3.07 -0.9, 13.75 0" stroke="#ced4da" stroke-width="1" fill="none"/></g><g stroke-linecap="round" transform="translate(988 654) rotate(0 125 25)"><path d="M12.5 0 C87.2 0.29, 162.21 -3.38, 237.5 0 C246.36 1.7, 249.24 5.82, 250 12.5 C250.87 19.73, 250.68 28.13, 250 37.5 C247.1 47.14, 247.59 53.4, 237.5 50 C185.3 54.16, 138.3 52.89, 12.5 50 C1.55 50.32, -0.15 43.26, 0 37.5 C-0.75 29.47, 1.8 27.9, 0 12.5 C3.44 4.02, 1.3 1.97, 12.5 0" stroke="none" stroke-width="0" fill="#fff9db"/><path d="M12.5 0 C69.57 1.22, 126.49 1.38, 237.5 0 M12.5 0 C64 0.68, 115.93 2.08, 237.5 0 M237.5 0 C244.13 -1.51, 248.57 5.1, 250 12.5 M237.5 0 C246.63 -0.44, 248.41 3.94, 250 12.5 M250 12.5 C250.98 19.08, 249.65 21.45, 250 37.5 M250 12.5 C249.41 19.74, 249.14 28.91, 250 37.5 M250 37.5 C251.09 46.22, 247.07 51.28, 237.5 50 M250 37.5 C249.72 45.89, 244.74 50.52, 237.5 50 M237.5 50 C187.03 49.2, 134.92 47.08, 12.5 50 M237.5 50 C178.7 48.55, 119.6 49.47, 12.5 50 M12.5 50 C2.68 50.63, -0.66 44.31, 0 37.5 M12.5 50 C1.9 49.06, 2.09 44.22, 0 37.5 M0 37.5 C0.96 30.66, -0.65 21.3, 0 12.5 M0 37.5 C0.97 28.2, 1 20.31, 0 12.5 M0 12.5 C1.49 5.99, 5.44 1.09, 12.5 0 M0 12.5 C1.76 5.75, 2.69 0.31, 12.5 0" stroke="#ced4da" stroke-width="1" fill="none"/></g><g stroke-linecap="round" transform="translate(1295 552) rotate(0 60 20)"><path d="M10 0 C46.64 1.54, 78.49 0.26, 110 0 C119.77 -2.5, 120.91 4.55, 120 10 C116.36 14.72, 120.46 26.58, 120 30 C117.09 39.61, 116.18 40.87, 110 40 C89.65 41.98, 68.32 42.95, 10 40 C6.13 37.83, 2.87 38.06, 0 30 C2.4 24.47, -0.56 18.21, 0 10 C1 1.97, 4.53 2.95, 10 0" stroke="none" stroke-width="0" fill="#fff9db"/><path d="M10 0 C30.48 0.31, 53.91 1.96, 110 0 M10 0 C44.78 -0.01, 79.18 1.28, 110 0 M110 0 C115.52 -0.41, 121.34 5.28, 120 10 M110 0 C114.92 -1.55, 120.93 3.97, 120 10 M120 10 C121.86 17.46, 121.1 23.69, 120 30 M120 10 C120.38 15.26, 120.63 19.03, 120 30 M120 30 C118.12 36.95, 118.19 41.2, 110 40 M120 30 C118.4 35.48, 116.24 39.6, 110 40 M110 40 C72.9 38.18, 34.28 39.27, 10 40 M110 40 C73.93 40.28, 38.57 40.73, 10 40 M10 40 C1.74 39.17, -1.98 36.44, 0 30 M10 40 C4.59 39.21, 2.24 37.45, 0 30 M0 30 C-0.24 26.34, -1.66 21.29, 0 10 M0 30 C-0.64 22.37, 0.78 14.26, 0 10 M0 10 C0.46 4.72, 1.65 -0.5, 10 0 M0 10 C0.32 3.42, 4.63 0.55, 10 0" stroke="#ced4da" stroke-width="1" fill="none"/></g><g stroke-linecap="round" transform="translate(1248 654) rotate(0 105 25)"><path d="M12.5 0 C59.51 4.85, 104.99 4.25, 197.5 0 C205.93 -3.55, 210.94 5.48, 210 12.5 C208.3 16.78, 212.22 22.46, 210 37.5 C212.29 44.72, 206.76 48.33, 197.5 50 C120.9 49.46, 49.22 53.45, 12.5 50 C6.17 46.82, -1.23 45.23, 0 37.5 C-0.16 32.49, 2.48 22.59, 0 12.5 C-2.03 3.12, 2.56 3.28, 12.5 0" stroke="none" stroke-width="0" fill="#fff9db"/><path d="M12.5 0 C49.7 -2.43, 88.29 -1, 197.5 0 M12.5 0 C52.27 0.34, 92.82 1.64, 197.5 0 M197.5 0 C207.76 -0.4, 208.56 4.57, 210 12.5 M197.5 0 C207.99 -1.16, 211.48 4.94, 210 12.5 M210 12.5 C210.64 18.83, 209.78 23.7, 210 37.5 M210 12.5 C210.69 21.82, 210.78 30.3, 210 37.5 M210 37.5 C210.61 46.2, 203.86 51.5, 197.5 50 M210 37.5 C209.76 45.17, 204.43 48.75, 197.5 50 M197.5 50 C124.76 49.81, 49.65 49.54, 12.5 50 M197.5 50 C150.99 51.07, 104.26 51.89, 12.5 50 M12.5 50 C2.6 49.23, -0.85 46.83, 0 37.5 M12.5 50 C6.3 51.01, -0.83 46.67, 0 37.5 M0 37.5 C-1.15 29.41, -0.28 23.83, 0 12.5 M0 37.5 C-0.76 31.99, 0.28 25.28, 0 12.5 M0 12.5 C0.23 3.56, 3.4 1.04, 12.5 0 M0 12.5 C-2.29 2.21, 5.87 -0.25, 12.5 0" stroke="#ced4da" stroke-width="1" fill="none"/></g><g stroke-linecap="round" transform="translate(729 954) rotate(0 250 37.5)"><path d="M18.75 0 C182.33 0.58, 346.28 1.73, 481.25 0 C491.33 -2.15, 500.52 3.17, 500 18.75 C502.55 28.42, 503.01 37.28, 500 56.25 C499.78 71.67, 491.88 75.69, 481.25 75 C316.54 71.7, 154.28 73.3, 18.75 75 C3.13 76.87, 0.14 69.26, 0 56.25 C3.56 50.72, -0.89 43.78, 0 18.75 C2.08 4.95, 4.03 -0.33, 18.75 0" stroke="none" stroke-width="0" fill="#fff9db"/><path d="M18.75 0 C179.53 0.25, 341.32 1.43, 481.25 0 M18.75 0 C120.67 -0.46, 221.81 -0.58, 481.25 0 M481.25 0 C493.62 1.12, 501.49 7.9, 500 18.75 M481.25 0 C492.44 -1.83, 502.12 6.68, 500 18.75 M500 18.75 C501.12 26.95, 499.45 35.74, 500 56.25 M500 18.75 C500.13 28.75, 501.02 37.8, 500 56.25 M500 56.25 C498.97 67.12, 492.07 74.62, 481.25 75 M500 56.25 C500.27 69.12, 495.23 76.93, 481.25 75 M481.25 75 C300.9 77.26, 119.21 76.05, 18.75 75 M481.25 75 C355.45 75.99, 228.5 75.56, 18.75 75 M18.75 75 C5.31 73.15, -1.96 68.92, 0 56.25 M18.75 75 C4.1 74.34, -1.16 67.57, 0 56.25 M0 56.25 C1.07 43.35, 0.16 31.02, 0 18.75 M0 56.25 C0.12 41.18, 0.81 28.6, 0 18.75 M0 18.75 C0.43 4.83, 4.92 -0.91, 18.75 0 M0 18.75 C0.49 5.18, 7.23 1.23, 18.75 0" stroke="#ced4da" stroke-width="1" fill="none"/></g><g stroke-linecap="round" transform="translate(1178 894) rotate(0 150 26)"><path d="M13 0 C113.79 5.57, 210.36 1.39, 287 0 C292.7 0.94, 297.81 1.4, 300 13 C303.22 21.7, 299.95 24.23, 300 39 C296.63 45.21, 293.82 52.99, 287 52 C200.73 48.52, 117.14 50.86, 13 52 C7.34 49.16, -1.51 46.88, 0 39 C2.92 33.29, 1.75 22.72, 0 13 C-1.31 6.57, 6.03 0.16, 13 0" stroke="none" stroke-width="0" fill="#fff9db"/><path d="M13 0 C99.19 -0.98, 183.49 0.18, 287 0 M13 0 C116.16 0.46, 219.79 1.08, 287 0 M287 0 C294.47 -1.58, 299.63 3.13, 300 13 M287 0 C297.54 -1.31, 300.02 6.61, 300 13 M300 13 C302.03 23.5, 300.39 30.52, 300 39 M300 13 C300.22 17.84, 300.59 24.16, 300 39 M300 39 C300.87 49.23, 296.05 53.67, 287 52 M300 39 C298.08 47.06, 293.55 53.24, 287 52 M287 52 C210.33 53.67, 134.22 54.99, 13 52 M287 52 C210.02 52.36, 133.4 52.11, 13 52 M13 52 C5.19 50.63, -1.57 46.44, 0 39 M13 52 C4.27 52.81, 1.65 46.37, 0 39 M0 39 C1.54 29.94, -1.59 21.88, 0 13 M0 39 C0.09 28.76, 0.29 19.97, 0 13 M0 13 C-1.14 3.5, 5.45 -0.16, 13 0 M0 13 C1.37 2.42, 4.4 -1.06, 13 0" stroke="#ced4da" stroke-width="1" fill="none"/></g><g transform="translate(10 10) rotate(0 80.0234375 18.4)"><text x="0" y="27.040625" font-family="Helvetica, Segoe UI Emoji" font-size="32px" fill="#1e1e1e" text-anchor="start" style="white-space: pre;" direction="ltr" dominant-baseline="alphabetic">Install Flow</text></g><g transform="translate(10 48) rotate(0 167.5048828125 11.5)"><text x="0" y="16.900390625" font-family="Helvetica, Segoe UI Emoji" font-size="20px" fill="#868e96" text-anchor="start" style="white-space: pre;" direction="ltr" dominant-baseline="alphabetic">Triple-redundant completion detection</text></g><g stroke-linecap="round" transform="translate(20 240) rotate(0 80 50)"><path d="M25 0 C54.48 -0.77, 87.51 -2.63, 135 0 C153.94 -1.95, 157.9 8.47, 160 25 C159.15 44.06, 159.31 61.84, 160 75 C156.61 91.85, 155.07 102.38, 135 100 C109.81 94.8, 85.25 101.2, 25 100 C7.62 102.35, 2.54 88.53, 0 75 C3.77 63.25, 2.4 47.98, 0 25 C3.43 6.87, 9.36 -1.74, 25 0" stroke="none" stroke-width="0" fill="#f8f9fa"/><path d="M25 0 C47.1 -0.24, 71.3 1.56, 135 0 M25 0 C48.6 1.36, 70.64 0.07, 135 0 M135 0 C150.58 -1.21, 160.21 7.02, 160 25 M135 0 C152.28 -0.06, 161.27 6.98, 160 25 M160 25 C160.44 35.91, 161.03 47.43, 160 75 M160 25 C159.49 40.2, 160.83 58.05, 160 75 M160 75 C159.61 91.67, 150.54 101.37, 135 100 M160 75 C157.8 89.45, 153.33 98.09, 135 100 M135 100 C93.55 97.8, 51.93 100.53, 25 100 M135 100 C107.36 100.28, 78.2 99.85, 25 100 M25 100 C9.88 98.34, 1.69 93.46, 0 75 M25 100 C9.74 98.15, -0.4 93.91, 0 75 M0 75 C-0.61 65.08, -0.36 55.45, 0 25 M0 75 C0.67 57.82, 0.99 41.84, 0 25 M0 25 C-0.34 7.45, 7.97 0.72, 25 0 M0 25 C1.16 7.15, 7.23 -1.26, 25 0" stroke="#343a40" stroke-width="2" fill="none"/></g><g transform="translate(45 265) rotate(0 48.3349609375 23)"><text x="0" y="16.900390625" font-family="Helvetica, Segoe UI Emoji" font-size="20px" fill="#343a40" text-anchor="start" style="white-space: pre;" direction="ltr" dominant-baseline="alphabetic">User clicks</text><text x="0" y="39.900390625" font-family="Helvetica, Segoe UI Emoji" font-size="20px" fill="#343a40" text-anchor="start" style="white-space: pre;" direction="ltr" dominant-baseline="alphabetic">Install</text></g><g stroke-linecap="round"><g transform="translate(185.5 290) rotate(0 27 0)"><path d="M-0.14 -0.58 C9.01 -0.61, 45.8 -1.07, 54.93 -1.1 M-1.68 1.73 C7.4 1.89, 45.16 0.12, 54.48 -0.13" stroke="#343a40" stroke-width="2" fill="none"/></g><g transform="translate(185.5 290) rotate(0 27 0)"><path d="M31.32 9.29 C37.36 8.06, 43.44 4.78, 54.48 -0.13 M31.32 9.29 C36.51 6.28, 41.75 4.04, 54.48 -0.13" stroke="#343a40" stroke-width="2" fill="none"/></g><g transform="translate(185.5 290) rotate(0 27 0)"><path d="M30.68 -7.8 C36.78 -3.91, 43.05 -2.07, 54.48 -0.13 M30.68 -7.8 C36.13 -6.74, 41.53 -4.91, 54.48 -0.13" stroke="#343a40" stroke-width="2" fill="none"/></g></g><mask/><g stroke-linecap="round" transform="translate(240 240) rotate(0 90 50)"><path d="M25 0 C53.47 2.51, 86.86 -1.86, 155 0 C171.8 2.14, 178.31 9.8, 180 25 C181.17 36.02, 180.46 57.23, 180 75 C182.38 88.77, 169.82 96.58, 155 100 C122.85 98.34, 86.9 101.59, 25 100 C5.2 98.9, -3.55 93.44, 0 75 C-0.51 59.43, -1.89 38.03, 0 25 C-1.74 11.3, 11.32 -2.98, 25 0" stroke="none" stroke-width="0" fill="#d0ebff"/><path d="M25 0 C55.57 -1.2, 84.13 -0.61, 155 0 M25 0 C71.7 -0.19, 119.02 0.46, 155 0 M155 0 C170.35 0.53, 179.95 9.44, 180 25 M155 0 C170.31 -1.69, 181.15 8.54, 180 25 M180 25 C179.69 40.94, 180.63 56.78, 180 75 M180 25 C180.21 36.34, 179.51 47.5, 180 75 M180 75 C181.37 89.76, 169.74 101.45, 155 100 M180 75 C178.09 93.56, 172.48 99.17, 155 100 M155 100 C112.97 99.82, 69.06 101.55, 25 100 M155 100 C107.04 100.46, 59.52 100.54, 25 100 M25 100 C10.13 101.22, -1.61 91.32, 0 75 M25 100 C10.58 97.87, 1.7 90.38, 0 75 M0 75 C1.06 61.08, -1.55 47.29, 0 25 M0 75 C-0.26 58.27, 0.04 41.69, 0 25 M0 25 C0.72 9.35, 7.3 -0.96, 25 0 M0 25 C-1.26 8.01, 10.21 -0.93, 25 0" stroke="#1971c2" stroke-width="2" fill="none"/></g><g transform="translate(270 265) rotate(0 59.4775390625 23)"><text x="0" y="16.900390625" font-family="Helvetica, Segoe UI Emoji" font-size="20px" fill="#1971c2" text-anchor="start" style="white-space: pre;" direction="ltr" dominant-baseline="alphabetic">Webview</text><text x="0" y="39.900390625" font-family="Helvetica, Segoe UI Emoji" font-size="20px" fill="#1971c2" text-anchor="start" style="white-space: pre;" direction="ltr" dominant-baseline="alphabetic">postMessage</text></g><g transform="translate(230 360) rotate(0 146.73828125 9.199999999999989)"><text x="0" y="13.5203125" font-family="Helvetica, Segoe UI Emoji" font-size="16px" fill="#495057" text-anchor="start" style="white-space: pre;" direction="ltr" dominant-baseline="alphabetic">VS Code sandboxes webviews in iframes</text></g><g stroke-linecap="round"><g transform="translate(425.5 290) rotate(0 27 0)"><path d="M0.67 -0.74 C9.64 -0.42, 45.93 0.81, 54.77 0.81 M-0.44 1.49 C8.36 1.56, 45.36 -0.67, 54.22 -0.88" stroke="#1971c2" stroke-width="2" fill="none"/></g><g transform="translate(425.5 290) rotate(0 27 0)"><path d="M31.13 8.7 C38.71 6.23, 50.02 0.78, 54.22 -0.88 M31.13 8.7 C36.8 5.89, 42.47 4.24, 54.22 -0.88" stroke="#1971c2" stroke-width="2" fill="none"/></g><g transform="translate(425.5 290) rotate(0 27 0)"><path d="M30.37 -8.39 C38.08 -4.41, 49.68 -3.4, 54.22 -0.88 M30.37 -8.39 C36.13 -7.11, 41.99 -4.69, 54.22 -0.88" stroke="#1971c2" stroke-width="2" fill="none"/></g></g><mask/><g stroke-linecap="round" transform="translate(480 240) rotate(0 90 50)"><path d="M25 0 C72.33 3.51, 117.7 2.83, 155 0 C171.24 1.09, 179.73 9.23, 180 25 C182.42 32.39, 178.2 42.17, 180 75 C178.95 88.35, 170.21 103.08, 155 100 C115.43 100.55, 78.58 103.43, 25 100 C11.21 101.72, 1.52 91.58, 0 75 C-1.37 58.21, 3.35 32.5, 0 25 C2.96 7.66, 9.44 2.91, 25 0" stroke="none" stroke-width="0" fill="#d0ebff"/><path d="M25 0 C53.41 2.16, 78.72 -0.42, 155 0 M25 0 C56.28 0.13, 88.84 0.42, 155 0 M155 0 C170.49 -1.47, 181 8.51, 180 25 M155 0 C171.88 -0.47, 180.9 8.1, 180 25 M180 25 C178.8 39.23, 181.47 58.75, 180 75 M180 25 C180.68 38.08, 179.04 53.8, 180 75 M180 75 C178.34 93.31, 172.37 99.28, 155 100 M180 75 C180.7 89.6, 172.86 101.06, 155 100 M155 100 C122.86 100.17, 87.68 99.3, 25 100 M155 100 C106.86 101.71, 56.12 100.93, 25 100 M25 100 C10.28 98.14, 1.48 90.55, 0 75 M25 100 C8.06 100.51, 0.01 93.01, 0 75 M0 75 C0.99 56.85, 1.63 41.1, 0 25 M0 75 C0.58 61.35, -0.29 46.2, 0 25 M0 25 C-1.09 8.05, 9.97 -0.81, 25 0 M0 25 C-1.26 7.33, 8.09 -2.19, 25 0" stroke="#1971c2" stroke-width="2" fill="none"/></g><g transform="translate(510 265) rotate(0 47.8076171875 23)"><text x="0" y="16.900390625" font-family="Helvetica, Segoe UI Emoji" font-size="20px" fill="#1971c2" text-anchor="start" style="white-space: pre;" direction="ltr" dominant-baseline="alphabetic">provider.ts</text><text x="0" y="39.900390625" font-family="Helvetica, Segoe UI Emoji" font-size="20px" fill="#1971c2" text-anchor="start" style="white-space: pre;" direction="ltr" dominant-baseline="alphabetic">dispatches</text></g><g stroke-linecap="round"><g transform="translate(665.5 290) rotate(0 27 0)"><path d="M0.81 -0.33 C9.81 -0.56, 44.52 -0.73, 53.26 -0.65 M-0.22 -1.55 C9.23 -1.7, 46.26 0.03, 55.59 0.54" stroke="#1971c2" stroke-width="2" fill="none"/></g><g transform="translate(665.5 290) rotate(0 27 0)"><path d="M31.71 7.93 C36.81 4.78, 41.96 3.04, 55.59 0.54 M31.71 7.93 C39.14 6.13, 46 2.54, 55.59 0.54" stroke="#1971c2" stroke-width="2" fill="none"/></g><g transform="translate(665.5 290) rotate(0 27 0)"><path d="M32.55 -9.15 C37.55 -8.22, 42.5 -5.9, 55.59 0.54 M32.55 -9.15 C39.61 -5.65, 46.2 -3.93, 55.59 0.54" stroke="#1971c2" stroke-width="2" fill="none"/></g></g><mask/><g stroke-linecap="round" transform="translate(720 240) rotate(0 90 50)"><path d="M25 0 C65.94 0.68, 105.04 0.83, 155 0 C172.56 -3.39, 180.18 11.74, 180 25 C175.86 42.26, 175.96 60.15, 180 75 C183.08 90.96, 174.01 102.54, 155 100 C129.1 100.57, 101.38 99.21, 25 100 C8.25 103.43, -1.46 92.69, 0 75 C-3.72 65.37, -1.41 50.93, 0 25 C2.91 11.71, 6.43 1.81, 25 0" stroke="none" stroke-width="0" fill="#d0ebff"/><path d="M25 0 C71.09 -0.73, 118.41 0.56, 155 0 M25 0 C56.02 -0.55, 85.21 0.53, 155 0 M155 0 C171.85 0.19, 179.59 9.12, 180 25 M155 0 C171.43 0.54, 180.84 9.3, 180 25 M180 25 C180.92 36.15, 179.51 46.94, 180 75 M180 25 C180.25 42.59, 180.35 62.2, 180 75 M180 75 C179.28 92.28, 169.87 101.04, 155 100 M180 75 C181.06 90.68, 171.64 101.01, 155 100 M155 100 C106.41 101.23, 58.69 101.38, 25 100 M155 100 C104.14 99.93, 52.7 99.69, 25 100 M25 100 C7.21 99.76, 0.44 91.68, 0 75 M25 100 C9.68 100.55, -1.65 92.92, 0 75 M0 75 C-1.01 58.1, -0.4 41.5, 0 25 M0 75 C-0.73 57.65, -0.39 42.2, 0 25 M0 25 C-0.81 7.24, 7.46 -0.21, 25 0 M0 25 C-2.19 9.78, 7.09 -1.34, 25 0" stroke="#1971c2" stroke-width="2" fill="none"/></g><g transform="translate(765 277) rotate(0 44.462890625 11.5)"><text x="0" y="16.900390625" font-family="Helvetica, Segoe UI Emoji" font-size="20px" fill="#1971c2" text-anchor="start" style="white-space: pre;" direction="ltr" dominant-baseline="alphabetic">installer.ts</text></g><g stroke-linecap="round"><g transform="translate(905.5 290) rotate(0 27 0)"><path d="M-0.65 -0.73 C8.42 -0.74, 44.96 -0.9, 54.13 -0.79 M1.21 1.5 C10.16 1.7, 44.49 0.38, 53.24 0.34" stroke="#1971c2" stroke-width="2" fill="none"/></g><g transform="translate(905.5 290) rotate(0 27 0)"><path d="M29.95 9.42 C35.14 7.28, 41.4 5.13, 53.24 0.34 M29.95 9.42 C36.09 7.35, 43.84 4.25, 53.24 0.34" stroke="#1971c2" stroke-width="2" fill="none"/></g><g transform="translate(905.5 290) rotate(0 27 0)"><path d="M29.56 -7.68 C34.76 -5.15, 41.11 -2.64, 53.24 0.34 M29.56 -7.68 C35.91 -4.66, 43.78 -2.68, 53.24 0.34" stroke="#1971c2" stroke-width="2" fill="none"/></g></g><mask/><g stroke-linecap="round" transform="translate(960 220) rotate(0 110 70)"><path d="M32 0 C84.88 0.05, 134.9 -0.66, 188 0 C212.74 2.38, 217.1 8.82, 220 32 C218.14 50.66, 218.89 65.51, 220 108 C222.54 126.2, 208.23 136.45, 188 140 C135.02 141.26, 82.44 139.88, 32 140 C11.69 138.26, 2.97 132.32, 0 108 C-0.02 94.4, 2.25 73.08, 0 32 C1.81 10.92, 11.59 -1.78, 32 0" stroke="none" stroke-width="0" fill="#e5dbff"/><path d="M32 0 C69.45 -0.37, 107.02 0.89, 188 0 M32 0 C87.91 1.24, 142.91 0.94, 188 0 M188 0 C210.12 -0.2, 220.47 11.4, 220 32 M188 0 C210.3 -1.59, 217.76 12.14, 220 32 M220 32 C218.73 61.5, 217.94 86.33, 220 108 M220 32 C219.72 59.94, 219.67 87.71, 220 108 M220 108 C221.04 130.26, 208.48 139.98, 188 140 M220 108 C221.01 130.81, 208.88 139.45, 188 140 M188 140 C152.78 140.5, 115.4 137.1, 32 140 M188 140 C144.64 137.99, 99.69 138.77, 32 140 M32 140 C10.68 141.17, 0.48 127.9, 0 108 M32 140 C11.92 140.72, -2.24 130.79, 0 108 M0 108 C-0.24 91.61, 1.14 72.74, 0 32 M0 108 C1.23 88.44, -0.13 69.26, 0 32 M0 32 C-0.21 8.76, 11.93 -1.08, 32 0 M0 32 C-1.34 10.75, 12.03 -1.08, 32 0" stroke="#7048e8" stroke-width="2" fill="none"/></g><g transform="translate(995 252) rotate(0 64.47265625 34.5)"><text x="0" y="16.900390625" font-family="Helvetica, Segoe UI Emoji" font-size="20px" fill="#7048e8" text-anchor="start" style="white-space: pre;" direction="ltr" dominant-baseline="alphabetic">Terminal:</text><text x="0" y="39.900390625" font-family="Helvetica, Segoe UI Emoji" font-size="20px" fill="#7048e8" text-anchor="start" style="white-space: pre;" direction="ltr" dominant-baseline="alphabetic">npx skills add</text><text x="0" y="62.900390625" font-family="Helvetica, Segoe UI Emoji" font-size="20px" fill="#7048e8" text-anchor="start" style="white-space: pre;" direction="ltr" dominant-baseline="alphabetic">&lt;source&gt; -g -y</text></g><g transform="translate(930 390) rotate(0 114.7265625 13.800000000000011)"><text x="0" y="20.280468749999997" font-family="Helvetica, Segoe UI Emoji" font-size="24px" fill="#1971c2" text-anchor="start" style="white-space: pre;" direction="ltr" dominant-baseline="alphabetic">Completion Detection</text></g><g stroke-linecap="round"><g transform="translate(1009.5 360.5) rotate(0 -84.5 54.5)"><path d="M0.32 -0.03 C-27.76 18.15, -139.97 90.02, -168.34 108.29 M-0.97 -1.09 C-29.16 17.3, -141.19 91.35, -168.94 109.46" stroke="#2f9e44" stroke-width="2" fill="none"/></g><g transform="translate(1009.5 360.5) rotate(0 -84.5 54.5)"><path d="M-154 89.41 C-158.82 96.78, -164.58 100.43, -168.94 109.46 M-154 89.41 C-159.42 96.83, -164.54 103.69, -168.94 109.46" stroke="#2f9e44" stroke-width="2" fill="none"/></g><g transform="translate(1009.5 360.5) rotate(0 -84.5 54.5)"><path d="M-144.61 103.7 C-152.25 106.66, -160.93 105.87, -168.94 109.46 M-144.61 103.7 C-153.32 106.13, -161.73 107.99, -168.94 109.46" stroke="#2f9e44" stroke-width="2" fill="none"/></g></g><mask/><g stroke-linecap="round"><g transform="translate(1070.5 360.5) rotate(0 14.5 54.5)"><path d="M-0.03 0.66 C4.82 18.63, 23.36 90.04, 28.29 108.12 M-1.51 -0.04 C3.8 18.03, 25.53 90.77, 30.64 109.19" stroke="#e8590c" stroke-width="2" fill="none"/></g><g transform="translate(1070.5 360.5) rotate(0 14.5 54.5)"><path d="M15.89 89 C20.5 92.56, 21.38 99.47, 30.64 109.19 M15.89 89 C20.86 95.17, 25.26 101.88, 30.64 109.19" stroke="#e8590c" stroke-width="2" fill="none"/></g><g transform="translate(1070.5 360.5) rotate(0 14.5 54.5)"><path d="M32.32 84.25 C33.09 88.92, 30.12 96.94, 30.64 109.19 M32.32 84.25 C32.21 91.85, 31.54 100.03, 30.64 109.19" stroke="#e8590c" stroke-width="2" fill="none"/></g></g><mask/><g stroke-linecap="round"><g transform="translate(1130.5 360.5) rotate(0 109.5 54.5)"><path d="M0.66 -0.71 C36.96 17.57, 181.71 91.3, 218.12 109.6 M-0.45 1.54 C36.2 19.46, 183.89 89.63, 220.36 107.79" stroke="#e03131" stroke-width="2" fill="none"/></g><g transform="translate(1130.5 360.5) rotate(0 109.5 54.5)"><path d="M195.49 105.23 C202.44 104.46, 212.74 106.95, 220.36 107.79 M195.49 105.23 C203.08 106.16, 211.24 107.14, 220.36 107.79" stroke="#e03131" stroke-width="2" fill="none"/></g><g transform="translate(1130.5 360.5) rotate(0 109.5 54.5)"><path d="M202.96 89.85 C207.46 94.14, 215.32 101.65, 220.36 107.79 M202.96 89.85 C208.2 95.56, 214.06 101.3, 220.36 107.79" stroke="#e03131" stroke-width="2" fill="none"/></g></g><mask/><g stroke-linecap="round" transform="translate(740 470) rotate(0 100 40)"><path d="M20 0 C65.92 -3.75, 114.22 -2.95, 180 0 C190.02 -1.46, 203.08 5.96, 200 20 C199.4 31.06, 202.28 52.09, 200 60 C201.72 74.85, 193.25 83.43, 180 80 C141.45 81.6, 93.99 81.57, 20 80 C6 81.11, 2.91 76.71, 0 60 C0.57 48.34, 0.46 43.83, 0 20 C1.87 5.89, 8.98 2.83, 20 0" stroke="none" stroke-width="0" fill="#d3f9d8"/><path d="M20 0 C66.1 1.94, 115.34 1.13, 180 0 M20 0 C64.95 0.53, 109.86 -0.53, 180 0 M180 0 C191.39 1.28, 201.4 6.28, 200 20 M180 0 C193.33 -1.3, 201.57 4.47, 200 20 M200 20 C201.94 28.85, 199.57 36.9, 200 60 M200 20 C199.78 28.39, 200.65 37.44, 200 60 M200 60 C199.6 72.86, 192.07 81.54, 180 80 M200 60 C198.09 75.28, 195.4 81.41, 180 80 M180 80 C143.02 83.04, 108.62 81.32, 20 80 M180 80 C128.71 80.22, 77.49 81.25, 20 80 M20 80 C4.72 81.27, -1.5 73, 0 60 M20 80 C5.65 79.58, 0.83 74.5, 0 60 M0 60 C-0.09 51.69, -0.62 39.03, 0 20 M0 60 C0.67 49.2, -0.54 39.52, 0 20 M0 20 C1.19 5.73, 7.48 -0.23, 20 0 M0 20 C0.69 6.49, 7.24 -2.17, 20 0" stroke="#2f9e44" stroke-width="2" fill="none"/></g><g transform="translate(775 497) rotate(0 72.2705078125 11.5)"><text x="0" y="16.900390625" font-family="Helvetica, Segoe UI Emoji" font-size="20px" fill="#2f9e44" text-anchor="start" style="white-space: pre;" direction="ltr" dominant-baseline="alphabetic">Shell Integration</text></g><g transform="translate(750 560) rotate(0 73.5380859375 20.69999999999999)"><text x="0" y="15.2103515625" font-family="Helvetica, Segoe UI Emoji" font-size="18px" fill="#2f9e44" text-anchor="start" style="white-space: pre;" direction="ltr" dominant-baseline="alphabetic">onDidEndTerminal</text><text x="0" y="35.9103515625" font-family="Helvetica, Segoe UI Emoji" font-size="18px" fill="#2f9e44" text-anchor="start" style="white-space: pre;" direction="ltr" dominant-baseline="alphabetic">ShellExecution</text></g><g transform="translate(750 662) rotate(0 56.47265625 18.399999999999977)"><text x="0" y="13.5203125" font-family="Helvetica, Segoe UI Emoji" font-size="16px" fill="#495057" text-anchor="start" style="white-space: pre;" direction="ltr" dominant-baseline="alphabetic">Most reliable on</text><text x="0" y="31.920312499999998" font-family="Helvetica, Segoe UI Emoji" font-size="16px" fill="#495057" text-anchor="start" style="white-space: pre;" direction="ltr" dominant-baseline="alphabetic">macOS/Linux</text></g><g stroke-linecap="round" transform="translate(990 470) rotate(0 110 40)"><path d="M20 0 C61.44 -0.52, 112.59 0.23, 200 0 C215.68 2.54, 216.86 5.56, 220 20 C222.07 29.58, 220.27 39.54, 220 60 C218.54 74.36, 211.6 82.97, 200 80 C130.41 83.77, 65.06 86.03, 20 80 C4.76 81.81, 0.26 74.26, 0 60 C1.71 49.19, 2.15 42.78, 0 20 C2.9 7.83, 3.96 -0.79, 20 0" stroke="none" stroke-width="0" fill="#ffe8cc"/><path d="M20 0 C82.56 0.62, 145.74 0.3, 200 0 M20 0 C79.63 1.89, 141.92 1.06, 200 0 M200 0 C213.33 -1.13, 221.37 4.76, 220 20 M200 0 C211.12 1.67, 218.09 8.56, 220 20 M220 20 C218.05 34.45, 220.78 45.97, 220 60 M220 20 C219.98 31.72, 219.54 44.68, 220 60 M220 60 C218.34 75.03, 215.13 81.22, 200 80 M220 60 C218.15 72.93, 215.58 77.87, 200 80 M200 80 C133.14 79.8, 66.57 80.27, 20 80 M200 80 C157.97 81.2, 117.14 80.39, 20 80 M20 80 C5.78 79.63, 0.72 74.35, 0 60 M20 80 C5.48 78.9, -1.26 73.01, 0 60 M0 60 C-0.71 44.53, -1.74 30.73, 0 20 M0 60 C0.83 49.7, 0.64 40.22, 0 20 M0 20 C0.6 6.52, 7.16 -1.88, 20 0 M0 20 C0.12 8.84, 8.19 -1.85, 20 0" stroke="#e8590c" stroke-width="2" fill="none"/></g><g transform="translate(1020 497) rotate(0 86.3134765625 11.5)"><text x="0" y="16.900390625" font-family="Helvetica, Segoe UI Emoji" font-size="20px" fill="#e8590c" text-anchor="start" style="white-space: pre;" direction="ltr" dominant-baseline="alphabetic">FileSystemWatcher</text></g><g transform="translate(1000 560) rotate(0 74.9443359375 20.69999999999999)"><text x="0" y="15.2103515625" font-family="Helvetica, Segoe UI Emoji" font-size="18px" fill="#e8590c" text-anchor="start" style="white-space: pre;" direction="ltr" dominant-baseline="alphabetic">Watches lock file +</text><text x="0" y="35.9103515625" font-family="Helvetica, Segoe UI Emoji" font-size="18px" fill="#e8590c" text-anchor="start" style="white-space: pre;" direction="ltr" dominant-baseline="alphabetic">skill directories</text></g><g transform="translate(1000 662) rotate(0 93.81640625 18.399999999999977)"><text x="0" y="13.5203125" font-family="Helvetica, Segoe UI Emoji" font-size="16px" fill="#495057" text-anchor="start" style="white-space: pre;" direction="ltr" dominant-baseline="alphabetic">Lock file is a regular file —</text><text x="0" y="31.920312499999998" font-family="Helvetica, Segoe UI Emoji" font-size="16px" fill="#495057" text-anchor="start" style="white-space: pre;" direction="ltr" dominant-baseline="alphabetic">works through symlinks</text></g><g stroke-linecap="round" transform="translate(1260 470) rotate(0 90 40)"><path d="M20 0 C58.67 3.04, 89.5 -0.61, 160 0 C169.79 1.78, 182.88 8.39, 180 20 C178.52 34.71, 178.25 50.34, 180 60 C182.98 70.35, 176.29 79.33, 160 80 C111.79 84.17, 67.64 83.29, 20 80 C4.89 80.82, 3.6 75.21, 0 60 C2.44 50.03, -3.17 36.94, 0 20 C-1.66 4.16, 6.28 -1.85, 20 0" stroke="none" stroke-width="0" fill="#ffe3e3"/><path d="M20 0 C68.22 0.52, 113.59 -2.28, 160 0 M20 0 C70.98 -0.29, 122.65 -0.68, 160 0 M160 0 C171.41 1.45, 178.34 8.31, 180 20 M160 0 C174.15 -0.83, 180.7 4.6, 180 20 M180 20 C180.16 34.95, 181.47 47.75, 180 60 M180 20 C178.92 31.9, 180.65 42.71, 180 60 M180 60 C178.39 72.99, 175.28 78.14, 160 80 M180 60 C181.7 72.05, 173.06 80.51, 160 80 M160 80 C116.48 81.43, 76.46 78.39, 20 80 M160 80 C108.68 79.58, 58.61 80.27, 20 80 M20 80 C5.64 79.04, -1.09 73.05, 0 60 M20 80 C8.54 79.07, -1.26 72.33, 0 60 M0 60 C-0.7 47.25, 0.45 38.02, 0 20 M0 60 C0.14 49.81, 0.09 38.82, 0 20 M0 20 C0.1 8.56, 7.99 -1.61, 20 0 M0 20 C-1.18 4.48, 6 -2.12, 20 0" stroke="#e03131" stroke-width="2" fill="none"/></g><g transform="translate(1300 497) rotate(0 54.6533203125 11.5)"><text x="0" y="16.900390625" font-family="Helvetica, Segoe UI Emoji" font-size="20px" fill="#e03131" text-anchor="start" style="white-space: pre;" direction="ltr" dominant-baseline="alphabetic">30s Timeout</text></g><g transform="translate(1310 560) rotate(0 40.5263671875 10.350000000000023)"><text x="0" y="15.2103515625" font-family="Helvetica, Segoe UI Emoji" font-size="18px" fill="#e03131" text-anchor="start" style="white-space: pre;" direction="ltr" dominant-baseline="alphabetic">Safety net</text></g><g transform="translate(1260 662) rotate(0 86.25 18.399999999999977)"><text x="0" y="13.5203125" font-family="Helvetica, Segoe UI Emoji" font-size="16px" fill="#495057" text-anchor="start" style="white-space: pre;" direction="ltr" dominant-baseline="alphabetic">Windows watcher</text><text x="0" y="31.920312499999998" font-family="Helvetica, Segoe UI Emoji" font-size="16px" fill="#495057" text-anchor="start" style="white-space: pre;" direction="ltr" dominant-baseline="alphabetic">misses symlink changes</text></g><g stroke-linecap="round"><g transform="translate(840.5 555.5) rotate(0 84.5 77)"><path d="M-1.17 0.77 C27.05 26.54, 141.48 128.34, 169.84 153.77" stroke="#2f9e44" stroke-width="2.5" fill="none" stroke-dasharray="8 10"/></g><g transform="translate(840.5 555.5) rotate(0 84.5 77)"><path d="M146.62 144.5 C155.79 149.3, 162.07 151.07, 169.84 153.77" stroke="#2f9e44" stroke-width="2.5" fill="none"/></g><g transform="translate(840.5 555.5) rotate(0 84.5 77)"><path d="M158.01 131.74 C163.19 140.8, 165.57 146.93, 169.84 153.77" stroke="#2f9e44" stroke-width="2.5" fill="none"/></g></g><mask/><g stroke-linecap="round"><g transform="translate(1099.5 555.5) rotate(0 -44.5 77)"><path d="M0.77 0.84 C-13.96 26.7, -74.16 128.34, -89.23 154" stroke="#e8590c" stroke-width="2.5" fill="none" stroke-dasharray="8 10"/></g><g transform="translate(1099.5 555.5) rotate(0 -44.5 77)"><path d="M-84.66 129.42 C-84.55 134.73, -87.01 139.66, -89.23 154" stroke="#e8590c" stroke-width="2.5" fill="none"/></g><g transform="translate(1099.5 555.5) rotate(0 -44.5 77)"><path d="M-69.93 138.11 C-73.14 141.51, -78.99 144.44, -89.23 154" stroke="#e8590c" stroke-width="2.5" fill="none"/></g></g><mask/><g stroke-linecap="round"><g transform="translate(1349.5 555.5) rotate(0 -169.5 77)"><path d="M0.84 -0.23 C-55.46 25.19, -282.5 127.81, -339 153.32" stroke="#e03131" stroke-width="2.5" fill="none" stroke-dasharray="8 10"/></g><g transform="translate(1349.5 555.5) rotate(0 -169.5 77)"><path d="M-321.11 135.86 C-325.01 139.52, -329.38 144.43, -339 153.32" stroke="#e03131" stroke-width="2.5" fill="none"/></g><g transform="translate(1349.5 555.5) rotate(0 -169.5 77)"><path d="M-314.07 151.44 C-319.49 152, -325.29 153.75, -339 153.32" stroke="#e03131" stroke-width="2.5" fill="none"/></g></g><mask/><g stroke-linecap="round" transform="translate(910 780) rotate(0 100 50)"><path d="M126.25 12.75 C137.97 18.71, 145.93 25.75, 174.75 38.25 C198.54 52.03, 198.26 53.97, 174.75 63.75 C155.16 74.57, 140.16 85.84, 126.25 87.25 C99.1 101.81, 101.26 100.93, 75.75 87.25 C64.87 81.49, 52.65 79.21, 25.25 63.75 C2.9 52.16, -2.71 50.21, 25.25 38.25 C36.54 33.62, 47.81 28.15, 75.75 12.75 C103.04 2.73, 101.27 1.43, 126.25 12.75" stroke="none" stroke-width="0" fill="#d0ebff"/><path d="M126.25 12.75 C144.09 21, 163.12 29.51, 174.75 38.25 M126.25 12.75 C137.13 18.7, 145.82 23.84, 174.75 38.25 M174.75 38.25 C198.2 52.04, 200.92 50.14, 174.75 63.75 M174.75 38.25 C199.97 52.01, 201.47 50.54, 174.75 63.75 M174.75 63.75 C159.54 72.31, 149.6 78.33, 126.25 87.25 M174.75 63.75 C163.13 70.12, 152.85 74.42, 126.25 87.25 M126.25 87.25 C101.44 100.01, 102.17 100.48, 75.75 87.25 M126.25 87.25 C99.35 101.26, 101.72 97.76, 75.75 87.25 M75.75 87.25 C56.69 78.26, 39.95 71.1, 25.25 63.75 M75.75 87.25 C63.17 81.95, 50.36 74.75, 25.25 63.75 M25.25 63.75 C-0.87 50.79, -1.91 52.26, 25.25 38.25 M25.25 63.75 C-1.25 49.66, 0.08 52.37, 25.25 38.25 M25.25 38.25 C38.52 31.71, 51.19 23.52, 75.75 12.75 M25.25 38.25 C39.61 29.62, 54.88 22.06, 75.75 12.75 M75.75 12.75 C99.16 -0.81, 102.71 -0.39, 126.25 12.75 M75.75 12.75 C102.5 1.62, 99 -0.71, 126.25 12.75" stroke="#1971c2" stroke-width="2" fill="none"/></g><g transform="translate(945 805) rotate(0 56.69921875 23)"><text x="0" y="16.900390625" font-family="Helvetica, Segoe UI Emoji" font-size="20px" fill="#1971c2" text-anchor="start" style="white-space: pre;" direction="ltr" dominant-baseline="alphabetic">First fires →</text><text x="0" y="39.900390625" font-family="Helvetica, Segoe UI Emoji" font-size="20px" fill="#1971c2" text-anchor="start" style="white-space: pre;" direction="ltr" dominant-baseline="alphabetic">resolved flag</text></g><g stroke-linecap="round"><g transform="translate(1115.5 830) rotate(0 37 0)"><path d="M-0.68 0.82 C11.5 0.63, 60.26 -0.85, 72.85 -1.16 M1.17 0.21 C13.72 0.12, 62.73 -0.16, 74.96 -0.23" stroke="#1971c2" stroke-width="2" fill="none"/></g><g transform="translate(1115.5 830) rotate(0 37 0)"><path d="M51.52 8.46 C59.47 4.24, 62.75 5.16, 74.96 -0.23 M51.52 8.46 C56.18 6.79, 60.73 5.12, 74.96 -0.23" stroke="#1971c2" stroke-width="2" fill="none"/></g><g transform="translate(1115.5 830) rotate(0 37 0)"><path d="M51.42 -8.65 C59.4 -8.06, 62.71 -2.34, 74.96 -0.23 M51.42 -8.65 C56.24 -6.6, 60.82 -4.56, 74.96 -0.23" stroke="#1971c2" stroke-width="2" fill="none"/></g></g><mask/><g stroke-linecap="round" transform="translate(1190 790) rotate(0 90 40)"><path d="M20 0 C72.11 -1.4, 118.39 -1.68, 160 0 C176.3 2.98, 177.02 9.62, 180 20 C183.59 29.35, 182.03 42.76, 180 60 C180.93 71.56, 174.15 83.6, 160 80 C113.55 84.52, 62.59 78.91, 20 80 C5.88 78.34, -2.51 72.94, 0 60 C2.4 52.09, 2.38 40.38, 0 20 C1.43 9.69, 9.6 -3.59, 20 0" stroke="none" stroke-width="0" fill="#d0ebff"/><path d="M20 0 C60.1 -2.89, 105.46 -2.62, 160 0 M20 0 C73.83 -0.39, 127.57 0.97, 160 0 M160 0 C172.48 -0.02, 180.88 7.95, 180 20 M160 0 C172.88 -0.55, 178.54 8.44, 180 20 M180 20 C181.56 27.07, 179.99 39.31, 180 60 M180 20 C180.18 28.51, 180.3 37.16, 180 60 M180 60 C180.48 71.9, 174.43 80.63, 160 80 M180 60 C177.76 74.79, 171.61 79.61, 160 80 M160 80 C125.23 79.48, 87.47 79.41, 20 80 M160 80 C119.44 79, 79.87 78.48, 20 80 M20 80 C7.93 78.92, -1.17 73.41, 0 60 M20 80 C8.03 78.92, 0.94 73.06, 0 60 M0 60 C-1.85 46.9, 1.92 34.91, 0 20 M0 60 C-0.09 50.3, -0.2 43.3, 0 20 M0 20 C-0.39 7.97, 8.08 -1.74, 20 0 M0 20 C-0.71 4.4, 7.8 1.84, 20 0" stroke="#1971c2" stroke-width="2" fill="none"/></g><g transform="translate(1220 817) rotate(0 90.3271484375 11.5)"><text x="0" y="16.900390625" font-family="Helvetica, Segoe UI Emoji" font-size="20px" fill="#1971c2" text-anchor="start" style="white-space: pre;" direction="ltr" dominant-baseline="alphabetic">Rescan + UI Update</text></g><g transform="translate(740 962) rotate(0 210.265625 27.600000000000023)"><text x="0" y="13.5203125" font-family="Helvetica, Segoe UI Emoji" font-size="16px" fill="#495057" text-anchor="start" style="white-space: pre;" direction="ltr" dominant-baseline="alphabetic">Why three? Windows FileSystemWatcher doesn't reliably</text><text x="0" y="31.920312499999998" font-family="Helvetica, Segoe UI Emoji" font-size="16px" fill="#495057" text-anchor="start" style="white-space: pre;" direction="ltr" dominant-baseline="alphabetic">detect changes through symlinks. Shell integration requires</text><text x="0" y="50.3203125" font-family="Helvetica, Segoe UI Emoji" font-size="16px" fill="#495057" text-anchor="start" style="white-space: pre;" direction="ltr" dominant-baseline="alphabetic">VS Code 1.93+. Timeout catches all remaining edge cases.</text></g><g transform="translate(1190 902) rotate(0 119.00390625 18.399999999999977)"><text x="0" y="13.5203125" font-family="Helvetica, Segoe UI Emoji" font-size="16px" fill="#495057" text-anchor="start" style="white-space: pre;" direction="ltr" dominant-baseline="alphabetic">Promise.all([minDelay, detection])</text><text x="0" y="31.920312499999998" font-family="Helvetica, Segoe UI Emoji" font-size="16px" fill="#495057" text-anchor="start" style="white-space: pre;" direction="ltr" dominant-baseline="alphabetic">ensures notification shows ≥2s</text></g><g stroke-linecap="round" transform="translate(735 550) rotate(0 100 27.5)"><path d="M13.75 0 C56.99 -4.69, 105.48 0.59, 186.25 0 C198.56 2.65, 201.79 2.51, 200 13.75 C199.36 20.47, 197.11 25.87, 200 41.25 C196.54 50.67, 198.89 54.44, 186.25 55 C127.68 57.51, 61.87 59.35, 13.75 55 C4.55 56.19, -0.87 49.4, 0 41.25 C3.72 33.21, 1.55 24.07, 0 13.75 C-2.62 7.05, 6.13 1.66, 13.75 0" stroke="none" stroke-width="0" fill="#fff9db"/><path d="M13.75 0 C78.02 -2.99, 142.06 -3.37, 186.25 0 M13.75 0 C63.15 1.02, 112.25 0.22, 186.25 0 M186.25 0 C195.57 1.84, 200.43 4.26, 200 13.75 M186.25 0 C194.79 -1.11, 200.45 5.35, 200 13.75 M200 13.75 C198.54 18.76, 199.38 26.77, 200 41.25 M200 13.75 C199.74 20.11, 200.98 25.7, 200 41.25 M200 41.25 C198.67 49.78, 193.51 53.06, 186.25 55 M200 41.25 C200.43 50.09, 195.74 54.49, 186.25 55 M186.25 55 C120.6 54.13, 54.6 54.96, 13.75 55 M186.25 55 C117.91 55.14, 51.01 55.32, 13.75 55 M13.75 55 C4.98 54.77, -1.54 50.84, 0 41.25 M13.75 55 C3.66 53.24, -1.62 50.38, 0 41.25 M0 41.25 C1.84 33.86, 0.44 29.6, 0 13.75 M0 41.25 C-0.9 30.87, -0.84 20.57, 0 13.75 M0 13.75 C-0.59 3.99, 6.28 -1.39, 13.75 0 M0 13.75 C0.03 3.15, 6.03 1.29, 13.75 0" stroke="#ced4da" stroke-width="1" fill="none"/></g><g stroke-linecap="round" transform="translate(738 654) rotate(0 90 25)"><path d="M12.5 0 C59.35 -2.14, 110.18 0.27, 167.5 0 C177.3 2.27, 180.51 2.37, 180 12.5 C180.78 18.55, 178.72 25.17, 180 37.5 C179.88 48.96, 175.74 49.63, 167.5 50 C134.17 48.46, 103.25 50.18, 12.5 50 C3.22 47.63, 0.24 47.15, 0 37.5 C-2.26 28.91, 2.48 26.39, 0 12.5 C-1.83 7.73, 1.45 -0.16, 12.5 0" stroke="none" stroke-width="0" fill="#fff9db"/><path d="M12.5 0 C54.79 1.06, 97.54 -2.49, 167.5 0 M12.5 0 C74.44 -0.13, 135.34 -0.95, 167.5 0 M167.5 0 C175.49 -0.95, 179.16 3.64, 180 12.5 M167.5 0 C177.17 0.09, 180.55 2.05, 180 12.5 M180 12.5 C181.77 20.95, 179.76 26.77, 180 37.5 M180 12.5 C180.33 21.79, 180.69 30.53, 180 37.5 M180 37.5 C179.05 44.71, 174.31 50.4, 167.5 50 M180 37.5 C180.23 43.65, 173.81 51.13, 167.5 50 M167.5 50 C122.33 52.81, 77.52 52.47, 12.5 50 M167.5 50 C109.44 49.65, 51.79 49.47, 12.5 50 M12.5 50 C4.31 51.05, -0.29 46.48, 0 37.5 M12.5 50 C2.56 51.69, -1.78 47.99, 0 37.5 M0 37.5 C1.74 30.99, 0.33 22.77, 0 12.5 M0 37.5 C-0.56 31.69, 0.57 27.1, 0 12.5 M0 12.5 C-0.66 3.49, 5.67 -0.87, 12.5 0 M0 12.5 C1.62 4.38, 4.88 -0.24, 12.5 0" stroke="#ced4da" stroke-width="1" fill="none"/></g><g stroke-linecap="round" transform="translate(985 550) rotate(0 105 27.5)"><path d="M13.75 0 C89.83 -1.34, 161.15 -1.28, 196.25 0 C207.85 -2.16, 208.15 4.35, 210 13.75 C211.96 18.93, 208.56 23.48, 210 41.25 C211.71 49.39, 207.29 58.01, 196.25 55 C157.03 56.91, 116.54 54.35, 13.75 55 C3.72 55.14, -0.24 51.27, 0 41.25 C-1.91 32.13, 1.04 24.22, 0 13.75 C0.1 2.03, 2.72 -3.14, 13.75 0" stroke="none" stroke-width="0" fill="#fff9db"/><path d="M13.75 0 C59.63 1.35, 100.74 -0.69, 196.25 0 M13.75 0 C60.27 0.4, 108.86 0.49, 196.25 0 M196.25 0 C203.5 1.83, 210.88 6.31, 210 13.75 M196.25 0 C206.92 1.82, 209.33 4.95, 210 13.75 M210 13.75 C208.99 20.15, 211.16 27.88, 210 41.25 M210 13.75 C211.11 22.16, 210.08 29.81, 210 41.25 M210 41.25 C211.42 48.93, 205.58 56.62, 196.25 55 M210 41.25 C209.72 51.44, 203.35 55.23, 196.25 55 M196.25 55 C149.64 51.89, 104.26 55.04, 13.75 55 M196.25 55 C140.29 54.44, 84.83 54.39, 13.75 55 M13.75 55 C4.93 53.53, 0.08 51.29, 0 41.25 M13.75 55 C3.83 53.16, -1.71 52.24, 0 41.25 M0 41.25 C0.5 31.17, -1.59 24.03, 0 13.75 M0 41.25 C-0.82 32.8, -0.8 25.58, 0 13.75 M0 13.75 C-0.12 6.24, 5.18 -0.29, 13.75 0 M0 13.75 C-0.95 5.34, 3.07 -0.9, 13.75 0" stroke="#ced4da" stroke-width="1" fill="none"/></g><g stroke-linecap="round" transform="translate(988 654) rotate(0 125 25)"><path d="M12.5 0 C87.2 0.29, 162.21 -3.38, 237.5 0 C246.36 1.7, 249.24 5.82, 250 12.5 C250.87 19.73, 250.68 28.13, 250 37.5 C247.1 47.14, 247.59 53.4, 237.5 50 C185.3 54.16, 138.3 52.89, 12.5 50 C1.55 50.32, -0.15 43.26, 0 37.5 C-0.75 29.47, 1.8 27.9, 0 12.5 C3.44 4.02, 1.3 1.97, 12.5 0" stroke="none" stroke-width="0" fill="#fff9db"/><path d="M12.5 0 C69.57 1.22, 126.49 1.38, 237.5 0 M12.5 0 C64 0.68, 115.93 2.08, 237.5 0 M237.5 0 C244.13 -1.51, 248.57 5.1, 250 12.5 M237.5 0 C246.63 -0.44, 248.41 3.94, 250 12.5 M250 12.5 C250.98 19.08, 249.65 21.45, 250 37.5 M250 12.5 C249.41 19.74, 249.14 28.91, 250 37.5 M250 37.5 C251.09 46.22, 247.07 51.28, 237.5 50 M250 37.5 C249.72 45.89, 244.74 50.52, 237.5 50 M237.5 50 C187.03 49.2, 134.92 47.08, 12.5 50 M237.5 50 C178.7 48.55, 119.6 49.47, 12.5 50 M12.5 50 C2.68 50.63, -0.66 44.31, 0 37.5 M12.5 50 C1.9 49.06, 2.09 44.22, 0 37.5 M0 37.5 C0.96 30.66, -0.65 21.3, 0 12.5 M0 37.5 C0.97 28.2, 1 20.31, 0 12.5 M0 12.5 C1.49 5.99, 5.44 1.09, 12.5 0 M0 12.5 C1.76 5.75, 2.69 0.31, 12.5 0" stroke="#ced4da" stroke-width="1" fill="none"/></g><g stroke-linecap="round" transform="translate(1295 552) rotate(0 60 20)"><path d="M10 0 C46.64 1.54, 78.49 0.26, 110 0 C119.77 -2.5, 120.91 4.55, 120 10 C116.36 14.72, 120.46 26.58, 120 30 C117.09 39.61, 116.18 40.87, 110 40 C89.65 41.98, 68.32 42.95, 10 40 C6.13 37.83, 2.87 38.06, 0 30 C2.4 24.47, -0.56 18.21, 0 10 C1 1.97, 4.53 2.95, 10 0" stroke="none" stroke-width="0" fill="#fff9db"/><path d="M10 0 C30.48 0.31, 53.91 1.96, 110 0 M10 0 C44.78 -0.01, 79.18 1.28, 110 0 M110 0 C115.52 -0.41, 121.34 5.28, 120 10 M110 0 C114.92 -1.55, 120.93 3.97, 120 10 M120 10 C121.86 17.46, 121.1 23.69, 120 30 M120 10 C120.38 15.26, 120.63 19.03, 120 30 M120 30 C118.12 36.95, 118.19 41.2, 110 40 M120 30 C118.4 35.48, 116.24 39.6, 110 40 M110 40 C72.9 38.18, 34.28 39.27, 10 40 M110 40 C73.93 40.28, 38.57 40.73, 10 40 M10 40 C1.74 39.17, -1.98 36.44, 0 30 M10 40 C4.59 39.21, 2.24 37.45, 0 30 M0 30 C-0.24 26.34, -1.66 21.29, 0 10 M0 30 C-0.64 22.37, 0.78 14.26, 0 10 M0 10 C0.46 4.72, 1.65 -0.5, 10 0 M0 10 C0.32 3.42, 4.63 0.55, 10 0" stroke="#ced4da" stroke-width="1" fill="none"/></g><g stroke-linecap="round" transform="translate(1248 654) rotate(0 105 25)"><path d="M12.5 0 C59.51 4.85, 104.99 4.25, 197.5 0 C205.93 -3.55, 210.94 5.48, 210 12.5 C208.3 16.78, 212.22 22.46, 210 37.5 C212.29 44.72, 206.76 48.33, 197.5 50 C120.9 49.46, 49.22 53.45, 12.5 50 C6.17 46.82, -1.23 45.23, 0 37.5 C-0.16 32.49, 2.48 22.59, 0 12.5 C-2.03 3.12, 2.56 3.28, 12.5 0" stroke="none" stroke-width="0" fill="#fff9db"/><path d="M12.5 0 C49.7 -2.43, 88.29 -1, 197.5 0 M12.5 0 C52.27 0.34, 92.82 1.64, 197.5 0 M197.5 0 C207.76 -0.4, 208.56 4.57, 210 12.5 M197.5 0 C207.99 -1.16, 211.48 4.94, 210 12.5 M210 12.5 C210.64 18.83, 209.78 23.7, 210 37.5 M210 12.5 C210.69 21.82, 210.78 30.3, 210 37.5 M210 37.5 C210.61 46.2, 203.86 51.5, 197.5 50 M210 37.5 C209.76 45.17, 204.43 48.75, 197.5 50 M197.5 50 C124.76 49.81, 49.65 49.54, 12.5 50 M197.5 50 C150.99 51.07, 104.26 51.89, 12.5 50 M12.5 50 C2.6 49.23, -0.85 46.83, 0 37.5 M12.5 50 C6.3 51.01, -0.83 46.67, 0 37.5 M0 37.5 C-1.15 29.41, -0.28 23.83, 0 12.5 M0 37.5 C-0.76 31.99, 0.28 25.28, 0 12.5 M0 12.5 C0.23 3.56, 3.4 1.04, 12.5 0 M0 12.5 C-2.29 2.21, 5.87 -0.25, 12.5 0" stroke="#ced4da" stroke-width="1" fill="none"/></g><g stroke-linecap="round" transform="translate(729 954) rotate(0 250 37.5)"><path d="M18.75 0 C182.33 0.58, 346.28 1.73, 481.25 0 C491.33 -2.15, 500.52 3.17, 500 18.75 C502.55 28.42, 503.01 37.28, 500 56.25 C499.78 71.67, 491.88 75.69, 481.25 75 C316.54 71.7, 154.28 73.3, 18.75 75 C3.13 76.87, 0.14 69.26, 0 56.25 C3.56 50.72, -0.89 43.78, 0 18.75 C2.08 4.95, 4.03 -0.33, 18.75 0" stroke="none" stroke-width="0" fill="#fff9db"/><path d="M18.75 0 C179.53 0.25, 341.32 1.43, 481.25 0 M18.75 0 C120.67 -0.46, 221.81 -0.58, 481.25 0 M481.25 0 C493.62 1.12, 501.49 7.9, 500 18.75 M481.25 0 C492.44 -1.83, 502.12 6.68, 500 18.75 M500 18.75 C501.12 26.95, 499.45 35.74, 500 56.25 M500 18.75 C500.13 28.75, 501.02 37.8, 500 56.25 M500 56.25 C498.97 67.12, 492.07 74.62, 481.25 75 M500 56.25 C500.27 69.12, 495.23 76.93, 481.25 75 M481.25 75 C300.9 77.26, 119.21 76.05, 18.75 75 M481.25 75 C355.45 75.99, 228.5 75.56, 18.75 75 M18.75 75 C5.31 73.15, -1.96 68.92, 0 56.25 M18.75 75 C4.1 74.34, -1.16 67.57, 0 56.25 M0 56.25 C1.07 43.35, 0.16 31.02, 0 18.75 M0 56.25 C0.12 41.18, 0.81 28.6, 0 18.75 M0 18.75 C0.43 4.83, 4.92 -0.91, 18.75 0 M0 18.75 C0.49 5.18, 7.23 1.23, 18.75 0" stroke="#ced4da" stroke-width="1" fill="none"/></g><g stroke-linecap="round" transform="translate(1178 894) rotate(0 150 26)"><path d="M13 0 C113.79 5.57, 210.36 1.39, 287 0 C292.7 0.94, 297.81 1.4, 300 13 C303.22 21.7, 299.95 24.23, 300 39 C296.63 45.21, 293.82 52.99, 287 52 C200.73 48.52, 117.14 50.86, 13 52 C7.34 49.16, -1.51 46.88, 0 39 C2.92 33.29, 1.75 22.72, 0 13 C-1.31 6.57, 6.03 0.16, 13 0" stroke="none" stroke-width="0" fill="#fff9db"/><path d="M13 0 C99.19 -0.98, 183.49 0.18, 287 0 M13 0 C116.16 0.46, 219.79 1.08, 287 0 M287 0 C294.47 -1.58, 299.63 3.13, 300 13 M287 0 C297.54 -1.31, 300.02 6.61, 300 13 M300 13 C302.03 23.5, 300.39 30.52, 300 39 M300 13 C300.22 17.84, 300.59 24.16, 300 39 M300 39 C300.87 49.23, 296.05 53.67, 287 52 M300 39 C298.08 47.06, 293.55 53.24, 287 52 M287 52 C210.33 53.67, 134.22 54.99, 13 52 M287 52 C210.02 52.36, 133.4 52.11, 13 52 M13 52 C5.19 50.63, -1.57 46.44, 0 39 M13 52 C4.27 52.81, 1.65 46.37, 0 39 M0 39 C1.54 29.94, -1.59 21.88, 0 13 M0 39 C0.09 28.76, 0.29 19.97, 0 13 M0 13 C-1.14 3.5, 5.45 -0.16, 13 0 M0 13 C1.37 2.42, 4.4 -1.06, 13 0" stroke="#ced4da" stroke-width="1" fill="none"/></g><g transform="translate(10 10) rotate(0 80.0234375 18.4)"><text x="0" y="27.040625" font-family="Helvetica, Segoe UI Emoji" font-size="32px" fill="#1e1e1e" text-anchor="start" style="white-space: pre;" direction="ltr" dominant-baseline="alphabetic">Install Flow</text></g><g transform="translate(10 48) rotate(0 167.5048828125 11.5)"><text x="0" y="16.900390625" font-family="Helvetica, Segoe UI Emoji" font-size="20px" fill="#868e96" text-anchor="start" style="white-space: pre;" direction="ltr" dominant-baseline="alphabetic">Triple-redundant completion detection</text></g><g stroke-linecap="round" transform="translate(20 240) rotate(0 80 50)"><path d="M25 0 C50.13 -1.9, 78.01 0.96, 135 0 C150.35 -1.68, 160.86 6.83, 160 25 C159.18 35.25, 161.34 44.04, 160 75 C157.69 91.01, 153.29 101.38, 135 100 C90.44 98.9, 50.84 103.41, 25 100 C5.15 100.8, -1.13 91.62, 0 75 C-2.06 57.47, 0.73 45.06, 0 25 C0.81 9.33, 5.81 -2.23, 25 0" stroke="none" stroke-width="0" fill="#f8f9fa"/><path d="M25 0 C59.43 -0.17, 99.52 1.05, 135 0 M25 0 C48.85 0.12, 72.88 1.9, 135 0 M135 0 C151.27 1.3, 161.41 6.59, 160 25 M135 0 C150.96 -2.27, 161.13 10.17, 160 25 M160 25 C162.11 41.58, 160.78 58.81, 160 75 M160 25 C161.24 43.94, 160.72 64.05, 160 75 M160 75 C161.87 90.61, 152.67 100.14, 135 100 M160 75 C160.59 90.53, 152.19 102.3, 135 100 M135 100 C97.85 102.32, 58.2 99.2, 25 100 M135 100 C104.31 98.72, 74.32 98.29, 25 100 M25 100 C9.86 101.13, 1.52 91.82, 0 75 M25 100 C9.25 101.93, 1.87 89.37, 0 75 M0 75 C1.64 61.26, 0.39 49.93, 0 25 M0 75 C0.21 60.3, -0.93 46.19, 0 25 M0 25 C-1.99 8.72, 9.79 1.28, 25 0 M0 25 C-0.37 7.93, 6.93 2.28, 25 0" stroke="#343a40" stroke-width="2" fill="none"/></g><g transform="translate(45 265) rotate(0 48.3349609375 23)"><text x="0" y="16.900390625" font-family="Helvetica, Segoe UI Emoji" font-size="20px" fill="#343a40" text-anchor="start" style="white-space: pre;" direction="ltr" dominant-baseline="alphabetic">User clicks</text><text x="0" y="39.900390625" font-family="Helvetica, Segoe UI Emoji" font-size="20px" fill="#343a40" text-anchor="start" style="white-space: pre;" direction="ltr" dominant-baseline="alphabetic">Install</text></g><g stroke-linecap="round"><g transform="translate(185.5 290) rotate(0 27 0)"><path d="M0.06 1.13 C9.14 1.16, 45.91 -0.59, 54.79 -0.97 M-1.37 0.68 C7.6 0.93, 45.32 0.25, 54.26 0.06" stroke="#343a40" stroke-width="2" fill="none"/></g><g transform="translate(185.5 290) rotate(0 27 0)"><path d="M30.93 9.04 C40.48 7.44, 44.56 2.17, 54.26 0.06 M30.93 9.04 C35.33 8.27, 40.33 6.23, 54.26 0.06" stroke="#343a40" stroke-width="2" fill="none"/></g><g transform="translate(185.5 290) rotate(0 27 0)"><path d="M30.62 -8.05 C40.11 -4.11, 44.29 -3.82, 54.26 0.06 M30.62 -8.05 C35.04 -5.32, 40.09 -3.86, 54.26 0.06" stroke="#343a40" stroke-width="2" fill="none"/></g></g><mask/><g stroke-linecap="round" transform="translate(240 240) rotate(0 90 50)"><path d="M25 0 C60.52 -1.39, 91.75 0.79, 155 0 C170.17 -2.81, 179.46 5.46, 180 25 C176.65 36.74, 179.14 54.73, 180 75 C181.38 94.84, 168.29 101.99, 155 100 C125.01 97.63, 91.18 99.69, 25 100 C8.28 100.37, -3.34 92.5, 0 75 C1.6 64.84, 1.49 50.53, 0 25 C-2.23 9.69, 8 -0.8, 25 0" stroke="none" stroke-width="0" fill="#d0ebff"/><path d="M25 0 C53.08 -2.84, 77.49 -3.13, 155 0 M25 0 C61.08 0.33, 96.1 1.23, 155 0 M155 0 C169.92 -0.61, 178.03 9.32, 180 25 M155 0 C173.51 1.1, 180.97 8.28, 180 25 M180 25 C178.83 46.41, 181.46 62.86, 180 75 M180 25 C180.71 45.04, 179.38 63.71, 180 75 M180 75 C180.14 92.18, 170.68 100.45, 155 100 M180 75 C182.3 92.86, 171.17 101.48, 155 100 M155 100 C104.27 99.98, 55.63 99.03, 25 100 M155 100 C116.46 101.39, 80.38 101.39, 25 100 M25 100 C8.48 100.79, 1.68 93.3, 0 75 M25 100 C6.04 99.24, -1.66 92.71, 0 75 M0 75 C1.73 56.7, 0.82 39.26, 0 25 M0 75 C0.65 57.06, 0.17 41.84, 0 25 M0 25 C1.28 8.01, 7.98 -1.22, 25 0 M0 25 C2.28 6.96, 9.54 0.4, 25 0" stroke="#1971c2" stroke-width="2" fill="none"/></g><g transform="translate(270 265) rotate(0 59.4775390625 23)"><text x="0" y="16.900390625" font-family="Helvetica, Segoe UI Emoji" font-size="20px" fill="#1971c2" text-anchor="start" style="white-space: pre;" direction="ltr" dominant-baseline="alphabetic">Webview</text><text x="0" y="39.900390625" font-family="Helvetica, Segoe UI Emoji" font-size="20px" fill="#1971c2" text-anchor="start" style="white-space: pre;" direction="ltr" dominant-baseline="alphabetic">postMessage</text></g><g transform="translate(230 360) rotate(0 146.73828125 9.199999999999989)"><text x="0" y="13.5203125" font-family="Helvetica, Segoe UI Emoji" font-size="16px" fill="#495057" text-anchor="start" style="white-space: pre;" direction="ltr" dominant-baseline="alphabetic">VS Code sandboxes webviews in iframes</text></g><g stroke-linecap="round"><g transform="translate(425.5 290) rotate(0 27 0)"><path d="M-0.62 -1.14 C8.19 -1.16, 44.63 -1.47, 53.65 -1.11 M1.26 0.88 C9.81 1.05, 43.98 0.13, 52.52 -0.15" stroke="#1971c2" stroke-width="2" fill="none"/></g><g transform="translate(425.5 290) rotate(0 27 0)"><path d="M29.28 9.06 C35.96 5.23, 44.53 1.63, 52.52 -0.15 M29.28 9.06 C38.96 4.49, 46.91 0.82, 52.52 -0.15" stroke="#1971c2" stroke-width="2" fill="none"/></g><g transform="translate(425.5 290) rotate(0 27 0)"><path d="M28.79 -8.03 C35.52 -5.6, 44.26 -2.95, 52.52 -0.15 M28.79 -8.03 C38.63 -6.02, 46.76 -3.09, 52.52 -0.15" stroke="#1971c2" stroke-width="2" fill="none"/></g></g><mask/><g stroke-linecap="round" transform="translate(480 240) rotate(0 90 50)"><path d="M25 0 C57.73 -3.37, 92.92 -3.43, 155 0 C170.99 -0.84, 181.47 5.19, 180 25 C181.21 39.96, 176.46 50.57, 180 75 C178.15 89.47, 172.93 102.31, 155 100 C127.46 99.64, 96.68 100.1, 25 100 C5.43 97.99, -0.1 92.76, 0 75 C-2.48 60.23, -0.58 41.95, 0 25 C0.32 9.38, 7.59 1.69, 25 0" stroke="none" stroke-width="0" fill="#d0ebff"/><path d="M25 0 C52.95 -0.61, 81.26 2.94, 155 0 M25 0 C60.56 -1.22, 96.89 -0.42, 155 0 M155 0 C173.27 0.95, 180.84 8.29, 180 25 M155 0 C173.86 -0.93, 180.66 7.22, 180 25 M180 25 C182.06 43.75, 181.03 64.86, 180 75 M180 25 C179.81 44.94, 179.24 64.6, 180 75 M180 75 C182 92.71, 171.23 101.28, 155 100 M180 75 C181.81 93.52, 172.41 98.27, 155 100 M155 100 C118.64 98.07, 83.69 97.21, 25 100 M155 100 C106.15 101.38, 57.98 101.8, 25 100 M25 100 C6.34 99.34, -1.45 92.57, 0 75 M25 100 C9.81 99.55, 0.03 93.54, 0 75 M0 75 C0.6 60.34, -1.68 46.86, 0 25 M0 75 C0.55 64.81, -0.27 54.34, 0 25 M0 25 C1.98 7.14, 9.38 0.35, 25 0 M0 25 C-0.85 7.34, 8.4 0.83, 25 0" stroke="#1971c2" stroke-width="2" fill="none"/></g><g transform="translate(510 265) rotate(0 47.8076171875 23)"><text x="0" y="16.900390625" font-family="Helvetica, Segoe UI Emoji" font-size="20px" fill="#1971c2" text-anchor="start" style="white-space: pre;" direction="ltr" dominant-baseline="alphabetic">provider.ts</text><text x="0" y="39.900390625" font-family="Helvetica, Segoe UI Emoji" font-size="20px" fill="#1971c2" text-anchor="start" style="white-space: pre;" direction="ltr" dominant-baseline="alphabetic">dispatches</text></g><g stroke-linecap="round"><g transform="translate(665.5 290) rotate(0 27 0)"><path d="M-1.11 -0.49 C8.25 -0.47, 45.71 -0.46, 55.03 -0.24 M0.51 -1.79 C9.91 -1.56, 45.63 1.05, 54.62 1.18" stroke="#1971c2" stroke-width="2" fill="none"/></g><g transform="translate(665.5 290) rotate(0 27 0)"><path d="M30.75 8.62 C34.85 9.02, 40.16 7.09, 54.62 1.18 M30.75 8.62 C38.67 6.43, 49.3 3.65, 54.62 1.18" stroke="#1971c2" stroke-width="2" fill="none"/></g><g transform="translate(665.5 290) rotate(0 27 0)"><path d="M31.55 -8.46 C35.44 -4.57, 40.59 -2.99, 54.62 1.18 M31.55 -8.46 C39.03 -4.33, 49.36 -0.77, 54.62 1.18" stroke="#1971c2" stroke-width="2" fill="none"/></g></g><mask/><g stroke-linecap="round" transform="translate(720 240) rotate(0 90 50)"><path d="M25 0 C55.71 -0.33, 91.34 1.83, 155 0 C168.53 -2.31, 179.35 9.96, 180 25 C182.79 40.06, 178.59 60.08, 180 75 C182.31 88.48, 172.46 98.87, 155 100 C117.01 94.93, 75.35 97.72, 25 100 C9.43 100.81, 0.99 89.15, 0 75 C-1.14 63.42, 0.71 50.45, 0 25 C1.69 9.11, 8.17 -1.61, 25 0" stroke="none" stroke-width="0" fill="#d0ebff"/><path d="M25 0 C61.93 0.13, 96.75 1.94, 155 0 M25 0 C53.16 2.08, 80.82 1.7, 155 0 M155 0 C171.62 1.9, 179.19 8.9, 180 25 M155 0 C170.56 1.9, 181.91 6.43, 180 25 M180 25 C181.52 45.98, 178.85 64.22, 180 75 M180 25 C180.36 41.35, 180.65 55.49, 180 75 M180 75 C181.28 93.24, 173.28 100.65, 155 100 M180 75 C178.27 91.16, 170.6 98.4, 155 100 M155 100 C115.52 102.16, 80.95 102.15, 25 100 M155 100 C115.84 100.09, 74.73 100.37, 25 100 M25 100 C9.24 101.28, -0.4 91.69, 0 75 M25 100 C10.21 99.88, 0.83 92.42, 0 75 M0 75 C1.33 56.06, 0.36 42.57, 0 25 M0 75 C-0.53 57.78, -0.51 39.11, 0 25 M0 25 C0.35 7.6, 7.47 0.06, 25 0 M0 25 C0.83 7.49, 7.26 0.55, 25 0" stroke="#1971c2" stroke-width="2" fill="none"/></g><g transform="translate(765 277) rotate(0 44.462890625 11.5)"><text x="0" y="16.900390625" font-family="Helvetica, Segoe UI Emoji" font-size="20px" fill="#1971c2" text-anchor="start" style="white-space: pre;" direction="ltr" dominant-baseline="alphabetic">installer.ts</text></g><g stroke-linecap="round"><g transform="translate(905.5 290) rotate(0 27 0)"><path d="M-0.24 0.78 C8.99 0.44, 45.87 -0.72, 54.85 -1.05 M-1.82 0.15 C7.36 0.44, 45.26 0.05, 54.34 -0.06" stroke="#1971c2" stroke-width="2" fill="none"/></g><g transform="translate(905.5 290) rotate(0 27 0)"><path d="M30.94 8.73 C38.24 7.91, 41.26 3.6, 54.34 -0.06 M30.94 8.73 C36.09 7.19, 40.3 5.95, 54.34 -0.06" stroke="#1971c2" stroke-width="2" fill="none"/></g><g transform="translate(905.5 290) rotate(0 27 0)"><path d="M30.77 -8.37 C38.26 -4.76, 41.33 -4.62, 54.34 -0.06 M30.77 -8.37 C36.03 -6.46, 40.28 -4.26, 54.34 -0.06" stroke="#1971c2" stroke-width="2" fill="none"/></g></g><mask/><g stroke-linecap="round" transform="translate(960 220) rotate(0 110 70)"><path d="M32 0 C67.82 -2.49, 98.39 0, 188 0 C210.96 1.38, 223.18 7.29, 220 32 C220.56 61.33, 216.11 86.82, 220 108 C218.87 129.28, 209.71 136.66, 188 140 C137.49 139.53, 87.99 139.42, 32 140 C8.15 137.77, 1.35 129, 0 108 C-0.86 88.58, 0.65 65.62, 0 32 C-1.61 13.49, 13.2 2.53, 32 0" stroke="none" stroke-width="0" fill="#e5dbff"/><path d="M32 0 C93.54 -2.76, 151.65 -2.99, 188 0 M32 0 C86.92 -0.77, 141.94 -1.15, 188 0 M188 0 C209.9 -0.96, 221.65 12.32, 220 32 M188 0 C207.43 1.89, 219.57 11.37, 220 32 M220 32 C221.72 61.08, 221.23 88.88, 220 108 M220 32 C220.54 57.17, 221.55 81.86, 220 108 M220 108 C220.65 127.83, 208.89 139.08, 188 140 M220 108 C218.4 129.08, 208.15 141.12, 188 140 M188 140 C157.42 141.03, 124.61 142.56, 32 140 M188 140 C127.76 139.94, 69.61 139.29, 32 140 M32 140 C10.69 141.63, -0.1 130.05, 0 108 M32 140 C11.42 140.9, 0.1 127.61, 0 108 M0 108 C2.22 81.37, 0.43 51.82, 0 32 M0 108 C-0.23 90.01, -1.12 71.24, 0 32 M0 32 C0.06 11.39, 9.93 -0.93, 32 0 M0 32 C0.55 9.71, 8.87 -0.35, 32 0" stroke="#7048e8" stroke-width="2" fill="none"/></g><g transform="translate(995 252) rotate(0 64.47265625 34.5)"><text x="0" y="16.900390625" font-family="Helvetica, Segoe UI Emoji" font-size="20px" fill="#7048e8" text-anchor="start" style="white-space: pre;" direction="ltr" dominant-baseline="alphabetic">Terminal:</text><text x="0" y="39.900390625" font-family="Helvetica, Segoe UI Emoji" font-size="20px" fill="#7048e8" text-anchor="start" style="white-space: pre;" direction="ltr" dominant-baseline="alphabetic">npx skills add</text><text x="0" y="62.900390625" font-family="Helvetica, Segoe UI Emoji" font-size="20px" fill="#7048e8" text-anchor="start" style="white-space: pre;" direction="ltr" dominant-baseline="alphabetic">&lt;source&gt; -g -y</text></g><g transform="translate(930 390) rotate(0 114.7265625 13.800000000000011)"><text x="0" y="20.280468749999997" font-family="Helvetica, Segoe UI Emoji" font-size="24px" fill="#1971c2" text-anchor="start" style="white-space: pre;" direction="ltr" dominant-baseline="alphabetic">Completion Detection</text></g><g stroke-linecap="round"><g transform="translate(1009.5 360.5) rotate(0 -84.5 54.5)"><path d="M-0.37 -1.18 C-28.58 17.32, -140.4 91.51, -168.41 109.96 M1.64 0.81 C-26.75 19.08, -140.62 90.57, -169.05 108.34" stroke="#2f9e44" stroke-width="2" fill="none"/></g><g transform="translate(1009.5 360.5) rotate(0 -84.5 54.5)"><path d="M-153.68 88.62 C-161.52 96.87, -163.64 104.14, -169.05 108.34 M-153.68 88.62 C-159.35 95.8, -164.68 103.09, -169.05 108.34" stroke="#2f9e44" stroke-width="2" fill="none"/></g><g transform="translate(1009.5 360.5) rotate(0 -84.5 54.5)"><path d="M-144.6 103.11 C-155.67 105.96, -161.16 107.87, -169.05 108.34 M-144.6 103.11 C-153.37 105.41, -161.81 107.75, -169.05 108.34" stroke="#2f9e44" stroke-width="2" fill="none"/></g></g><mask/><g stroke-linecap="round"><g transform="translate(1070.5 360.5) rotate(0 14.5 54.5)"><path d="M-1.18 0.59 C3.99 18.92, 24.85 91.51, 29.96 109.57 M0.4 -0.14 C5.58 17.86, 24.75 89.35, 29.52 107.75" stroke="#e8590c" stroke-width="2" fill="none"/></g><g transform="translate(1070.5 360.5) rotate(0 14.5 54.5)"><path d="M15.24 87.23 C19.2 93.34, 22.21 96.95, 29.52 107.75 M15.24 87.23 C19.97 92.91, 24.76 100.33, 29.52 107.75" stroke="#e8590c" stroke-width="2" fill="none"/></g><g transform="translate(1070.5 360.5) rotate(0 14.5 54.5)"><path d="M31.77 82.85 C32.2 89.73, 31.69 94.27, 29.52 107.75 M31.77 82.85 C31.62 89.77, 31.49 98.5, 29.52 107.75" stroke="#e8590c" stroke-width="2" fill="none"/></g></g><mask/><g stroke-linecap="round"><g transform="translate(1130.5 360.5) rotate(0 109.5 54.5)"><path d="M0.59 0.96 C37.25 19.41, 183.18 91.31, 219.57 109.51 M-0.56 0.42 C36.02 18.61, 182.47 89.65, 218.93 107.65" stroke="#e03131" stroke-width="2" fill="none"/></g><g transform="translate(1130.5 360.5) rotate(0 109.5 54.5)"><path d="M194.07 105.01 C202.33 106.55, 208.27 106.26, 218.93 107.65 M194.07 105.01 C203.4 106.81, 214.53 106.2, 218.93 107.65" stroke="#e03131" stroke-width="2" fill="none"/></g><g transform="translate(1130.5 360.5) rotate(0 109.5 54.5)"><path d="M201.58 89.65 C207.67 95.37, 211.59 99.21, 218.93 107.65 M201.58 89.65 C207.88 97.54, 216.04 103, 218.93 107.65" stroke="#e03131" stroke-width="2" fill="none"/></g></g><mask/><g stroke-linecap="round" transform="translate(740 470) rotate(0 100 40)"><path d="M20 0 C68.27 -4.48, 112.17 -2.95, 180 0 C191.13 1.26, 202.31 3.48, 200 20 C200.15 29.54, 200.61 42.87, 200 60 C197.99 73.23, 194.43 80.81, 180 80 C128.95 77.88, 74.38 78.53, 20 80 C7.71 79.26, 1.69 74.11, 0 60 C2.86 50.7, 3.75 38.06, 0 20 C-1.25 3.8, 6.39 -1.31, 20 0" stroke="none" stroke-width="0" fill="#d3f9d8"/><path d="M20 0 C53.19 -0.44, 84.42 0.62, 180 0 M20 0 C62.34 1.6, 102.2 1.59, 180 0 M180 0 C192.96 0.62, 201.61 8.54, 200 20 M180 0 C192.12 1.16, 200.16 7.26, 200 20 M200 20 C201.13 29.59, 201.37 41.62, 200 60 M200 20 C199.91 34.76, 199.43 50.34, 200 60 M200 60 C198.97 74.3, 191.45 81.53, 180 80 M200 60 C201.3 75.08, 193.5 80.91, 180 80 M180 80 C117.92 76.96, 58.06 79.68, 20 80 M180 80 C135.11 81.66, 90.66 81.69, 20 80 M20 80 C6.75 78.5, 1.35 71.34, 0 60 M20 80 C7.11 81.68, 1.48 72.96, 0 60 M0 60 C-0.95 49.75, 0.59 36.66, 0 20 M0 60 C-0.38 49.26, 0.23 39.04, 0 20 M0 20 C-1.56 6.36, 5.07 -0.38, 20 0 M0 20 C-0.53 7.61, 4.66 -1.48, 20 0" stroke="#2f9e44" stroke-width="2" fill="none"/></g><g transform="translate(775 497) rotate(0 72.2705078125 11.5)"><text x="0" y="16.900390625" font-family="Helvetica, Segoe UI Emoji" font-size="20px" fill="#2f9e44" text-anchor="start" style="white-space: pre;" direction="ltr" dominant-baseline="alphabetic">Shell Integration</text></g><g transform="translate(750 560) rotate(0 73.5380859375 20.69999999999999)"><text x="0" y="15.2103515625" font-family="Helvetica, Segoe UI Emoji" font-size="18px" fill="#2f9e44" text-anchor="start" style="white-space: pre;" direction="ltr" dominant-baseline="alphabetic">onDidEndTerminal</text><text x="0" y="35.9103515625" font-family="Helvetica, Segoe UI Emoji" font-size="18px" fill="#2f9e44" text-anchor="start" style="white-space: pre;" direction="ltr" dominant-baseline="alphabetic">ShellExecution</text></g><g transform="translate(750 662) rotate(0 56.47265625 18.399999999999977)"><text x="0" y="13.5203125" font-family="Helvetica, Segoe UI Emoji" font-size="16px" fill="#495057" text-anchor="start" style="white-space: pre;" direction="ltr" dominant-baseline="alphabetic">Most reliable on</text><text x="0" y="31.920312499999998" font-family="Helvetica, Segoe UI Emoji" font-size="16px" fill="#495057" text-anchor="start" style="white-space: pre;" direction="ltr" dominant-baseline="alphabetic">macOS/Linux</text></g><g stroke-linecap="round" transform="translate(990 470) rotate(0 110 40)"><path d="M20 0 C54.92 2.93, 96.56 -1.52, 200 0 C214.13 -1.13, 219.95 7.04, 220 20 C218.16 28.18, 221.26 37.38, 220 60 C220.99 70.81, 211.1 81.35, 200 80 C148.72 79.55, 97.05 81.06, 20 80 C6.51 78.39, 2.82 75.87, 0 60 C-1.93 42.33, -0.97 29.08, 0 20 C1.15 4.79, 8.63 2.55, 20 0" stroke="none" stroke-width="0" fill="#ffe8cc"/><path d="M20 0 C80.78 -1.14, 142.21 -0.06, 200 0 M20 0 C88.74 -1.17, 158.65 -0.54, 200 0 M200 0 C212.28 1, 220.14 7.18, 220 20 M200 0 C212.2 0.52, 222.3 7.86, 220 20 M220 20 C221.87 31.78, 218.75 41.83, 220 60 M220 20 C219.21 30.64, 218.78 41.07, 220 60 M220 60 C221.13 74.85, 213.48 80.79, 200 80 M220 60 C221.93 75.21, 211.04 79.24, 200 80 M200 80 C158.62 81.18, 119.66 81.05, 20 80 M200 80 C139.56 79.95, 79.71 79.71, 20 80 M20 80 C7.05 81.46, 1.28 73.01, 0 60 M20 80 C6.26 78.6, 2.28 71.96, 0 60 M0 60 C-0.93 45.96, 0.65 31.07, 0 20 M0 60 C-0.88 49.72, -0.89 39.55, 0 20 M0 20 C-0.46 7.49, 4.92 -1.29, 20 0 M0 20 C-0.42 7.7, 7.55 2.03, 20 0" stroke="#e8590c" stroke-width="2" fill="none"/></g><g transform="translate(1020 497) rotate(0 86.3134765625 11.5)"><text x="0" y="16.900390625" font-family="Helvetica, Segoe UI Emoji" font-size="20px" fill="#e8590c" text-anchor="start" style="white-space: pre;" direction="ltr" dominant-baseline="alphabetic">FileSystemWatcher</text></g><g transform="translate(1000 560) rotate(0 74.9443359375 20.69999999999999)"><text x="0" y="15.2103515625" font-family="Helvetica, Segoe UI Emoji" font-size="18px" fill="#e8590c" text-anchor="start" style="white-space: pre;" direction="ltr" dominant-baseline="alphabetic">Watches lock file +</text><text x="0" y="35.9103515625" font-family="Helvetica, Segoe UI Emoji" font-size="18px" fill="#e8590c" text-anchor="start" style="white-space: pre;" direction="ltr" dominant-baseline="alphabetic">skill directories</text></g><g transform="translate(1000 662) rotate(0 93.81640625 18.399999999999977)"><text x="0" y="13.5203125" font-family="Helvetica, Segoe UI Emoji" font-size="16px" fill="#495057" text-anchor="start" style="white-space: pre;" direction="ltr" dominant-baseline="alphabetic">Lock file is a regular file —</text><text x="0" y="31.920312499999998" font-family="Helvetica, Segoe UI Emoji" font-size="16px" fill="#495057" text-anchor="start" style="white-space: pre;" direction="ltr" dominant-baseline="alphabetic">works through symlinks</text></g><g stroke-linecap="round" transform="translate(1260 470) rotate(0 90 40)"><path d="M20 0 C67.69 1.1, 113.74 2.6, 160 0 C169.99 0.83, 177.1 4.66, 180 20 C181.21 29.37, 177.99 45.13, 180 60 C179.66 72.53, 173.65 81.05, 160 80 C120.72 78.93, 84.58 83.08, 20 80 C9.19 83.43, 1.71 72.09, 0 60 C1.21 49.31, 2.02 44.92, 0 20 C-3.19 9.87, 3.28 1.72, 20 0" stroke="none" stroke-width="0" fill="#ffe3e3"/><path d="M20 0 C67.65 -2.81, 113.62 -1.53, 160 0 M20 0 C65.78 -0.81, 112.69 -1.05, 160 0 M160 0 C172.35 0.45, 182 7.71, 180 20 M160 0 C172.83 1.48, 181.81 8.52, 180 20 M180 20 C178.77 31.9, 179.48 45.56, 180 60 M180 20 C180.19 34.7, 179.7 48.28, 180 60 M180 60 C181.68 74.96, 171.34 79.34, 160 80 M180 60 C178.34 74.37, 174.81 79.55, 160 80 M160 80 C118.56 80.59, 76.45 80.01, 20 80 M160 80 C128.67 79.34, 97.6 78.45, 20 80 M20 80 C6.32 78.78, 1.98 72.14, 0 60 M20 80 C7.87 80.4, -0.85 72.34, 0 60 M0 60 C-1.08 48.36, -0.98 34.19, 0 20 M0 60 C0.09 49.01, -0.55 36.56, 0 20 M0 20 C-0.36 7.57, 7.43 1.77, 20 0 M0 20 C-2.16 7.94, 5.48 -1.41, 20 0" stroke="#e03131" stroke-width="2" fill="none"/></g><g transform="translate(1300 497) rotate(0 54.6533203125 11.5)"><text x="0" y="16.900390625" font-family="Helvetica, Segoe UI Emoji" font-size="20px" fill="#e03131" text-anchor="start" style="white-space: pre;" direction="ltr" dominant-baseline="alphabetic">30s Timeout</text></g><g transform="translate(1310 560) rotate(0 40.5263671875 10.350000000000023)"><text x="0" y="15.2103515625" font-family="Helvetica, Segoe UI Emoji" font-size="18px" fill="#e03131" text-anchor="start" style="white-space: pre;" direction="ltr" dominant-baseline="alphabetic">Safety net</text></g><g transform="translate(1260 662) rotate(0 86.25 18.399999999999977)"><text x="0" y="13.5203125" font-family="Helvetica, Segoe UI Emoji" font-size="16px" fill="#495057" text-anchor="start" style="white-space: pre;" direction="ltr" dominant-baseline="alphabetic">Windows watcher</text><text x="0" y="31.920312499999998" font-family="Helvetica, Segoe UI Emoji" font-size="16px" fill="#495057" text-anchor="start" style="white-space: pre;" direction="ltr" dominant-baseline="alphabetic">misses symlink changes</text></g><g stroke-linecap="round"><g transform="translate(840.5 555.5) rotate(0 84.5 77)"><path d="M-0.22 0.37 C28.27 26.06, 141.87 129.42, 169.97 155.12" stroke="#2f9e44" stroke-width="2.5" fill="none" stroke-dasharray="8 10"/></g><g transform="translate(840.5 555.5) rotate(0 84.5 77)"><path d="M146.85 145.61 C152.56 149.34, 158.84 148.73, 169.97 155.12" stroke="#2f9e44" stroke-width="2.5" fill="none"/></g><g transform="translate(840.5 555.5) rotate(0 84.5 77)"><path d="M158.37 132.98 C161.69 139.42, 165.46 141.56, 169.97 155.12" stroke="#2f9e44" stroke-width="2.5" fill="none"/></g></g><mask/><g stroke-linecap="round"><g transform="translate(1099.5 555.5) rotate(0 -44.5 77)"><path d="M0.37 0.97 C-14.44 26.57, -73.08 127.85, -87.88 153.37" stroke="#e8590c" stroke-width="2.5" fill="none" stroke-dasharray="8 10"/></g><g transform="translate(1099.5 555.5) rotate(0 -44.5 77)"><path d="M-83.5 128.75 C-83.6 140.04, -87.95 148.58, -87.88 153.37" stroke="#e8590c" stroke-width="2.5" fill="none"/></g><g transform="translate(1099.5 555.5) rotate(0 -44.5 77)"><path d="M-68.7 137.32 C-74.44 145.39, -84.44 150.65, -87.88 153.37" stroke="#e8590c" stroke-width="2.5" fill="none"/></g></g><mask/><g stroke-linecap="round"><g transform="translate(1349.5 555.5) rotate(0 -169.5 77)"><path d="M0.97 1.12 C-55.6 26.83, -282.99 129.07, -339.63 154.6" stroke="#e03131" stroke-width="2.5" fill="none" stroke-dasharray="8 10"/></g><g transform="translate(1349.5 555.5) rotate(0 -169.5 77)"><path d="M-321.72 137.16 C-324.83 141.16, -330.74 147.26, -339.63 154.6" stroke="#e03131" stroke-width="2.5" fill="none"/></g><g transform="translate(1349.5 555.5) rotate(0 -169.5 77)"><path d="M-314.7 152.76 C-319.84 152.42, -327.72 154.14, -339.63 154.6" stroke="#e03131" stroke-width="2.5" fill="none"/></g></g><mask/><g stroke-linecap="round" transform="translate(910 780) rotate(0 100 50)"><path d="M126.25 12.75 C134.39 18.63, 147.54 24.83, 174.75 38.25 C200.99 48.48, 197.77 52.35, 174.75 63.75 C161.6 69.92, 148.15 78.26, 126.25 87.25 C100.84 98.39, 103.82 102.54, 75.75 87.25 C55.41 76.12, 37.68 68.97, 25.25 63.75 C1.15 49.12, 1.96 53.55, 25.25 38.25 C37.24 32.29, 46.7 27.82, 75.75 12.75 C101.25 1.85, 98.42 -1.78, 126.25 12.75" stroke="none" stroke-width="0" fill="#d0ebff"/><path d="M126.25 12.75 C141.44 21.74, 158.68 29.68, 174.75 38.25 M126.25 12.75 C138.98 18.44, 151.26 25.83, 174.75 38.25 M174.75 38.25 C201.61 51.65, 198.5 50.56, 174.75 63.75 M174.75 38.25 C198.94 49.4, 199.75 49.82, 174.75 63.75 M174.75 63.75 C158.76 73.83, 140.87 81.29, 126.25 87.25 M174.75 63.75 C155.99 71.56, 138.16 81.95, 126.25 87.25 M126.25 87.25 C100.6 100.02, 102.63 99.9, 75.75 87.25 M126.25 87.25 C101.83 100.76, 101.9 100.1, 75.75 87.25 M75.75 87.25 C64.61 82.92, 54.13 75.84, 25.25 63.75 M75.75 87.25 C61.03 81.64, 47.53 74.11, 25.25 63.75 M25.25 63.75 C-0.86 51.06, 0.72 50.27, 25.25 38.25 M25.25 63.75 C-1.07 51.55, -0.96 49.2, 25.25 38.25 M25.25 38.25 C39.38 31.9, 52.49 22.53, 75.75 12.75 M25.25 38.25 C40.25 29.93, 54.15 23.17, 75.75 12.75 M75.75 12.75 C99.78 0.7, 102.29 -1.77, 126.25 12.75 M75.75 12.75 C101.51 -0.72, 100.97 0.24, 126.25 12.75" stroke="#1971c2" stroke-width="2" fill="none"/></g><g transform="translate(945 805) rotate(0 56.69921875 23)"><text x="0" y="16.900390625" font-family="Helvetica, Segoe UI Emoji" font-size="20px" fill="#1971c2" text-anchor="start" style="white-space: pre;" direction="ltr" dominant-baseline="alphabetic">First fires →</text><text x="0" y="39.900390625" font-family="Helvetica, Segoe UI Emoji" font-size="20px" fill="#1971c2" text-anchor="start" style="white-space: pre;" direction="ltr" dominant-baseline="alphabetic">resolved flag</text></g><g stroke-linecap="round"><g transform="translate(1115.5 830) rotate(0 37 0)"><path d="M0.6 0.09 C12.8 0.09, 62.03 -0.78, 74.31 -0.59 M-0.54 -0.92 C11.43 -0.7, 61.16 0.57, 73.52 0.63" stroke="#1971c2" stroke-width="2" fill="none"/></g><g transform="translate(1115.5 830) rotate(0 37 0)"><path d="M49.89 8.79 C59.38 5.97, 67.55 2.7, 73.52 0.63 M49.89 8.79 C59.94 6.36, 69.56 2.64, 73.52 0.63" stroke="#1971c2" stroke-width="2" fill="none"/></g><g transform="translate(1115.5 830) rotate(0 37 0)"><path d="M50.18 -8.31 C59.46 -4.39, 67.52 -0.93, 73.52 0.63 M50.18 -8.31 C60.2 -3.9, 69.7 -0.78, 73.52 0.63" stroke="#1971c2" stroke-width="2" fill="none"/></g></g><mask/><g stroke-linecap="round" transform="translate(1190 790) rotate(0 90 40)"><path d="M20 0 C54.99 0.22, 85.85 -3, 160 0 C174.69 -0.34, 179.2 6.99, 180 20 C180.63 33, 178.24 49.15, 180 60 C182.54 75.86, 176.76 81.71, 160 80 C121.54 80.96, 83.81 81.76, 20 80 C9.22 76.81, 3.2 69.94, 0 60 C-0.21 46.34, 2.14 29.6, 0 20 C-1.78 10.1, 5.67 -1.05, 20 0" stroke="none" stroke-width="0" fill="#d0ebff"/><path d="M20 0 C55.11 -1.09, 89.65 1.9, 160 0 M20 0 C70.07 -0.09, 118.89 -1.65, 160 0 M160 0 C172.89 -0.92, 178.61 6.45, 180 20 M160 0 C172.15 1.12, 177.83 8.42, 180 20 M180 20 C181.1 35.94, 181.93 46.54, 180 60 M180 20 C180.35 30.48, 179.72 42.17, 180 60 M180 60 C179.9 74.05, 173.99 80.78, 160 80 M180 60 C180.1 71.61, 174.88 77.71, 160 80 M160 80 C114.99 80.55, 69.4 82.88, 20 80 M160 80 C125.97 79.81, 92.7 80.6, 20 80 M20 80 C5.93 79.07, 0.48 72.5, 0 60 M20 80 C4.87 79.65, -1.84 72.9, 0 60 M0 60 C-1.45 48.57, 0.74 38.62, 0 20 M0 60 C-0.14 43.86, 0.72 29.58, 0 20 M0 20 C-1.77 7.11, 6.04 -0.03, 20 0 M0 20 C0.24 4.53, 7.2 -1.85, 20 0" stroke="#1971c2" stroke-width="2" fill="none"/></g><g transform="translate(1220 817) rotate(0 90.3271484375 11.5)"><text x="0" y="16.900390625" font-family="Helvetica, Segoe UI Emoji" font-size="20px" fill="#1971c2" text-anchor="start" style="white-space: pre;" direction="ltr" dominant-baseline="alphabetic">Rescan + UI Update</text></g><g transform="translate(740 962) rotate(0 210.265625 27.600000000000023)"><text x="0" y="13.5203125" font-family="Helvetica, Segoe UI Emoji" font-size="16px" fill="#495057" text-anchor="start" style="white-space: pre;" direction="ltr" dominant-baseline="alphabetic">Why three? Windows FileSystemWatcher doesn't reliably</text><text x="0" y="31.920312499999998" font-family="Helvetica, Segoe UI Emoji" font-size="16px" fill="#495057" text-anchor="start" style="white-space: pre;" direction="ltr" dominant-baseline="alphabetic">detect changes through symlinks. Shell integration requires</text><text x="0" y="50.3203125" font-family="Helvetica, Segoe UI Emoji" font-size="16px" fill="#495057" text-anchor="start" style="white-space: pre;" direction="ltr" dominant-baseline="alphabetic">VS Code 1.93+. Timeout catches all remaining edge cases.</text></g><g transform="translate(1190 902) rotate(0 119.00390625 18.399999999999977)"><text x="0" y="13.5203125" font-family="Helvetica, Segoe UI Emoji" font-size="16px" fill="#495057" text-anchor="start" style="white-space: pre;" direction="ltr" dominant-baseline="alphabetic">Promise.all([minDelay, detection])</text><text x="0" y="31.920312499999998" font-family="Helvetica, Segoe UI Emoji" font-size="16px" fill="#495057" text-anchor="start" style="white-space: pre;" direction="ltr" dominant-baseline="alphabetic">ensures notification shows ≥2s</text></g></svg>