<svg version="1.1" xmlns="http://www.w3.org/2000/svg" viewBox="0 0 1571.25 903.125" width="3142.5" height="1806.25"><!-- svg-source:excalidraw --><metadata/><defs><style class="style-fonts">
      </style></defs><rect x="0" y="0" width="1571.25" height="903.125" fill="#ffffff"/><g stroke-linecap="round" transform="translate(336.70000000000005 635.625) rotate(0 86.80000000000001 62)"><path d="M31 0 C66.07 -3.98, 101.28 1.25, 142.6 0 C160.61 -2.79, 173.18 8.16, 173.6 31 C177.12 51.84, 177.25 78.54, 173.6 93 C171.65 115.83, 161.77 121.74, 142.6 124 C108.53 128.31, 78.71 125.64, 31 124 C8.71 122.16, -1.81 115.26, 0 93 C0.46 67.39, -1.11 47.67, 0 31 C-1.01 11.06, 12.55 -2.27, 31 0" stroke="none" stroke-width="0" fill="#fff9db"/><path d="M31 0 C73.46 1.46, 117.57 2.38, 142.6 0 M31 0 C62.57 1.35, 95.06 0.63, 142.6 0 M142.6 0 C162.68 -1.62, 173.96 11.63, 173.6 31 M142.6 0 C161 -1.92, 173.31 12.18, 173.6 31 M173.6 31 C174.96 52.19, 173.09 69.43, 173.6 93 M173.6 31 C173.37 52.27, 174.36 71.15, 173.6 93 M173.6 93 C173.17 115.27, 165.15 123.41, 142.6 124 M173.6 93 C175 113.58, 163.12 123.15, 142.6 124 M142.6 124 C106.3 121.93, 69.59 121.93, 31 124 M142.6 124 C118.91 125, 94.22 125.73, 31 124 M31 124 C10.27 125.93, -0.34 113.78, 0 93 M31 124 C9.4 125.65, 0.21 113.21, 0 93 M0 93 C-0.07 69.7, -0.33 43.91, 0 31 M0 93 C0.43 71.64, 0.74 50.71, 0 31 M0 31 C-0.18 8.62, 11.34 1.79, 31 0 M0 31 C-0.67 8.67, 10.79 1.75, 31 0" stroke="#ced4da" stroke-width="1" fill="none"/></g><g stroke-linecap="round" transform="translate(333 635.625) rotate(0 122.00000000000001 32)"><path d="M16 0 C73.1 1.01, 137.64 -3.33, 228 0 C235.88 -0.42, 241.83 8.12, 244 16 C241.5 31.1, 244.8 38.92, 244 48 C246.17 57.17, 236.41 63.24, 228 64 C170.5 59.83, 107.52 59.83, 16 64 C3.49 62.19, 1.6 61.25, 0 48 C-3.06 35.42, 0.27 22.04, 0 16 C0.73 7.55, 3.06 0.43, 16 0" stroke="none" stroke-width="0" fill="#fff9db"/><path d="M16 0 C66.86 0.45, 117.79 0.9, 228 0 M16 0 C74.85 0.86, 132.32 0.66, 228 0 M228 0 C237.05 0.36, 245.3 3.36, 244 16 M228 0 C236.74 -0.29, 245.84 5.63, 244 16 M244 16 C245.96 25.97, 243.8 38, 244 48 M244 16 C244.5 27.18, 242.83 37.03, 244 48 M244 48 C245.61 60.55, 238.08 65.22, 228 64 M244 48 C243.91 58.52, 237.82 64.77, 228 64 M228 64 C165.3 66.11, 103.61 63.42, 16 64 M228 64 C153.89 65.52, 80.32 65.21, 16 64 M16 64 C7.26 63.66, 0.11 57.86, 0 48 M16 64 C6.99 64.21, -0.45 60.88, 0 48 M0 48 C1.15 38.72, -0.07 31.28, 0 16 M0 48 C-0.02 38.27, 0.33 26.56, 0 16 M0 16 C-1.72 6.34, 7.12 -0.59, 16 0 M0 16 C-1.66 5.79, 7.08 0.11, 16 0" stroke="#ced4da" stroke-width="1" fill="none"/></g><g stroke-linecap="round" transform="translate(36.70000000000002 653.125) rotate(0 86.80000000000001 42)"><path d="M21 0 C67.82 4.14, 107.43 -0.68, 152.6 0 C166.18 -2.17, 176.39 10.19, 173.6 21 C176.79 34.81, 172.18 49.33, 173.6 63 C172.1 74.74, 165.84 83.49, 152.6 84 C106.48 87.21, 62 84.5, 21 84 C5.19 85.6, 2.59 80.24, 0 63 C-0.42 47.49, -1.32 31.14, 0 21 C2.21 4.73, 7.43 2.66, 21 0" stroke="none" stroke-width="0" fill="#fff9db"/><path d="M21 0 C52.42 1.2, 85.11 -1.07, 152.6 0 M21 0 C54.41 -0.99, 87.67 -1.91, 152.6 0 M152.6 0 C166.96 1.3, 171.63 5.33, 173.6 21 M152.6 0 C166.31 1.84, 173.9 7.78, 173.6 21 M173.6 21 C173.12 35.45, 174.47 51.27, 173.6 63 M173.6 21 C173.98 29.86, 173.21 41.43, 173.6 63 M173.6 63 C175.49 76.41, 167.82 83.92, 152.6 84 M173.6 63 C173.45 76.15, 167.37 83.79, 152.6 84 M152.6 84 C125.49 82.11, 93.9 84.25, 21 84 M152.6 84 C103.18 85.03, 53.09 85.13, 21 84 M21 84 C6.66 84.11, -0.81 78.44, 0 63 M21 84 C7.21 83.55, 2.21 76.42, 0 63 M0 63 C-0.43 48.94, 0.91 35.45, 0 21 M0 63 C0.68 51.5, -0.36 38.61, 0 21 M0 21 C1.01 8.79, 6.41 -1.44, 21 0 M0 21 C0.46 8.75, 7.11 -0.4, 21 0" stroke="#ced4da" stroke-width="1" fill="none"/></g><g stroke-linecap="round" transform="translate(1039.8182539682539 465.9662698412698) rotate(0 210 24)"><path d="M12 0 C143.63 -4.1, 271.34 -2.82, 408 0 C413.83 2.79, 423.19 4.41, 420 12 C420.43 18.94, 421.86 28.28, 420 36 C417.74 43.24, 415.49 49.37, 408 48 C322.01 45.22, 233.97 45.11, 12 48 C5.6 50.59, 3.24 47.17, 0 36 C1.09 26.81, 1.03 21.86, 0 12 C-2.27 4.43, 6.66 -0.36, 12 0" stroke="none" stroke-width="0" fill="#fff9db"/><path d="M12 0 C108.01 0.72, 201.71 0.35, 408 0 M12 0 C111.25 0, 209.9 0.27, 408 0 M408 0 C417.3 -1.97, 418.33 3.75, 420 12 M408 0 C417.84 0.3, 420.78 5.21, 420 12 M420 12 C419.85 21.21, 420.85 27.83, 420 36 M420 12 C419.21 17.96, 420.97 25.29, 420 36 M420 36 C419.41 45.22, 415.92 47.87, 408 48 M420 36 C419.15 44.77, 415.79 46.09, 408 48 M408 48 C270.3 48.68, 134.49 50.51, 12 48 M408 48 C263.43 48.72, 118.43 48.64, 12 48 M12 48 C4.11 47.19, 1.44 44.19, 0 36 M12 48 C3.55 50.21, -0.58 44.83, 0 36 M0 36 C-0.1 29.94, 0.52 21.75, 0 12 M0 36 C0.29 27.18, -0.84 19.04, 0 12 M0 12 C1.79 3.41, 2.56 0.4, 12 0 M0 12 C1.75 4.11, 3.6 0.88, 12 0" stroke="#ced4da" stroke-width="1" fill="none"/></g><g stroke-linecap="round" transform="translate(700.818253968254 255.96626984126982) rotate(0 115 24)"><path d="M12 0 C53.08 -4.34, 98.51 -3.79, 218 0 C228.79 3.19, 230.41 6.53, 230 12 C228.37 19.66, 228.82 20.72, 230 36 C229.24 43.49, 227.37 45.06, 218 48 C134.45 47.17, 52.17 50.22, 12 48 C6.59 51.24, 3.17 45.47, 0 36 C-0.99 31.23, 2.23 22.74, 0 12 C0.43 6.66, 3.64 -1.65, 12 0" stroke="none" stroke-width="0" fill="#fff9db"/><path d="M12 0 C82.25 -2.07, 152.13 -2.49, 218 0 M12 0 C90.84 -0.93, 170.37 0.36, 218 0 M218 0 C224.03 -1.67, 229.75 5.6, 230 12 M218 0 C226.3 0.78, 231.21 5.32, 230 12 M230 12 C230.54 21.99, 228.59 29.84, 230 36 M230 12 C229.92 21.72, 231.08 29.53, 230 36 M230 36 C231.22 43.92, 225.87 47.26, 218 48 M230 36 C230.77 43.79, 224.09 49.06, 218 48 M218 48 C166.53 47.85, 119.36 48.14, 12 48 M218 48 C153.58 50.44, 89.07 49.63, 12 48 M12 48 C3.19 49.44, 0.19 43.61, 0 36 M12 48 C6.21 47.42, 0.83 43.74, 0 36 M0 36 C0.92 27.95, -0.34 19.83, 0 12 M0 36 C-0.32 28.15, 0.28 22.92, 0 12 M0 12 C-0.59 2.56, 4.4 1.52, 12 0 M0 12 C0.11 3.6, 4.88 0.68, 12 0" stroke="#ced4da" stroke-width="1" fill="none"/></g><g stroke-linecap="round" transform="translate(1039.8182539682539 440.9662698412698) rotate(0 235 15)"><path d="M7.5 0 C171.4 2.67, 336.93 4.2, 462.5 0 C470.69 0.41, 472.53 -0.06, 470 7.5 C471.68 11.99, 468.36 18.15, 470 22.5 C469.49 28.87, 464.56 33.55, 462.5 30 C345.72 27.38, 231.44 29.47, 7.5 30 C5.74 33.17, 1.47 24.94, 0 22.5 C0.49 19.7, -1.76 13.91, 0 7.5 C2.66 2.14, 0.85 -1.79, 7.5 0" stroke="none" stroke-width="0" fill="#fff9db"/><path d="M7.5 0 C126.34 -0.16, 245.2 1.07, 462.5 0 M7.5 0 C140.2 0.72, 273.98 0.17, 462.5 0 M462.5 0 C465.83 -0.25, 471.6 2.76, 470 7.5 M462.5 0 C468.28 1.21, 471.32 4.56, 470 7.5 M470 7.5 C470.45 10.47, 469.33 16.49, 470 22.5 M470 7.5 C470.46 13.55, 469.63 18.64, 470 22.5 M470 22.5 C469.92 27.37, 466.76 30.67, 462.5 30 M470 22.5 C469.79 25.59, 468.56 28.68, 462.5 30 M462.5 30 C294.03 28.97, 125.24 28.35, 7.5 30 M462.5 30 C311.66 29.85, 159.94 29.74, 7.5 30 M7.5 30 C3.94 30.19, -0.39 29.43, 0 22.5 M7.5 30 C1.92 30.83, -0.26 28.96, 0 22.5 M0 22.5 C0.5 18.06, 0.95 14.09, 0 7.5 M0 22.5 C-0.68 16.96, 0.63 10.44, 0 7.5 M0 7.5 C-1.44 2.9, 4.02 0.09, 7.5 0 M0 7.5 C-0.4 3.38, 3.18 -2.05, 7.5 0" stroke="#ced4da" stroke-width="1" fill="none"/></g><g stroke-linecap="round" transform="translate(739.818253968254 710.9662698412699) rotate(0 140 24)"><path d="M12 0 C102.87 1.13, 196.68 5.45, 268 0 C276.41 2.53, 277.44 6.66, 280 12 C278.27 17.43, 279.01 26.87, 280 36 C281.37 41.06, 279.55 46.37, 268 48 C183.5 47.39, 104.02 48.71, 12 48 C7.17 49.47, -2.56 43.89, 0 36 C2.33 26.01, 0.55 23.22, 0 12 C-0.36 2.35, 2.21 1.9, 12 0" stroke="none" stroke-width="0" fill="#fff9db"/><path d="M12 0 C110.55 -0.26, 211.92 0.41, 268 0 M12 0 C91.94 2.19, 170.79 1, 268 0 M268 0 C275.75 1.6, 280.26 4.68, 280 12 M268 0 C277.21 1.32, 282.06 3.17, 280 12 M280 12 C278.75 17.9, 281.5 26.64, 280 36 M280 12 C280.89 16.6, 280.56 21.75, 280 36 M280 36 C279.87 43.26, 276.67 47.82, 268 48 M280 36 C278.09 45.06, 274.68 49.64, 268 48 M268 48 C207.05 50.1, 143.78 49.56, 12 48 M268 48 C168.99 50.04, 69.93 50.57, 12 48 M12 48 C4.19 47.61, 1.93 43.5, 0 36 M12 48 C4.83 47.74, 1.46 43.45, 0 36 M0 36 C-0.5 30.02, -0.28 23.38, 0 12 M0 36 C0.52 29.05, -0.27 19.6, 0 12 M0 12 C0.4 5.52, 4.09 -0.35, 12 0 M0 12 C0.88 4.68, 1.95 1.45, 12 0" stroke="#ced4da" stroke-width="1" fill="none"/></g><g stroke-linecap="round" transform="translate(600.818253968254 790.9662698412699) rotate(0 190 24)"><path d="M12 0 C91.13 2.27, 175.09 0.74, 368 0 C378.53 -2.56, 382.66 4.73, 380 12 C378 17.14, 379.76 25.17, 380 36 C377.06 47.55, 374.37 48.88, 368 48 C278.28 47.59, 188.59 47.96, 12 48 C5.47 45.44, -0.11 44.78, 0 36 C-2.36 29.9, 2.57 22.58, 0 12 C-1.65 2.21, 5.9 0.18, 12 0" stroke="none" stroke-width="0" fill="#fff9db"/><path d="M12 0 C113.67 2.11, 216.51 1.19, 368 0 M12 0 C108.7 -1.04, 204.04 -0.49, 368 0 M368 0 C377.6 0.26, 380.68 5.05, 380 12 M368 0 C377.32 2.06, 379.17 3.57, 380 12 M380 12 C379.22 21.39, 381.2 25.99, 380 36 M380 12 C379.9 19.3, 380.15 25.31, 380 36 M380 36 C379.26 44.67, 375.82 46.34, 368 48 M380 36 C381.06 42.68, 377.64 46.69, 368 48 M368 48 C291.16 49.94, 213.04 50.88, 12 48 M368 48 C262.42 47.35, 157.23 47.67, 12 48 M12 48 C3.61 49.93, -0.5 44.72, 0 36 M12 48 C3.74 49.46, -0.55 44.05, 0 36 M0 36 C1.2 27.59, 1.81 20.06, 0 12 M0 36 C1.1 28.72, -0.52 22.23, 0 12 M0 12 C1.52 4.09, 3.65 0.77, 12 0 M0 12 C0.68 1.95, 5.45 1.3, 12 0" stroke="#ced4da" stroke-width="1" fill="none"/></g><g stroke-linecap="round" transform="translate(1008.818253968254 590.9662698412699) rotate(0 125 25)"><path d="M12.5 0 C64.97 4.84, 113 4.27, 237.5 0 C243.27 2.66, 250.73 2.21, 250 12.5 C249.06 21, 251.18 27.57, 250 37.5 C253.55 44.2, 246.71 48.38, 237.5 50 C183.71 54.32, 128.21 52.8, 12.5 50 C1.61 49.89, 0.78 44.83, 0 37.5 C0.16 32.15, -0.64 19.84, 0 12.5 C-1.79 6.07, 4.35 -2.58, 12.5 0" stroke="none" stroke-width="0" fill="#fff9db"/><path d="M12.5 0 C75.61 0.83, 136.04 0.45, 237.5 0 M12.5 0 C60.96 -1.97, 110.99 -0.57, 237.5 0 M237.5 0 C246.09 0.68, 251.05 5.32, 250 12.5 M237.5 0 C247.89 -0.83, 249.57 4.89, 250 12.5 M250 12.5 C251.26 21.92, 247.91 28.67, 250 37.5 M250 12.5 C250.84 21.97, 250.17 31.15, 250 37.5 M250 37.5 C250.67 45.65, 244.17 50.92, 237.5 50 M250 37.5 C248.68 47.47, 244.52 48.12, 237.5 50 M237.5 50 C158.95 51.84, 81.44 51.22, 12.5 50 M237.5 50 C147.94 50.73, 59.15 49.94, 12.5 50 M12.5 50 C6.09 49.5, 0.72 45.61, 0 37.5 M12.5 50 C5.63 49.45, 0.05 46.83, 0 37.5 M0 37.5 C-0.13 31.05, 0.58 20.64, 0 12.5 M0 37.5 C-0.42 31.43, 0.07 27.56, 0 12.5 M0 12.5 C0.09 3.82, 4.94 0.59, 12.5 0 M0 12.5 C-2.05 5.62, 5.46 -1.7, 12.5 0" stroke="#ced4da" stroke-width="1" fill="none"/></g><g stroke-linecap="round" transform="translate(1008.818253968254 690.9662698412699) rotate(0 165 24)"><path d="M12 0 C102.52 -2.79, 190.25 -4.94, 318 0 C328.66 0.73, 328.05 6.17, 330 12 C329.22 19.57, 326.79 27.95, 330 36 C328.37 44.88, 324.38 46.16, 318 48 C243.96 53.15, 166.3 49.01, 12 48 C3.89 48.78, -1.01 44.73, 0 36 C2.93 26.97, -1.38 16.86, 0 12 C1.9 4.18, 1.42 -0.28, 12 0" stroke="none" stroke-width="0" fill="#fff9db"/><path d="M12 0 C89.75 -1.69, 167.29 -3.03, 318 0 M12 0 C108.75 2.09, 207.29 2.27, 318 0 M318 0 C326.68 1.05, 331.15 5.79, 330 12 M318 0 C325.17 -0.43, 330.73 4.73, 330 12 M330 12 C331.02 15.69, 329.47 24.82, 330 36 M330 12 C329.89 21.4, 329.56 31.26, 330 36 M330 36 C329.82 42.34, 326.92 46.86, 318 48 M330 36 C331.64 42.69, 324.12 49.15, 318 48 M318 48 C202.81 49.53, 86.64 49.67, 12 48 M318 48 C231.98 47.17, 144.79 47.8, 12 48 M12 48 C3.5 48.72, -0.23 45.27, 0 36 M12 48 C3.45 48.05, 0.99 44.77, 0 36 M0 36 C1.74 29.81, -0.33 20.84, 0 12 M0 36 C-0.94 27.79, 0.55 19.23, 0 12 M0 12 C-0.35 4.77, 4.59 -1.78, 12 0 M0 12 C1.45 5.3, 2.3 -1.78, 12 0" stroke="#ced4da" stroke-width="1" fill="none"/></g><g stroke-linecap="round" transform="translate(716.818253968254 418.9662698412698) rotate(0 90 15)"><path d="M7.5 0 C47.46 -0.1, 84.03 0.03, 172.5 0 C178.23 -1.95, 182.17 1, 180 7.5 C180.97 8.85, 182.6 13.39, 180 22.5 C180.88 25.88, 175.66 28.19, 172.5 30 C118.85 34.14, 56.31 32.56, 7.5 30 C3.28 28.99, 0.73 29.71, 0 22.5 C-0.3 17.71, -1.37 16.82, 0 7.5 C0.18 -0.08, 2.22 -1.65, 7.5 0" stroke="none" stroke-width="0" fill="#fff9db"/><path d="M7.5 0 C49.06 -0.47, 88.53 0.49, 172.5 0 M7.5 0 C67.6 2.18, 128.07 1.72, 172.5 0 M172.5 0 C178.55 1.15, 181.79 1.78, 180 7.5 M172.5 0 C177.07 0.73, 180.73 0.98, 180 7.5 M180 7.5 C178.67 11.04, 181.31 16.63, 180 22.5 M180 7.5 C180.04 11.28, 180.34 15.55, 180 22.5 M180 22.5 C178.34 28.42, 176.36 31.43, 172.5 30 M180 22.5 C178.69 25.62, 178.65 31.79, 172.5 30 M172.5 30 C113.78 30.47, 53.54 30.19, 7.5 30 M172.5 30 C122.16 30.99, 72.59 30.93, 7.5 30 M7.5 30 C3.22 29.77, 1.27 27.02, 0 22.5 M7.5 30 C2.55 30.99, 0.77 27.04, 0 22.5 M0 22.5 C0.41 16.91, -1.27 12.34, 0 7.5 M0 22.5 C0.19 17.23, 0.08 10.69, 0 7.5 M0 7.5 C0.77 3.09, 0.72 1.26, 7.5 0 M0 7.5 C1.3 0.8, 0.72 -0.27, 7.5 0" stroke="#ced4da" stroke-width="1" fill="none"/></g><g stroke-linecap="round" transform="translate(700.818253968254 320.9662698412698) rotate(0 65 15)"><path d="M7.5 0 C53.44 -2.8, 96.97 0.5, 122.5 0 C125.55 2.17, 128.5 0.24, 130 7.5 C127.76 14.35, 128.74 16.53, 130 22.5 C128.38 25.66, 125.69 31.6, 122.5 30 C81.2 29.26, 36.86 32.6, 7.5 30 C1.49 30.73, 2.21 25.23, 0 22.5 C-1.44 16.48, 1.23 13.28, 0 7.5 C-2.58 2.22, 0.85 1.61, 7.5 0" stroke="none" stroke-width="0" fill="#fff9db"/><path d="M7.5 0 C51.07 -1.75, 96.18 1.17, 122.5 0 M7.5 0 C31.48 0.27, 54.19 0.67, 122.5 0 M122.5 0 C128.65 1.79, 129.28 2.13, 130 7.5 M122.5 0 C128.23 0.73, 128.48 1.52, 130 7.5 M130 7.5 C129.77 14.28, 131.5 18.2, 130 22.5 M130 7.5 C129.72 13.16, 129.93 17.7, 130 22.5 M130 22.5 C130.92 26.36, 128.93 28.86, 122.5 30 M130 22.5 C128.12 28.65, 129.29 31.53, 122.5 30 M122.5 30 C86.49 32.92, 50.27 31.1, 7.5 30 M122.5 30 C92.45 31.07, 62.54 30.47, 7.5 30 M7.5 30 C2.27 31.27, -0.48 27.55, 0 22.5 M7.5 30 C3.49 30.77, -0.46 28.97, 0 22.5 M0 22.5 C-0.28 16.84, 0.61 15.1, 0 7.5 M0 22.5 C0.68 18.48, -0.02 14.67, 0 7.5 M0 7.5 C0.59 0.72, 3.76 1.13, 7.5 0 M0 7.5 C-1.7 0.72, 2.23 -1.39, 7.5 0" stroke="#ced4da" stroke-width="1" fill="none"/></g><g transform="translate(10 10) rotate(0 180.21875 18.4)"><text x="0" y="27.040625" font-family="Helvetica, Segoe UI Emoji" font-size="32px" fill="#1971c2" text-anchor="start" style="white-space: pre;" direction="ltr" dominant-baseline="alphabetic">Webview Communication</text></g><g transform="translate(21.25 51.875) rotate(0 245.1318359375 11.5)"><text x="0" y="16.900390625" font-family="Helvetica, Segoe UI Emoji" font-size="20px" fill="#868e96" text-anchor="start" style="white-space: pre;" direction="ltr" dominant-baseline="alphabetic">Two isolated JS contexts coordinating via postMessage</text></g><g stroke-linecap="round" transform="translate(48.75 193.125) rotate(0 275 350)"><path d="M32 0 C164 -1.21, 294.19 -0.48, 518 0 M518 0 C540.94 0.26, 550.68 11.72, 550 32 M550 32 C552.13 259.61, 552.53 486.18, 550 668 M550 668 C549.14 690.76, 540.46 698.08, 518 700 M518 700 C382.28 702.45, 247.03 701.88, 32 700 M32 700 C9.93 700.67, -0.18 687.67, 0 668 M0 668 C1 447.24, 1.86 228.42, 0 32 M0 32 C1.33 10.92, 11.32 1.72, 32 0" stroke="#1971c2" stroke-width="2.5" fill="none" stroke-dasharray="8 10"/></g><g transform="translate(27.5 121.25) rotate(0 121.66064453125 12.649999999999999)"><text x="0" y="18.5904296875" font-family="Helvetica, Segoe UI Emoji" font-size="22px" fill="#1971c2" text-anchor="start" style="white-space: pre;" direction="ltr" dominant-baseline="alphabetic">Extension Host (Node.js)</text></g><g stroke-linecap="round" transform="translate(42.5 188.125) rotate(0 100 30.000000000000007)"><path d="M15 0 C80.73 0.16, 139.87 0.9, 185 0 C194.49 1.37, 197.06 8.55, 200 15 C198.29 20.83, 201.73 32.87, 200 45 C203.24 58.17, 196.47 57.44, 185 60 C135.24 61.36, 81.75 59.58, 15 60 C7.66 59.64, -1.65 53.21, 0 45 C-0.3 32.76, 1.58 25.59, 0 15 C-1.49 5.33, 3.66 1.42, 15 0" stroke="none" stroke-width="0" fill="#d0ebff"/><path d="M15 0 C67.41 1.42, 124.77 1.93, 185 0 M15 0 C72.66 -1.34, 128.34 -0.66, 185 0 M185 0 C195.64 -1.33, 199.14 6.43, 200 15 M185 0 C196.29 -2.21, 199.51 6.85, 200 15 M200 15 C199.84 26.7, 199.17 39.33, 200 45 M200 15 C199.18 24.44, 199.18 31.64, 200 45 M200 45 C201 56.56, 196.33 60.25, 185 60 M200 45 C200.75 56.98, 194.92 62.22, 185 60 M185 60 C138.36 59.5, 88.46 61.24, 15 60 M185 60 C138.92 59.57, 91.59 60.24, 15 60 M15 60 C5.67 59.6, 1.28 54.82, 0 45 M15 60 C7.18 60.61, -0.21 53.02, 0 45 M0 45 C-1.71 34.89, 1.25 24.07, 0 15 M0 45 C-1.01 37.15, 0.45 27.3, 0 15 M0 15 C-1.55 4.77, 3.79 1.55, 15 0 M0 15 C2.04 5.26, 6.62 -1.64, 15 0" stroke="#1971c2" stroke-width="2" fill="none"/></g><g transform="translate(72.5 206.25) rotate(0 36.90625 9.200000000000003)"><text x="0" y="13.5203125" font-family="Helvetica, Segoe UI Emoji" font-size="16px" fill="#1971c2" text-anchor="start" style="white-space: pre;" direction="ltr" dominant-baseline="alphabetic">provider.ts</text></g><g transform="translate(38.75 264.125) rotate(0 58.6953125 9.200000000000003)"><text x="0" y="13.5203125" font-family="Helvetica, Segoe UI Emoji" font-size="16px" fill="#868e96" text-anchor="start" style="white-space: pre;" direction="ltr" dominant-baseline="alphabetic">Message Router</text></g><g stroke-linecap="round" transform="translate(42.5 313.125) rotate(0 100 30)"><path d="M15 0 C75.48 1.42, 138.85 -1.02, 185 0 C198.55 -1.63, 200.88 3.38, 200 15 C202.31 25.7, 202.9 31.4, 200 45 C197.44 54.89, 195.78 58.99, 185 60 C131 60.73, 75.78 56.42, 15 60 C3.21 61.9, 0.18 52.42, 0 45 C2.01 34.74, 0.58 26.12, 0 15 C1.42 8.1, 8.02 -2.59, 15 0" stroke="none" stroke-width="0" fill="#d0ebff"/><path d="M15 0 C52.05 -0.68, 89.63 -0.21, 185 0 M15 0 C81.53 0.63, 146.77 -0.11, 185 0 M185 0 C196.43 1.12, 198.08 4.57, 200 15 M185 0 C196.85 2.17, 199.32 6.4, 200 15 M200 15 C200.65 23.71, 198.32 33.69, 200 45 M200 15 C199.4 22.78, 200.99 30.23, 200 45 M200 45 C200.25 55.65, 196.72 59.93, 185 60 M200 45 C202.22 54.6, 195.13 59.07, 185 60 M185 60 C123.71 59.16, 59.29 59.44, 15 60 M185 60 C123.65 60.38, 61.23 60.68, 15 60 M15 60 C4.82 61.89, 0.53 54.82, 0 45 M15 60 C3.02 61.16, 2.05 54.33, 0 45 M0 45 C0.03 37.82, 0.71 31.92, 0 15 M0 45 C-0.93 37.9, -0.31 31.74, 0 15 M0 15 C1.55 6.77, 5.23 1.41, 15 0 M0 15 C-1.64 6.7, 5.47 -1.25, 15 0" stroke="#1971c2" stroke-width="2" fill="none"/></g><g transform="translate(82.5 331.25) rotate(0 35.5703125 9.199999999999989)"><text x="0" y="13.5203125" font-family="Helvetica, Segoe UI Emoji" font-size="16px" fill="#1971c2" text-anchor="start" style="white-space: pre;" direction="ltr" dominant-baseline="alphabetic">installer.ts</text></g><g stroke-linecap="round" transform="translate(348.75 205.625) rotate(0 124.99999999999999 100)"><path d="M32 0 C77.49 -2.47, 123.78 -1.16, 218 0 C240.21 -1.62, 248.16 8.85, 250 32 C254.93 80.3, 249.2 125.55, 250 168 C250.78 188.33, 240.06 202.21, 218 200 C173.58 200.82, 128.1 204.37, 32 200 C10.85 197.42, -0.28 187.68, 0 168 C-0.87 119.77, 0.22 77.32, 0 32 C3.02 8.08, 9.15 0.95, 32 0" stroke="none" stroke-width="0" fill="#d3f9d8"/><path d="M32 0 C103.76 0.52, 175.21 -1.35, 218 0 M32 0 C83.7 -1.02, 137.44 -0.03, 218 0 M218 0 C237.41 -0.43, 251.61 12.55, 250 32 M218 0 C238.65 1.4, 249.91 10.52, 250 32 M250 32 C248.79 68.69, 249.31 104.97, 250 168 M250 32 C249.67 65.71, 249.01 98.42, 250 168 M250 168 C251.72 189.27, 241.26 199.66, 218 200 M250 168 C250.13 188.4, 240.99 200.21, 218 200 M218 200 C166.57 199.3, 114.98 199.05, 32 200 M218 200 C161.56 201.26, 105.43 201.57, 32 200 M32 200 C11.2 199.82, -1.72 190.34, 0 168 M32 200 C12.72 199.33, -1.66 189.79, 0 168 M0 168 C0.71 117.44, -1.85 66.96, 0 32 M0 168 C0.89 118.94, 1.78 71.97, 0 32 M0 32 C0.23 12.07, 9.24 1.48, 32 0 M0 32 C0.47 9.42, 12.05 -0.96, 32 0" stroke="#2f9e44" stroke-width="2" fill="none"/></g><g transform="translate(342.5 189.375) rotate(0 35.128906249999986 9.199999999999996)"><text x="0" y="13.5203125" font-family="Helvetica, Segoe UI Emoji" font-size="16px" fill="#2f9e44" text-anchor="start" style="white-space: pre;" direction="ltr" dominant-baseline="alphabetic">API Layer</text></g><g transform="translate(352.5 646.375) rotate(0 58.691406249999986 46)"><text x="0" y="13.5203125" font-family="Helvetica, Segoe UI Emoji" font-size="16px" fill="#2f9e44" text-anchor="start" style="white-space: pre;" direction="ltr" dominant-baseline="alphabetic">search.ts</text><text x="0" y="31.920312499999998" font-family="Helvetica, Segoe UI Emoji" font-size="16px" fill="#2f9e44" text-anchor="start" style="white-space: pre;" direction="ltr" dominant-baseline="alphabetic">github.ts</text><text x="0" y="50.3203125" font-family="Helvetica, Segoe UI Emoji" font-size="16px" fill="#2f9e44" text-anchor="start" style="white-space: pre;" direction="ltr" dominant-baseline="alphabetic">detail-scraper.ts</text><text x="0" y="68.72031249999999" font-family="Helvetica, Segoe UI Emoji" font-size="16px" fill="#2f9e44" text-anchor="start" style="white-space: pre;" direction="ltr" dominant-baseline="alphabetic">audits-scraper.ts</text><text x="0" y="87.1203125" font-family="Helvetica, Segoe UI Emoji" font-size="16px" fill="#2f9e44" text-anchor="start" style="white-space: pre;" direction="ltr" dominant-baseline="alphabetic">docs-scraper.ts</text></g><g stroke-linecap="round" transform="translate(348.75 475.625) rotate(0 124.99999999999999 30)"><path d="M15 0 C87.96 -2.62, 162.34 -4.98, 235 0 C243.19 1.6, 252.59 8.24, 250 15 C250.11 27.42, 249.21 39, 250 45 C252.21 52.73, 245.43 62.66, 235 60 C172.84 58.46, 105.15 58.06, 15 60 C3.35 61.61, 1.76 53.51, 0 45 C3.3 38.75, -2.39 24.94, 0 15 C0.95 7.84, 5.93 -0.11, 15 0" stroke="none" stroke-width="0" fill="#f1f3f5"/><path d="M15 0 C91.98 -2.03, 170.76 -1.15, 235 0 M15 0 C66.9 -2.19, 117.64 -0.66, 235 0 M235 0 C246.89 -0.59, 251.22 4.92, 250 15 M235 0 C244.85 -0.85, 250.77 4.79, 250 15 M250 15 C251.56 20.36, 248.5 29.01, 250 45 M250 15 C250.52 27.2, 250.17 38.64, 250 45 M250 45 C249.66 55.11, 244.19 61.44, 235 60 M250 45 C250.21 54.55, 247.21 59.42, 235 60 M235 60 C160.68 61.25, 87.94 61.79, 15 60 M235 60 C174.2 60.06, 111.67 59.09, 15 60 M15 60 C6.01 61.79, -0.59 53.56, 0 45 M15 60 C5.46 61.75, 0.11 54.6, 0 45 M0 45 C1.17 35.97, -1.56 23.14, 0 15 M0 45 C1.07 36.47, 0.88 26.99, 0 15 M0 15 C1.48 5.41, 3.92 1.2, 15 0 M0 15 C-0.96 3.56, 4.52 -0.32, 15 0" stroke="#868e96" stroke-width="2" fill="none"/></g><g transform="translate(408.75 493.75) rotate(0 48.91796875 9.199999999999989)"><text x="0" y="13.5203125" font-family="Helvetica, Segoe UI Emoji" font-size="16px" fill="#343a40" text-anchor="start" style="white-space: pre;" direction="ltr" dominant-baseline="alphabetic">ApiCache&lt;T&gt;</text></g><g transform="translate(345 647) rotate(0 92.93749999999999 18.399999999999977)"><text x="0" y="13.5203125" font-family="Helvetica, Segoe UI Emoji" font-size="16px" fill="#495057" text-anchor="start" style="white-space: pre;" direction="ltr" dominant-baseline="alphabetic">Generic TTL-based cache</text><text x="0" y="31.920312499999998" font-family="Helvetica, Segoe UI Emoji" font-size="16px" fill="#495057" text-anchor="start" style="white-space: pre;" direction="ltr" dominant-baseline="alphabetic">shared by all API modules</text></g><g stroke-linecap="round" transform="translate(42.5 433.125) rotate(0 100 60)"><path d="M30 0 C63.83 -0.68, 102.93 3.72, 170 0 C193.24 3.17, 201.47 7.44, 200 30 C200.96 50.03, 197.96 66.07, 200 90 C202.66 109.64, 188.35 118.21, 170 120 C120.33 116.54, 72.83 119.96, 30 120 C8.51 120.33, -1.34 111.42, 0 90 C-2.42 67.79, 1.93 44.61, 0 30 C-0.11 11.71, 7.41 2.04, 30 0" stroke="none" stroke-width="0" fill="#f8f9fa"/><path d="M30 0 C67.61 -1.77, 103.08 0.99, 170 0 M30 0 C80.67 1.24, 129.44 0.91, 170 0 M170 0 C189.92 -0.13, 199.26 10.67, 200 30 M170 0 C189.79 -1.91, 201.06 8.68, 200 30 M200 30 C200.66 53.84, 200.98 74.81, 200 90 M200 30 C201.48 49.78, 200.57 69.5, 200 90 M200 90 C201.44 110.19, 189.61 121.93, 170 120 M200 90 C199.42 110.83, 189.74 121.46, 170 120 M170 120 C132.04 120.21, 94.02 120.43, 30 120 M170 120 C113.89 120.38, 60.39 119.58, 30 120 M30 120 C8.56 120.4, 1.52 110.09, 0 90 M30 120 C9.6 120.88, 0.68 107.95, 0 90 M0 90 C-1.89 67.98, -1.54 47.97, 0 30 M0 90 C-0.78 67.42, 0.14 42.81, 0 30 M0 30 C1.2 9.17, 8.74 -0.42, 30 0 M0 30 C-0.32 10.88, 8.12 2.27, 30 0" stroke="#343a40" stroke-width="2" fill="none"/></g><g transform="translate(36.25 426.875) rotate(0 18.6796875 9.199999999999989)"><text x="0" y="13.5203125" font-family="Helvetica, Segoe UI Emoji" font-size="16px" fill="#343a40" text-anchor="start" style="white-space: pre;" direction="ltr" dominant-baseline="alphabetic">State</text></g><g transform="translate(52.5 664.5) rotate(0 64.9296875 27.600000000000023)"><text x="0" y="13.5203125" font-family="Helvetica, Segoe UI Emoji" font-size="16px" fill="#343a40" text-anchor="start" style="white-space: pre;" direction="ltr" dominant-baseline="alphabetic">installedNames[]</text><text x="0" y="31.920312499999998" font-family="Helvetica, Segoe UI Emoji" font-size="16px" fill="#343a40" text-anchor="start" style="white-space: pre;" direction="ltr" dominant-baseline="alphabetic">updatableNames[]</text><text x="0" y="50.3203125" font-family="Helvetica, Segoe UI Emoji" font-size="16px" fill="#343a40" text-anchor="start" style="white-space: pre;" direction="ltr" dominant-baseline="alphabetic">installedSkills[]</text></g><g stroke-linecap="round" transform="translate(1011.25 193.125) rotate(0 275.00000000000006 350)"><path d="M32 0 C193.9 1.36, 353.78 0.7, 518 0 M518 0 C540.94 1.89, 549.41 11.88, 550 32 M550 32 C550.1 220.31, 549.17 409.13, 550 668 M550 668 C548.86 690.76, 538.19 698.36, 518 700 M518 700 C347.97 701.64, 178.45 701.34, 32 700 M32 700 C12.6 699.66, 0.11 688.53, 0 668 M0 668 C0.53 431.29, 0.05 194.9, 0 32 M0 32 C1.27 10.19, 10.71 0.86, 32 0" stroke="#e8590c" stroke-width="2.5" fill="none" stroke-dasharray="8 10"/></g><g transform="translate(990 121.25) rotate(0 131.84960937500006 12.649999999999999)"><text x="0" y="18.5904296875" font-family="Helvetica, Segoe UI Emoji" font-size="22px" fill="#e8590c" text-anchor="start" style="white-space: pre;" direction="ltr" dominant-baseline="alphabetic">Webview Sandbox (iframe)</text></g><g stroke-linecap="round" transform="translate(1007.5 188.125) rotate(0 110.00000000000006 30.000000000000007)"><path d="M15 0 C83.59 -1.61, 143.29 -3.18, 205 0 C215.78 -1.01, 220.73 7.21, 220 15 C219.71 20.45, 218.28 31.11, 220 45 C220.18 52.42, 214.72 58.35, 205 60 C139.82 57.25, 75.4 61.69, 15 60 C8.02 57.41, -1.51 55.95, 0 45 C1.57 31.05, 1.9 25.27, 0 15 C1.18 5.04, 2.72 2.81, 15 0" stroke="none" stroke-width="0" fill="#ffe8cc"/><path d="M15 0 C61.95 -1.49, 114.34 0.82, 205 0 M15 0 C66.32 -0.3, 118.1 -0.02, 205 0 M205 0 C213.34 0.92, 218.86 6.43, 220 15 M205 0 C213.69 -1.88, 221.15 6.79, 220 15 M220 15 C221.76 25.92, 221.97 36.64, 220 45 M220 15 C219.97 23.97, 220.84 33.09, 220 45 M220 45 C220.72 54.77, 216.27 59.52, 205 60 M220 45 C220.05 55.99, 215.77 59.54, 205 60 M205 60 C136.41 61.62, 65.04 62.81, 15 60 M205 60 C131.22 59.39, 57.1 58.46, 15 60 M15 60 C5.77 60.59, -1.78 56.26, 0 45 M15 60 C6.3 58.3, -1.78 54.73, 0 45 M0 45 C0 39.22, -1.66 32.1, 0 15 M0 45 C-0.25 34.76, -0.05 25.64, 0 15 M0 15 C0.76 3.37, 6.97 -0.91, 15 0 M0 15 C0.56 3.96, 3.83 -1.16, 15 0" stroke="#e8590c" stroke-width="2" fill="none"/></g><g transform="translate(1037.5 206.25) rotate(0 60.90234375000006 9.200000000000003)"><text x="0" y="13.5203125" font-family="Helvetica, Segoe UI Emoji" font-size="16px" fill="#e8590c" text-anchor="start" style="white-space: pre;" direction="ltr" dominant-baseline="alphabetic">webview-script.ts</text></g><g transform="translate(1027.8182539682539 255.96626984126982) rotate(0 49.3515625 9.200000000000003)"><text x="0" y="13.5203125" font-family="Helvetica, Segoe UI Emoji" font-size="16px" fill="#868e96" text-anchor="start" style="white-space: pre;" direction="ltr" dominant-baseline="alphabetic">Client-side JS</text></g><g stroke-linecap="round" transform="translate(1007.5 313.125) rotate(0 110.00000000000006 30)"><path d="M15 0 C88.61 3.21, 161.42 3.16, 205 0 C217.21 -2.27, 220.43 7.66, 220 15 C221.65 23.89, 217.17 32.13, 220 45 C218.35 56.61, 216.76 58.51, 205 60 C149.36 64.37, 84.93 59.84, 15 60 C5.95 62.84, 0.93 54.89, 0 45 C3.39 35.75, 0.43 21.87, 0 15 C2.81 7.91, 1.43 3.51, 15 0" stroke="none" stroke-width="0" fill="#ffe8cc"/><path d="M15 0 C55.64 -2.12, 93.72 -1.6, 205 0 M15 0 C70.67 -1.47, 126.97 -1.21, 205 0 M205 0 C216.43 -1.14, 218.36 6, 220 15 M205 0 C216.79 1.53, 220.29 5.75, 220 15 M220 15 C219.65 26.7, 219.18 39.61, 220 45 M220 15 C219.69 24.64, 219.83 34.19, 220 45 M220 45 C219.52 55.05, 215.86 60.67, 205 60 M220 45 C219.54 56.47, 214.8 62.18, 205 60 M205 60 C143.94 60.16, 80.27 56.93, 15 60 M205 60 C144.03 60.47, 83.7 59.2, 15 60 M15 60 C6.26 61.13, -1.48 53.45, 0 45 M15 60 C4.73 58.61, 1.78 57.04, 0 45 M0 45 C1.27 36.06, -1.3 27.52, 0 15 M0 45 C0.05 37.63, -0.63 30.48, 0 15 M0 15 C-0.91 5.49, 4.1 -1.02, 15 0 M0 15 C-1.16 6.02, 6.65 2.07, 15 0" stroke="#e8590c" stroke-width="2" fill="none"/></g><g transform="translate(1047.5 331.25) rotate(0 43.12890625000006 9.199999999999989)"><text x="0" y="13.5203125" font-family="Helvetica, Segoe UI Emoji" font-size="16px" fill="#e8590c" text-anchor="start" style="white-space: pre;" direction="ltr" dominant-baseline="alphabetic">templates.ts</text></g><g transform="translate(1002.5 389.125) rotate(0 64.01953125 9.199999999999989)"><text x="0" y="13.5203125" font-family="Helvetica, Segoe UI Emoji" font-size="16px" fill="#868e96" text-anchor="start" style="white-space: pre;" direction="ltr" dominant-baseline="alphabetic">HTML Generators</text></g><g stroke-linecap="round" transform="translate(1320 313.125) rotate(0 110 30)"><path d="M15 0 C72.16 3.17, 125.59 1.39, 205 0 C217.66 -0.36, 218.35 3.21, 220 15 C219.75 23.93, 221.64 37.93, 220 45 C218.51 55.33, 213.66 61.42, 205 60 C130.14 58.49, 61.13 58.47, 15 60 C4.89 61.71, -2.59 57.04, 0 45 C-2.46 36.31, 2.74 18.43, 0 15 C3.51 4.17, 1.64 2.36, 15 0" stroke="none" stroke-width="0" fill="#ffe8cc"/><path d="M15 0 C89.83 -1.29, 164.08 -0.48, 205 0 M15 0 C69.72 -0.16, 125.01 -1.69, 205 0 M205 0 C216 1.56, 221.33 5.25, 220 15 M205 0 C215.75 1.98, 219.92 7.22, 220 15 M220 15 C221.45 23.67, 219.62 33.89, 220 45 M220 15 C220.74 23, 220.13 31.92, 220 45 M220 45 C220.67 54.6, 216.28 59.82, 205 60 M220 45 C222.18 55.61, 214.79 58.02, 205 60 M205 60 C136.99 59.84, 73.39 59.54, 15 60 M205 60 C150.4 61.19, 98.15 59.82, 15 60 M15 60 C3.45 59.77, -1.21 56.55, 0 45 M15 60 C7.04 60.26, 1.62 53.36, 0 45 M0 45 C1.14 32.95, -1.32 22.14, 0 15 M0 45 C0.87 35.97, 0.13 27.39, 0 15 M0 15 C-1.02 3.99, 5.89 1.44, 15 0 M0 15 C2.07 7.02, 5.94 -1.63, 15 0" stroke="#e8590c" stroke-width="2" fill="none"/></g><g transform="translate(1360 331.25) rotate(0 28.89453125 9.199999999999989)"><text x="0" y="13.5203125" font-family="Helvetica, Segoe UI Emoji" font-size="16px" fill="#e8590c" text-anchor="start" style="white-space: pre;" direction="ltr" dominant-baseline="alphabetic">styles.ts</text></g><g transform="translate(1312.5 389.125) rotate(0 45.796875 9.199999999999989)"><text x="0" y="13.5203125" font-family="Helvetica, Segoe UI Emoji" font-size="16px" fill="#868e96" text-anchor="start" style="white-space: pre;" direction="ltr" dominant-baseline="alphabetic">CSS (nonce)</text></g><g stroke-linecap="round" transform="translate(1040 440.625) rotate(0 240.00000000000006 40)"><path d="M20 0 C161.09 3.83, 301.57 1.67, 460 0 C471.55 1.9, 480.18 4.09, 480 20 C481.43 30.21, 480 42.04, 480 60 C481.42 76.43, 476.36 77.41, 460 80 C346.95 83.07, 233.82 81.83, 20 80 C8.71 83, 1.18 73.37, 0 60 C-4.13 54.04, -1.4 37.71, 0 20 C2.36 9.78, 3.41 1.46, 20 0" stroke="none" stroke-width="0" fill="#f8f9fa"/><path d="M20 0 C150.66 0.72, 279.82 1.27, 460 0 M20 0 C126.41 1.5, 234.03 1.59, 460 0 M460 0 C473.58 0.65, 481.72 6.6, 480 20 M460 0 C475.55 -0.4, 480.13 5.74, 480 20 M480 20 C481.96 34.37, 480.76 49.52, 480 60 M480 20 C480.34 34.87, 479.7 49.71, 480 60 M480 60 C479.82 75.23, 473.87 79.82, 460 80 M480 60 C478.02 74.49, 475.39 79.33, 460 80 M460 80 C359.78 81.5, 259.86 81.97, 20 80 M460 80 C366.84 80.85, 274.36 80.94, 20 80 M20 80 C8.22 81.77, 0.23 74.74, 0 60 M20 80 C5.03 81.7, 0.47 72.09, 0 60 M0 60 C-0.25 45.31, 0.93 29.55, 0 20 M0 60 C-0.27 43.55, -0.32 28.56, 0 20 M0 20 C1.44 8.46, 8.43 0.82, 20 0 M0 20 C-1.63 6.6, 7.17 -0.64, 20 0" stroke="#343a40" stroke-width="2" fill="none"/></g><g transform="translate(1049.8182539682539 447.9662698412698) rotate(0 35.875 9.199999999999989)"><text x="0" y="13.5203125" font-family="Helvetica, Segoe UI Emoji" font-size="16px" fill="#343a40" text-anchor="start" style="white-space: pre;" direction="ltr" dominant-baseline="alphabetic">ViewState</text></g><g transform="translate(1049.8182539682539 472.9662698412698) rotate(0 125.109375 18.400000000000006)"><text x="0" y="13.5203125" font-family="Helvetica, Segoe UI Emoji" font-size="16px" fill="#343a40" text-anchor="start" style="white-space: pre;" direction="ltr" dominant-baseline="alphabetic">leaderboard | search-results | detail</text><text x="0" y="31.920312499999998" font-family="Helvetica, Segoe UI Emoji" font-size="16px" fill="#343a40" text-anchor="start" style="white-space: pre;" direction="ltr" dominant-baseline="alphabetic">| installed | audits | docs</text></g><g stroke-linecap="round"><g transform="translate(695.5 230.625) rotate(0 109.5 0)"><path d="M-1 0.55 C35.32 0.71, 181.76 1.11, 218.31 0.86 M0.68 -0.2 C37.35 -0.36, 184.58 -0.82, 220.66 -0.82" stroke="#1971c2" stroke-width="2" fill="none"/></g><g transform="translate(695.5 230.625) rotate(0 109.5 0)"><path d="M197.19 7.77 C205.95 3.96, 214.28 1.1, 220.66 -0.82 M197.19 7.77 C202.93 5.84, 207.72 4.7, 220.66 -0.82" stroke="#1971c2" stroke-width="2" fill="none"/></g><g transform="translate(695.5 230.625) rotate(0 109.5 0)"><path d="M197.16 -9.33 C205.91 -7.44, 214.26 -4.6, 220.66 -0.82 M197.16 -9.33 C202.99 -7.53, 207.79 -4.93, 220.66 -0.82" stroke="#1971c2" stroke-width="2" fill="none"/></g></g><mask/><g transform="translate(733.75 201.625) rotate(0 52.46875 9.200000000000003)"><text x="0" y="13.5203125" font-family="Helvetica, Segoe UI Emoji" font-size="16px" fill="#1971c2" text-anchor="start" style="white-space: pre;" direction="ltr" dominant-baseline="alphabetic">17 commands:</text></g><g transform="translate(710.818253968254 262.9662698412698) rotate(0 96.94921875 18.400000000000006)"><text x="0" y="13.5203125" font-family="Helvetica, Segoe UI Emoji" font-size="16px" fill="#495057" text-anchor="start" style="white-space: pre;" direction="ltr" dominant-baseline="alphabetic">search, leaderboard, detail,</text><text x="0" y="31.920312499999998" font-family="Helvetica, Segoe UI Emoji" font-size="16px" fill="#495057" text-anchor="start" style="white-space: pre;" direction="ltr" dominant-baseline="alphabetic">install, update, uninstall, ...</text></g><g stroke-linecap="round"><g transform="translate(969.5 418.125) rotate(0 -109.5 0)"><path d="M0.86 -0.68 C-35.9 -0.47, -183.49 0.35, -219.98 0.6 M-0.15 1.57 C-36.59 1.49, -181.42 -0.76, -217.78 -1.21" stroke="#e8590c" stroke-width="2" fill="none"/></g><g transform="translate(969.5 418.125) rotate(0 -109.5 0)"><path d="M-194.18 -9.43 C-203.53 -8.05, -209.56 -2.01, -217.78 -1.21 M-194.18 -9.43 C-201.95 -6.37, -210.5 -3.5, -217.78 -1.21" stroke="#e8590c" stroke-width="2" fill="none"/></g><g transform="translate(969.5 418.125) rotate(0 -109.5 0)"><path d="M-194.41 7.67 C-203.59 3.13, -209.54 3.25, -217.78 -1.21 M-194.41 7.67 C-202.12 4.46, -210.58 1.07, -217.78 -1.21" stroke="#e8590c" stroke-width="2" fill="none"/></g></g><mask/><g transform="translate(710.818253968254 327.9662698412698) rotate(0 42.24609375 9.199999999999989)"><text x="0" y="13.5203125" font-family="Helvetica, Segoe UI Emoji" font-size="16px" fill="#e8590c" text-anchor="start" style="white-space: pre;" direction="ltr" dominant-baseline="alphabetic">Responses:</text></g><g transform="translate(710.818253968254 349.9662698412698) rotate(0 95.15625 18.400000000000006)"><text x="0" y="13.5203125" font-family="Helvetica, Segoe UI Emoji" font-size="16px" fill="#495057" text-anchor="start" style="white-space: pre;" direction="ltr" dominant-baseline="alphabetic">searchResult, detailResult,</text><text x="0" y="31.920312499999998" font-family="Helvetica, Segoe UI Emoji" font-size="16px" fill="#495057" text-anchor="start" style="white-space: pre;" direction="ltr" dominant-baseline="alphabetic">updateButtonStates, ...</text></g><g stroke-linecap="round"><g stroke-opacity="0.4" fill-opacity="0.4" transform="translate(705 195.625) rotate(0 0 160)"><path d="M0 0 C-0.74 78.69, -1.66 155.98, 0 320" stroke="#868e96" stroke-width="1.5" fill="none" stroke-dasharray="1.5 7"/></g></g><mask/><g transform="translate(763.75 158.125) rotate(0 47.58203125 9.199999999999996)"><text x="0" y="13.5203125" font-family="Helvetica, Segoe UI Emoji" font-size="16px" fill="#868e96" text-anchor="start" style="white-space: pre;" direction="ltr" dominant-baseline="alphabetic">postMessage</text></g><g stroke-linecap="round" transform="translate(730 680.625) rotate(0 150 50)"><path d="M25 0 C99.52 -2.86, 171.44 -2.74, 275 0 C293.09 3.1, 303.02 5.74, 300 25 C301.17 37.79, 301.95 48.21, 300 75 C302.04 94.67, 292.84 100.04, 275 100 C212.93 105.84, 156.01 100.23, 25 100 C10.69 103.12, -3.26 93.13, 0 75 C1.31 58.47, -2.67 50.79, 0 25 C1.11 9.78, 9.5 0.95, 25 0" stroke="none" stroke-width="0" fill="#d0ebff"/><path d="M25 0 C112.73 -0.82, 201.45 -1.41, 275 0 M25 0 C123.8 0.47, 223.33 -0.28, 275 0 M275 0 C293.59 -0.5, 300.72 8.11, 300 25 M275 0 C293.13 -0.55, 300.05 9.33, 300 25 M300 25 C299.72 43.57, 300.43 58.18, 300 75 M300 25 C299.96 34.98, 300.45 47.17, 300 75 M300 75 C300.09 91.32, 292.44 100.59, 275 100 M300 75 C297.95 93.12, 292.96 98.3, 275 100 M275 100 C220.63 100.22, 163.91 99.92, 25 100 M275 100 C217.35 100.91, 160.25 99.9, 25 100 M25 100 C7.91 99.72, 0.76 90.03, 0 75 M25 100 C10.6 98.96, 0.56 90.63, 0 75 M0 75 C1.69 64.35, 2.01 50.92, 0 25 M0 75 C-0.26 63.75, 0.63 51.47, 0 25 M0 25 C0.24 9.81, 8.13 -0.92, 25 0 M0 25 C-1.14 9.55, 8.45 -1.65, 25 0" stroke="#1971c2" stroke-width="2" fill="none"/></g><g transform="translate(770 683.75) rotate(0 78.26953125 9.199999999999989)"><text x="0" y="13.5203125" font-family="Helvetica, Segoe UI Emoji" font-size="16px" fill="#1971c2" text-anchor="start" style="white-space: pre;" direction="ltr" dominant-baseline="alphabetic">Detail Request Dedup</text></g><g transform="translate(749.818253968254 717.9662698412699) rotate(0 115.625 18.399999999999977)"><text x="0" y="13.5203125" font-family="Helvetica, Segoe UI Emoji" font-size="16px" fill="#343a40" text-anchor="start" style="white-space: pre;" direction="ltr" dominant-baseline="alphabetic">detailRequestId counter</text><text x="0" y="31.920312499999998" font-family="Helvetica, Segoe UI Emoji" font-size="16px" fill="#343a40" text-anchor="start" style="white-space: pre;" direction="ltr" dominant-baseline="alphabetic">Stale responses silently dropped</text></g><g transform="translate(610.818253968254 797.9662698412699) rotate(0 182.5078125 18.399999999999977)"><text x="0" y="13.5203125" font-family="Helvetica, Segoe UI Emoji" font-size="16px" fill="#495057" text-anchor="start" style="white-space: pre;" direction="ltr" dominant-baseline="alphabetic">User clicks Skill A, then B before A loads —</text><text x="0" y="31.920312499999998" font-family="Helvetica, Segoe UI Emoji" font-size="16px" fill="#495057" text-anchor="start" style="white-space: pre;" direction="ltr" dominant-baseline="alphabetic">only B's response renders (prevents race condition)</text></g><g transform="translate(1018.818253968254 597.9662698412699) rotate(0 83.5390625 18.399999999999977)"><text x="0" y="13.5203125" font-family="Helvetica, Segoe UI Emoji" font-size="16px" fill="#495057" text-anchor="start" style="white-space: pre;" direction="ltr" dominant-baseline="alphabetic">CSP: default-src 'none';</text><text x="0" y="31.920312499999998" font-family="Helvetica, Segoe UI Emoji" font-size="16px" fill="#495057" text-anchor="start" style="white-space: pre;" direction="ltr" dominant-baseline="alphabetic">script-src 'nonce-...'</text></g><g transform="translate(1018.818253968254 697.9662698412699) rotate(0 135.63671875 18.399999999999977)"><text x="0" y="13.5203125" font-family="Helvetica, Segoe UI Emoji" font-size="16px" fill="#e03131" text-anchor="start" style="white-space: pre;" direction="ltr" dominant-baseline="alphabetic">Webview cannot fetch() externally —</text><text x="0" y="31.920312499999998" font-family="Helvetica, Segoe UI Emoji" font-size="16px" fill="#e03131" text-anchor="start" style="white-space: pre;" direction="ltr" dominant-baseline="alphabetic">all API calls go through extension host</text></g><g stroke-opacity="0.5" fill-opacity="0.5" stroke-linecap="round" transform="translate(1008.75 580.625) rotate(0 165.00000000000006 50)"><path d="M25 0 C108.16 -0.25, 192.24 0.51, 305 0 M305 0 C321.27 1.93, 329.5 9.05, 330 25 M330 25 C330.36 40.29, 330.99 53.46, 330 75 M330 75 C331.28 91.49, 323.56 100.53, 305 100 M305 100 C224.87 100.63, 140.89 101.39, 25 100 M25 100 C9.86 100.09, -0.35 92.44, 0 75 M0 75 C1.57 57.05, -1.1 41.82, 0 25 M0 25 C-1.21 9.88, 10.11 0.23, 25 0" stroke="#868e96" stroke-width="1.5" fill="none" stroke-dasharray="8 9"/></g><g transform="translate(726.818253968254 425.9662698412698) rotate(0 58.24609375 9.199999999999989)"><text x="0" y="13.5203125" font-family="Helvetica, Segoe UI Emoji" font-size="16px" fill="#1971c2" text-anchor="start" style="white-space: pre;" direction="ltr" dominant-baseline="alphabetic">webview → host</text></g><g transform="translate(726.818253968254 215.96626984126982) rotate(0 58.24609375 9.200000000000003)"><text x="0" y="13.5203125" font-family="Helvetica, Segoe UI Emoji" font-size="16px" fill="#e8590c" text-anchor="start" style="white-space: pre;" direction="ltr" dominant-baseline="alphabetic">host → webview</text></g><g stroke-linecap="round"><g stroke-opacity="0.4" fill-opacity="0.4" transform="translate(1008.75 555.625) rotate(0 165.00000000000006 0)"><path d="M0 0 C101 -1.89, 203.06 -1.96, 330 0" stroke="#868e96" stroke-width="1.5" fill="none" stroke-dasharray="1.5 7"/></g></g><mask/><g transform="translate(717.5 627.5) rotate(0 104.51171875 11.5)"><text x="0" y="16.900390625" font-family="Helvetica, Segoe UI Emoji" font-size="20px" fill="#1971c2" text-anchor="start" style="white-space: pre;" direction="ltr" dominant-baseline="alphabetic">Request Dedup Pattern</text></g><g stroke-linecap="round" transform="translate(336.70000000000005 635.625) rotate(0 86.80000000000001 62)"><path d="M31 0 C75.22 3.49, 115.39 2.04, 142.6 0 C164.46 0.18, 176.75 7.08, 173.6 31 C170.7 51.63, 169.47 72.57, 173.6 93 C171.13 114.24, 160.06 126.88, 142.6 124 C97.08 124, 57.85 124.32, 31 124 C12.84 121.62, -2.99 115.2, 0 93 C2.16 78.64, -1.5 62.22, 0 31 C-3.05 11.47, 13.48 1.16, 31 0" stroke="none" stroke-width="0" fill="#fff9db"/><path d="M31 0 C68.13 -1.49, 103.04 1.25, 142.6 0 M31 0 C63.9 0.61, 95.02 0.48, 142.6 0 M142.6 0 C162.35 0.9, 174.58 9.51, 173.6 31 M142.6 0 C163.48 -0.86, 174.51 12.31, 173.6 31 M173.6 31 C173.68 56.38, 173.67 78.56, 173.6 93 M173.6 31 C173.99 52.87, 173.16 73.45, 173.6 93 M173.6 93 C175.16 115.28, 161.28 125.95, 142.6 124 M173.6 93 C173.07 111.52, 164.77 125.99, 142.6 124 M142.6 124 C118.56 122.44, 96.39 121.86, 31 124 M142.6 124 C118.71 124.67, 94.29 124.6, 31 124 M31 124 C8.9 122.43, 1.63 113.79, 0 93 M31 124 C10 121.94, 0.83 113.19, 0 93 M0 93 C-0.84 71.29, 1.1 47.31, 0 31 M0 93 C-0.61 73.06, -0.89 53.76, 0 31 M0 31 C-0.28 8.76, 9.34 0.77, 31 0 M0 31 C-0.77 8.81, 9.15 -1.45, 31 0" stroke="#ced4da" stroke-width="1" fill="none"/></g><g stroke-linecap="round" transform="translate(333 635.625) rotate(0 122.00000000000001 32)"><path d="M16 0 C64.29 -2.02, 109.19 -0.69, 228 0 C238.85 3.15, 240.75 7.03, 244 16 C242.86 19.51, 242.28 26.71, 244 48 C244.57 55.46, 241.54 66.87, 228 64 C148.77 61.08, 68.24 63.28, 16 64 C2.95 61.01, 1.53 57.84, 0 48 C2.29 35.74, 3.06 22.17, 0 16 C1.14 8.48, 6.5 1.53, 16 0" stroke="none" stroke-width="0" fill="#fff9db"/><path d="M16 0 C72.55 -0.94, 132.63 -1.32, 228 0 M16 0 C69.92 -1.62, 123.68 -1.39, 228 0 M228 0 C239.56 0.98, 243.17 5.52, 244 16 M228 0 C237.81 0.91, 245.98 7.27, 244 16 M244 16 C245.44 23.82, 243.81 31.55, 244 48 M244 16 C244.51 23.31, 243.55 31.38, 244 48 M244 48 C245.62 56.68, 240.62 63.54, 228 64 M244 48 C241.86 60.17, 240.66 61.92, 228 64 M228 64 C154.75 63.88, 82.04 61.94, 16 64 M228 64 C150.18 64.98, 72.02 64.12, 16 64 M16 64 C3.76 65.63, 0.12 58.38, 0 48 M16 64 C3.27 64.83, -0.47 59.95, 0 48 M0 48 C0.27 38.47, -1.64 26.59, 0 16 M0 48 C-0.43 37.94, 0 29.73, 0 16 M0 16 C-1.58 4.34, 6.1 -0.67, 16 0 M0 16 C-1.53 4.15, 3.89 1.83, 16 0" stroke="#ced4da" stroke-width="1" fill="none"/></g><g stroke-linecap="round" transform="translate(36.70000000000002 653.125) rotate(0 86.80000000000001 42)"><path d="M21 0 C53.03 -0.63, 86.87 -1.4, 152.6 0 C169.75 -3.25, 175.29 3.61, 173.6 21 C170.14 30.26, 170.74 43.02, 173.6 63 C170.4 79.88, 169.47 86.92, 152.6 84 C125.01 87.32, 99.91 82.81, 21 84 C4.01 85.53, -0.82 79.01, 0 63 C-1.46 50.14, -3.64 31.24, 0 21 C3.15 8.16, 8.53 -3.21, 21 0" stroke="none" stroke-width="0" fill="#fff9db"/><path d="M21 0 C63.37 2.31, 105.07 -0.09, 152.6 0 M21 0 C53.23 -0.14, 86.44 0.38, 152.6 0 M152.6 0 C167.58 -0.83, 173.78 6.25, 173.6 21 M152.6 0 C167.51 1.98, 175.53 5.35, 173.6 21 M173.6 21 C174.23 31.78, 174.66 41.23, 173.6 63 M173.6 21 C173.96 35.35, 174.73 51.77, 173.6 63 M173.6 63 C171.62 78.95, 166.14 82.14, 152.6 84 M173.6 63 C175.1 78.99, 164.52 84.93, 152.6 84 M152.6 84 C118.05 81.45, 80.74 84.59, 21 84 M152.6 84 C109.33 84.69, 64.81 83.64, 21 84 M21 84 C8.63 84.12, -0.29 75.21, 0 63 M21 84 C7.83 83.53, 1.29 77.92, 0 63 M0 63 C1.48 47.74, 0.49 35.28, 0 21 M0 63 C-0.7 47.87, 0.16 31.54, 0 21 M0 21 C-1 7.77, 6.33 -1.33, 21 0 M0 21 C-1.18 5.55, 8.83 -1.89, 21 0" stroke="#ced4da" stroke-width="1" fill="none"/></g><g stroke-linecap="round" transform="translate(1039.8182539682539 465.9662698412698) rotate(0 210 24)"><path d="M12 0 C151.87 1.04, 290.75 2.16, 408 0 C412.75 1.69, 416.61 2.39, 420 12 C418.43 15.5, 420.47 20.74, 420 36 C422.88 46.87, 418.92 44.75, 408 48 C324.94 49.44, 238.06 46.29, 12 48 C5.53 47.18, 2.01 47.3, 0 36 C3.25 23.89, 0.8 21.04, 0 12 C1.16 5.53, 0.79 0.71, 12 0" stroke="none" stroke-width="0" fill="#fff9db"/><path d="M12 0 C155.99 -0.39, 297.75 -0.84, 408 0 M12 0 C151.66 1.36, 291.66 1.91, 408 0 M408 0 C415.17 0.18, 419.25 4.79, 420 12 M408 0 C417.98 1.93, 418.35 3.03, 420 12 M420 12 C420.13 20.78, 418.75 28.8, 420 36 M420 12 C419.44 21.98, 420.89 29.41, 420 36 M420 36 C421.95 43.54, 414.14 49.31, 408 48 M420 36 C421.99 41.92, 416.93 47.24, 408 48 M408 48 C301.21 47.69, 197.24 48.99, 12 48 M408 48 C273.43 48.19, 138.11 49.06, 12 48 M12 48 C4.12 47.71, -1.79 44.72, 0 36 M12 48 C3.53 49.29, 0.92 44.6, 0 36 M0 36 C-1.6 29.87, -0.38 24.33, 0 12 M0 36 C0.26 30.37, -0.74 24.52, 0 12 M0 12 C0.77 3.33, 2.67 -1.03, 12 0 M0 12 C-1.45 5.83, 2.11 -1.25, 12 0" stroke="#ced4da" stroke-width="1" fill="none"/></g><g stroke-linecap="round" transform="translate(700.818253968254 255.96626984126982) rotate(0 115 24)"><path d="M12 0 C88.6 -0.71, 165.89 -3.77, 218 0 C227.69 -3.39, 228.39 2.16, 230 12 C227.16 19.18, 226.43 28.1, 230 36 C232.87 46.92, 222.75 44.86, 218 48 C148.07 47.84, 71.02 51.32, 12 48 C3.18 50.01, 3.3 46.79, 0 36 C-2.95 28.06, 3.26 19, 0 12 C1.53 0.79, 4.71 3.46, 12 0" stroke="none" stroke-width="0" fill="#fff9db"/><path d="M12 0 C60.62 -2.17, 108.71 -0.41, 218 0 M12 0 C74.45 0.54, 138.15 -0.23, 218 0 M218 0 C226.18 -0.75, 230.79 5.72, 230 12 M218 0 C227.93 -1.65, 229.03 4.61, 230 12 M230 12 C231.01 19.65, 231.2 31.85, 230 36 M230 12 C230.78 20.79, 229.01 28.94, 230 36 M230 36 C229.54 42.14, 227.31 49.73, 218 48 M230 36 C227.92 44.93, 225.24 47.24, 218 48 M218 48 C166.99 47.59, 119.45 47.09, 12 48 M218 48 C148.87 47.78, 81.74 48.53, 12 48 M12 48 C3.71 46.21, 0.72 43.59, 0 36 M12 48 C5.29 48.92, 0.6 43.32, 0 36 M0 36 C0.2 28.05, 1.14 19.33, 0 12 M0 36 C0.1 28.54, -0.26 23.04, 0 12 M0 12 C-0.67 2.67, 2.97 -1.26, 12 0 M0 12 C1.83 2.11, 2.75 1.19, 12 0" stroke="#ced4da" stroke-width="1" fill="none"/></g><g stroke-linecap="round" transform="translate(1039.8182539682539 440.9662698412698) rotate(0 235 15)"><path d="M7.5 0 C140.13 0.21, 271.04 -0.48, 462.5 0 C464.11 -1.61, 468.16 1.62, 470 7.5 C470.32 8.32, 472.05 16.09, 470 22.5 C472.92 24.25, 464.36 31.81, 462.5 30 C324.79 31.29, 190.07 32.32, 7.5 30 C4.51 33.3, 2.79 30.32, 0 22.5 C0.59 20.73, 0.6 15.37, 0 7.5 C-3.21 3.21, 5.96 2.86, 7.5 0" stroke="none" stroke-width="0" fill="#fff9db"/><path d="M7.5 0 C149.03 -0.26, 291.93 0.26, 462.5 0 M7.5 0 C111.62 1.23, 215.12 1.04, 462.5 0 M462.5 0 C466.75 0.79, 471.72 4.18, 470 7.5 M462.5 0 C465.85 -0.97, 470.61 4.31, 470 7.5 M470 7.5 C468.92 13.24, 471.25 17.77, 470 22.5 M470 7.5 C470.51 11.27, 470.64 16.36, 470 22.5 M470 22.5 C468.14 28.81, 469.23 28.19, 462.5 30 M470 22.5 C470.93 26.74, 466.74 28.63, 462.5 30 M462.5 30 C313.87 28.51, 164.32 28.53, 7.5 30 M462.5 30 C313.66 28.84, 165.6 28.38, 7.5 30 M7.5 30 C0.71 30.72, -0.41 28.62, 0 22.5 M7.5 30 C3.42 30.6, -0.68 27.9, 0 22.5 M0 22.5 C-0.13 17.96, -0.95 11.14, 0 7.5 M0 22.5 C-0.62 19.12, 0.26 16.24, 0 7.5 M0 7.5 C-1.33 1.47, 1.24 1.59, 7.5 0 M0 7.5 C-1.89 1.25, 3.69 1.53, 7.5 0" stroke="#ced4da" stroke-width="1" fill="none"/></g><g stroke-linecap="round" transform="translate(739.818253968254 710.9662698412699) rotate(0 140 24)"><path d="M12 0 C98.12 -2.81, 180.53 -2.92, 268 0 C274.39 -1.84, 279.12 0.92, 280 12 C276.5 21.1, 282.57 27.37, 280 36 C276.75 40.86, 277.81 48.01, 268 48 C173.63 46.78, 83.41 47.17, 12 48 C7.3 50.79, 2.82 43.13, 0 36 C3.52 27.57, 1.89 13.6, 0 12 C0.71 7.46, 6.86 0.2, 12 0" stroke="none" stroke-width="0" fill="#fff9db"/><path d="M12 0 C106.91 1.8, 203.5 -0.21, 268 0 M12 0 C87.23 -1.26, 161.75 -1.23, 268 0 M268 0 C276.79 1.72, 281.68 2.56, 280 12 M268 0 C275.03 0.61, 281.81 4.6, 280 12 M280 12 C281.25 20.79, 280.77 26.28, 280 36 M280 12 C279.2 18.65, 279.96 22.43, 280 36 M280 36 C281.31 45.73, 274.19 48.81, 268 48 M280 36 C279.24 43.24, 274.63 48.65, 268 48 M268 48 C214.38 50.06, 160.29 49.84, 12 48 M268 48 C185.23 46.43, 101.03 45.66, 12 48 M12 48 C4.72 47.59, 1.12 44.8, 0 36 M12 48 C4.6 47.32, 0.4 45.55, 0 36 M0 36 C1.26 29.25, -0.48 23.35, 0 12 M0 36 C-0.46 28.68, -0.3 19.93, 0 12 M0 12 C-1.03 2.74, 5.59 -1.64, 12 0 M0 12 C-1.25 5.19, 5.53 -0.2, 12 0" stroke="#ced4da" stroke-width="1" fill="none"/></g><g stroke-linecap="round" transform="translate(600.818253968254 790.9662698412699) rotate(0 190 24)"><path d="M12 0 C128.49 -2.5, 246.98 -4.62, 368 0 C374.16 -0.88, 376.92 2.54, 380 12 C382.95 20.42, 382.99 19.86, 380 36 C376.86 45.81, 376.01 50.13, 368 48 C237.42 44.07, 106.17 46.71, 12 48 C6.79 50.82, -0.87 47.59, 0 36 C1.03 32.36, -3.35 26.37, 0 12 C3.46 6.86, 4.2 1.25, 12 0" stroke="none" stroke-width="0" fill="#fff9db"/><path d="M12 0 C115.93 1.2, 217.58 1.03, 368 0 M12 0 C102.18 -1.06, 192.65 -0.86, 368 0 M368 0 C377.72 1.68, 378.56 3.16, 380 12 M368 0 C376.61 1.81, 380.6 3.93, 380 12 M380 12 C381.49 20.99, 379.85 27.41, 380 36 M380 12 C381.17 20.84, 379.26 30.8, 380 36 M380 36 C381.73 42.19, 376.81 47.34, 368 48 M380 36 C379.24 42.63, 376.65 45.96, 368 48 M368 48 C291.03 49.12, 213.38 49.03, 12 48 M368 48 C286.73 49.77, 204.8 50.09, 12 48 M12 48 C3.59 49.12, 0.8 44.52, 0 36 M12 48 C3.32 48.4, 1.55 42.21, 0 36 M0 36 C-1.38 27.93, -1.95 21.15, 0 12 M0 36 C0.57 28.81, -0.47 21.77, 0 12 M0 12 C-1.26 5.59, 2.36 -1.08, 12 0 M0 12 C1.19 5.53, 3.8 0.61, 12 0" stroke="#ced4da" stroke-width="1" fill="none"/></g><g stroke-linecap="round" transform="translate(1008.818253968254 590.9662698412699) rotate(0 125 25)"><path d="M12.5 0 C82.6 0.23, 148.42 1.56, 237.5 0 C244.95 -3.08, 248.54 1.7, 250 12.5 C252.47 23.32, 246.35 25.16, 250 37.5 C251.81 45.84, 247.97 52.5, 237.5 50 C184.16 53.21, 135.07 53.87, 12.5 50 C6.99 49.13, 3.59 42.78, 0 37.5 C1.13 26, 0.31 24.38, 0 12.5 C2.86 4.37, 5.42 0.49, 12.5 0" stroke="none" stroke-width="0" fill="#fff9db"/><path d="M12.5 0 C69.77 -2.25, 126.72 -1.81, 237.5 0 M12.5 0 C90.16 0.48, 167.99 1.54, 237.5 0 M237.5 0 C247.51 -1.44, 249.16 4.69, 250 12.5 M237.5 0 C247.65 0.6, 249.93 5.26, 250 12.5 M250 12.5 C250.79 18.22, 248.87 25.47, 250 37.5 M250 12.5 C249.52 21.09, 250.41 32.41, 250 37.5 M250 37.5 C248.19 46.64, 245.17 49.34, 237.5 50 M250 37.5 C248.63 46.48, 243.8 48.11, 237.5 50 M237.5 50 C155.16 51.23, 72.16 49.55, 12.5 50 M237.5 50 C187.53 49.35, 138.11 49.94, 12.5 50 M12.5 50 C5.28 50.8, 0.52 45.24, 0 37.5 M12.5 50 C4.57 51.55, -1.79 46.25, 0 37.5 M0 37.5 C-0.6 28.42, 0.26 23.05, 0 12.5 M0 37.5 C-0.21 31.31, -0.39 25.82, 0 12.5 M0 12.5 C1.59 2.52, 3.08 1.04, 12.5 0 M0 12.5 C1.53 3.97, 4.78 0.76, 12.5 0" stroke="#ced4da" stroke-width="1" fill="none"/></g><g stroke-linecap="round" transform="translate(1008.818253968254 690.9662698412699) rotate(0 165 24)"><path d="M12 0 C128.11 -3.04, 247.79 -2.51, 318 0 C322.92 -1.46, 327.53 4.57, 330 12 C333.27 13.81, 327.21 23.94, 330 36 C330.01 46.13, 328.5 45.62, 318 48 C253.04 49.48, 187.19 49.13, 12 48 C3.13 51.59, -3.05 45.14, 0 36 C-3.35 27.41, 3.32 20.26, 0 12 C0.2 5.25, 4.49 -0.67, 12 0" stroke="none" stroke-width="0" fill="#fff9db"/><path d="M12 0 C87.58 -0.22, 164.57 0.53, 318 0 M12 0 C118.5 0.08, 226.16 0.4, 318 0 M318 0 C324.56 -0.84, 330.53 5.58, 330 12 M318 0 C326.6 -0.07, 331.09 2.35, 330 12 M330 12 C330.22 19.29, 331.76 30.74, 330 36 M330 12 C329.3 17.48, 331.1 20.74, 330 36 M330 36 C330.81 43.34, 325.34 46.81, 318 48 M330 36 C330.65 41.96, 324.11 49.57, 318 48 M318 48 C217.14 49.09, 114.49 47.58, 12 48 M318 48 C200.58 47.94, 84.31 48.09, 12 48 M12 48 C4.8 48.52, -0.59 44.35, 0 36 M12 48 C5.55 46.21, 0.42 43.62, 0 36 M0 36 C-1.82 27.65, -0.11 16.89, 0 12 M0 36 C-0.76 29.48, -0.72 24.79, 0 12 M0 12 C-1.64 2.92, 5.04 1.33, 12 0 M0 12 C-0.2 4.61, 4.76 0.12, 12 0" stroke="#ced4da" stroke-width="1" fill="none"/></g><g stroke-linecap="round" transform="translate(716.818253968254 418.9662698412698) rotate(0 90 15)"><path d="M7.5 0 C40.49 0.95, 75.82 -0.28, 172.5 0 C176.04 -2.47, 180.57 -0.7, 180 7.5 C177.78 10.85, 181.57 18.9, 180 22.5 C182.13 30, 175.12 27.01, 172.5 30 C119.27 34.44, 62.25 30.78, 7.5 30 C6.09 26.95, 1.14 30.65, 0 22.5 C0.41 20.11, 2.03 12.68, 0 7.5 C1.25 2.99, 1.83 0.76, 7.5 0" stroke="none" stroke-width="0" fill="#fff9db"/><path d="M7.5 0 C65.56 0.26, 124.81 2.16, 172.5 0 M7.5 0 C50.59 1.48, 93.72 -0.1, 172.5 0 M172.5 0 C176.66 0.53, 181.58 3.02, 180 7.5 M172.5 0 C177.43 1.09, 178.35 3.8, 180 7.5 M180 7.5 C179.1 14.42, 181.26 17.51, 180 22.5 M180 7.5 C180.46 14.11, 179.29 19.73, 180 22.5 M180 22.5 C179.34 26.84, 176.31 30.56, 172.5 30 M180 22.5 C177.96 25.61, 179.07 30.71, 172.5 30 M172.5 30 C116.89 29, 58.67 32.07, 7.5 30 M172.5 30 C122.37 28.32, 72.08 28.92, 7.5 30 M7.5 30 C3.02 29.41, 0.35 28.85, 0 22.5 M7.5 30 C0.71 30.42, -0.38 29, 0 22.5 M0 22.5 C0.35 18.86, -1.15 14.89, 0 7.5 M0 22.5 C-0.34 16.95, 0.65 11.73, 0 7.5 M0 7.5 C-1.08 3.54, 3.83 -0.17, 7.5 0 M0 7.5 C0.61 3.26, 2.62 2.01, 7.5 0" stroke="#ced4da" stroke-width="1" fill="none"/></g><g stroke-linecap="round" transform="translate(700.818253968254 320.9662698412698) rotate(0 65 15)"><path d="M7.5 0 C45.56 0.04, 84.24 -0.54, 122.5 0 C125.03 0.57, 126.8 5.38, 130 7.5 C127.87 14.55, 130.22 20.49, 130 22.5 C132.5 25.12, 124.51 31.53, 122.5 30 C93.41 34.72, 57.88 35.49, 7.5 30 C-0.55 31.14, 3.15 28.66, 0 22.5 C2.84 19.51, 0.39 13.16, 0 7.5 C0.49 1.83, 3.26 1.08, 7.5 0" stroke="none" stroke-width="0" fill="#fff9db"/><path d="M7.5 0 C41.67 0.98, 78.66 -0.74, 122.5 0 M7.5 0 C43.91 0.39, 77.89 -0.87, 122.5 0 M122.5 0 C128.03 1.58, 130.52 2.44, 130 7.5 M122.5 0 C128.59 -1.65, 131.3 4.42, 130 7.5 M130 7.5 C131.17 13.7, 128.51 18.94, 130 22.5 M130 7.5 C130.51 10.97, 130.16 15.56, 130 22.5 M130 22.5 C129.34 26.31, 128.06 28.23, 122.5 30 M130 22.5 C128.11 29.07, 128.21 30.92, 122.5 30 M122.5 30 C82.83 28.73, 47.66 30.42, 7.5 30 M122.5 30 C89.45 30.97, 57.21 30.68, 7.5 30 M7.5 30 C1.91 30.35, 1.35 25.94, 0 22.5 M7.5 30 C2.92 29.62, 1.5 25.86, 0 22.5 M0 22.5 C-0.06 17.15, -0.6 14.73, 0 7.5 M0 22.5 C-0.37 19.1, -0.52 14.09, 0 7.5 M0 7.5 C1.04 3.83, 2.33 0.53, 7.5 0 M0 7.5 C0.76 2.62, 4.51 -2.08, 7.5 0" stroke="#ced4da" stroke-width="1" fill="none"/></g><g transform="translate(10 10) rotate(0 180.21875 18.4)"><text x="0" y="27.040625" font-family="Helvetica, Segoe UI Emoji" font-size="32px" fill="#1971c2" text-anchor="start" style="white-space: pre;" direction="ltr" dominant-baseline="alphabetic">Webview Communication</text></g><g transform="translate(21.25 51.875) rotate(0 245.1318359375 11.5)"><text x="0" y="16.900390625" font-family="Helvetica, Segoe UI Emoji" font-size="20px" fill="#868e96" text-anchor="start" style="white-space: pre;" direction="ltr" dominant-baseline="alphabetic">Two isolated JS contexts coordinating via postMessage</text></g><g stroke-linecap="round" transform="translate(48.75 193.125) rotate(0 275 350)"><path d="M32 0 C155.12 -0.93, 278.63 -0.67, 518 0 M518 0 C541.05 1.68, 548.56 9.83, 550 32 M550 32 C551.98 239.97, 551.43 447.63, 550 668 M550 668 C551.67 689.99, 539.35 698.73, 518 700 M518 700 C335.08 697.77, 149.72 698.52, 32 700 M32 700 C12.4 698.19, 0.81 688.67, 0 668 M0 668 C0.8 497.46, 2.06 328.49, 0 32 M0 32 C0.8 11.32, 11.19 0.52, 32 0" stroke="#1971c2" stroke-width="2.5" fill="none" stroke-dasharray="8 10"/></g><g transform="translate(27.5 121.25) rotate(0 121.66064453125 12.649999999999999)"><text x="0" y="18.5904296875" font-family="Helvetica, Segoe UI Emoji" font-size="22px" fill="#1971c2" text-anchor="start" style="white-space: pre;" direction="ltr" dominant-baseline="alphabetic">Extension Host (Node.js)</text></g><g stroke-linecap="round" transform="translate(42.5 188.125) rotate(0 100 30.000000000000007)"><path d="M15 0 C52.04 -1.1, 90.82 4.97, 185 0 C197.92 -3.25, 196.86 6.81, 200 15 C197.94 21.02, 201.85 32.19, 200 45 C202.01 58.3, 197.79 62.82, 185 60 C139.27 60.56, 92.42 58.93, 15 60 C1.79 60.71, 3.46 57.86, 0 45 C-0.86 36.59, 0.89 27.49, 0 15 C1.34 7.82, 2.73 2.8, 15 0" stroke="none" stroke-width="0" fill="#d0ebff"/><path d="M15 0 C73.57 0.63, 135.35 1.52, 185 0 M15 0 C54.56 -0.19, 92.52 0.03, 185 0 M185 0 C193.56 1.13, 201.67 5.65, 200 15 M185 0 C195.02 -1.46, 201.8 6.86, 200 15 M200 15 C198.43 22.34, 202.02 25.24, 200 45 M200 15 C199.31 25.5, 199.01 34.61, 200 45 M200 45 C201.37 55.62, 195.8 60.65, 185 60 M200 45 C200.6 55.6, 193.35 58.2, 185 60 M185 60 C118.34 60.48, 54.84 60.87, 15 60 M185 60 C127.35 60.17, 68.57 59.68, 15 60 M15 60 C4.67 61.3, -1.42 54.56, 0 45 M15 60 C2.71 60.48, -0.33 53.19, 0 45 M0 45 C-1.44 36.47, -1.37 31.58, 0 15 M0 45 C0.83 38.38, 0.43 32.26, 0 15 M0 15 C0.1 6.75, 3.19 0.94, 15 0 M0 15 C-2.17 3.97, 3.82 -0.56, 15 0" stroke="#1971c2" stroke-width="2" fill="none"/></g><g transform="translate(72.5 206.25) rotate(0 36.90625 9.200000000000003)"><text x="0" y="13.5203125" font-family="Helvetica, Segoe UI Emoji" font-size="16px" fill="#1971c2" text-anchor="start" style="white-space: pre;" direction="ltr" dominant-baseline="alphabetic">provider.ts</text></g><g transform="translate(38.75 264.125) rotate(0 58.6953125 9.200000000000003)"><text x="0" y="13.5203125" font-family="Helvetica, Segoe UI Emoji" font-size="16px" fill="#868e96" text-anchor="start" style="white-space: pre;" direction="ltr" dominant-baseline="alphabetic">Message Router</text></g><g stroke-linecap="round" transform="translate(42.5 313.125) rotate(0 100 30)"><path d="M15 0 C71.57 0.48, 119.15 -5.58, 185 0 C196.81 0.01, 202.13 7.5, 200 15 C198.73 24.03, 202.85 31.82, 200 45 C202.82 54.13, 198.59 56.95, 185 60 C130.15 57.78, 72.95 64.45, 15 60 C7.86 60.2, 1.25 55.49, 0 45 C0.71 37.9, 2.7 25.85, 0 15 C2.8 7.56, 1.89 -2.83, 15 0" stroke="none" stroke-width="0" fill="#d0ebff"/><path d="M15 0 C61.34 -2.9, 103.47 -0.94, 185 0 M15 0 C79.87 -0.67, 144.35 0.88, 185 0 M185 0 C195.65 0.02, 198.73 6.56, 200 15 M185 0 C196.86 -2.28, 202.24 4.47, 200 15 M200 15 C198.39 22.01, 199.53 26.75, 200 45 M200 15 C199.26 22.9, 200.39 29.83, 200 45 M200 45 C200.65 55.53, 195.52 58.57, 185 60 M200 45 C198.2 56.88, 195.14 59.67, 185 60 M185 60 C150.35 60.45, 113.99 59.06, 15 60 M185 60 C131.2 58.51, 77.69 57.96, 15 60 M15 60 C4.56 58.01, 0.42 54.72, 0 45 M15 60 C3.19 58.85, 0.88 54.23, 0 45 M0 45 C1.74 36.35, -0.93 32.02, 0 15 M0 45 C0.36 34.05, 0.9 22.09, 0 15 M0 15 C0.94 3.12, 4.11 -1.02, 15 0 M0 15 C-0.56 3.03, 4.07 -1.58, 15 0" stroke="#1971c2" stroke-width="2" fill="none"/></g><g transform="translate(82.5 331.25) rotate(0 35.5703125 9.199999999999989)"><text x="0" y="13.5203125" font-family="Helvetica, Segoe UI Emoji" font-size="16px" fill="#1971c2" text-anchor="start" style="white-space: pre;" direction="ltr" dominant-baseline="alphabetic">installer.ts</text></g><g stroke-linecap="round" transform="translate(348.75 205.625) rotate(0 124.99999999999999 100)"><path d="M32 0 C99.42 -5.86, 175.15 -2.71, 218 0 C241.47 2.5, 247.62 7.68, 250 32 C252.74 81.38, 252.26 124.32, 250 168 C253.59 186.28, 240.47 203.15, 218 200 C156.9 200.48, 97.25 197.22, 32 200 C11.92 200.49, -0.67 190.09, 0 168 C2.25 120.85, 2.24 80.8, 0 32 C-3.11 7.84, 12.37 1.46, 32 0" stroke="none" stroke-width="0" fill="#d3f9d8"/><path d="M32 0 C102.97 1.87, 177.19 1.86, 218 0 M32 0 C87.81 2.17, 142.82 1.35, 218 0 M218 0 C238.07 1.56, 251.62 8.68, 250 32 M218 0 C241.57 -0.53, 247.86 12.17, 250 32 M250 32 C248.11 83.92, 247.58 137.72, 250 168 M250 32 C249.19 61.15, 249.2 89.76, 250 168 M250 168 C250.52 187.9, 237.76 201.63, 218 200 M250 168 C250.14 189, 237.27 200.83, 218 200 M218 200 C166.54 200.15, 114.39 202.1, 32 200 M218 200 C177.36 198.98, 135.21 198.69, 32 200 M32 200 C11.08 199.72, -1.58 188.34, 0 168 M32 200 C11.55 199.23, -1.53 188.15, 0 168 M0 168 C-2.17 136.79, 0.25 103.32, 0 32 M0 168 C0.42 122.69, 0.02 78.25, 0 32 M0 32 C-0.89 9.64, 10.18 -1.71, 32 0 M0 32 C-0.93 9.09, 11.03 -2.05, 32 0" stroke="#2f9e44" stroke-width="2" fill="none"/></g><g transform="translate(342.5 189.375) rotate(0 35.128906249999986 9.199999999999996)"><text x="0" y="13.5203125" font-family="Helvetica, Segoe UI Emoji" font-size="16px" fill="#2f9e44" text-anchor="start" style="white-space: pre;" direction="ltr" dominant-baseline="alphabetic">API Layer</text></g><g transform="translate(352.5 646.375) rotate(0 58.691406249999986 46)"><text x="0" y="13.5203125" font-family="Helvetica, Segoe UI Emoji" font-size="16px" fill="#2f9e44" text-anchor="start" style="white-space: pre;" direction="ltr" dominant-baseline="alphabetic">search.ts</text><text x="0" y="31.920312499999998" font-family="Helvetica, Segoe UI Emoji" font-size="16px" fill="#2f9e44" text-anchor="start" style="white-space: pre;" direction="ltr" dominant-baseline="alphabetic">github.ts</text><text x="0" y="50.3203125" font-family="Helvetica, Segoe UI Emoji" font-size="16px" fill="#2f9e44" text-anchor="start" style="white-space: pre;" direction="ltr" dominant-baseline="alphabetic">detail-scraper.ts</text><text x="0" y="68.72031249999999" font-family="Helvetica, Segoe UI Emoji" font-size="16px" fill="#2f9e44" text-anchor="start" style="white-space: pre;" direction="ltr" dominant-baseline="alphabetic">audits-scraper.ts</text><text x="0" y="87.1203125" font-family="Helvetica, Segoe UI Emoji" font-size="16px" fill="#2f9e44" text-anchor="start" style="white-space: pre;" direction="ltr" dominant-baseline="alphabetic">docs-scraper.ts</text></g><g stroke-linecap="round" transform="translate(348.75 475.625) rotate(0 124.99999999999999 30)"><path d="M15 0 C61.14 0.12, 109.45 -3.79, 235 0 C242.01 1.53, 249.18 7.01, 250 15 C249.54 30.34, 247.37 39.64, 250 45 C253.15 56.16, 246.53 56.79, 235 60 C164.86 63.81, 94.81 62.15, 15 60 C5.76 61.08, 0.83 56.34, 0 45 C2.9 30.54, -2.49 24, 0 15 C1.46 7.84, 4.41 -3.02, 15 0" stroke="none" stroke-width="0" fill="#f1f3f5"/><path d="M15 0 C72.21 -1.55, 129.34 -2.75, 235 0 M15 0 C93.48 -1.17, 172.62 0.08, 235 0 M235 0 C243.02 1.95, 249.54 3.14, 250 15 M235 0 C246.5 1.99, 247.92 5.93, 250 15 M250 15 C250.46 21.23, 248.25 32.37, 250 45 M250 15 C250.38 25.18, 249.4 34.07, 250 45 M250 45 C251.63 55.12, 244.71 58.21, 235 60 M250 45 C250.83 54.53, 246.29 60.92, 235 60 M235 60 C164.44 58.98, 91.84 60.04, 15 60 M235 60 C153.8 59.76, 74.2 58.9, 15 60 M15 60 C4 60.77, -0.67 53.67, 0 45 M15 60 C3.82 58.55, 1.83 53.11, 0 45 M0 45 C-0.33 38.16, 0.51 30.36, 0 15 M0 45 C-0.67 32.93, -0.24 21.51, 0 15 M0 15 C-1.71 4.19, 3.63 0.32, 15 0 M0 15 C-2.05 6.84, 6.83 1.87, 15 0" stroke="#868e96" stroke-width="2" fill="none"/></g><g transform="translate(408.75 493.75) rotate(0 48.91796875 9.199999999999989)"><text x="0" y="13.5203125" font-family="Helvetica, Segoe UI Emoji" font-size="16px" fill="#343a40" text-anchor="start" style="white-space: pre;" direction="ltr" dominant-baseline="alphabetic">ApiCache&lt;T&gt;</text></g><g transform="translate(345 647) rotate(0 92.93749999999999 18.399999999999977)"><text x="0" y="13.5203125" font-family="Helvetica, Segoe UI Emoji" font-size="16px" fill="#495057" text-anchor="start" style="white-space: pre;" direction="ltr" dominant-baseline="alphabetic">Generic TTL-based cache</text><text x="0" y="31.920312499999998" font-family="Helvetica, Segoe UI Emoji" font-size="16px" fill="#495057" text-anchor="start" style="white-space: pre;" direction="ltr" dominant-baseline="alphabetic">shared by all API modules</text></g><g stroke-linecap="round" transform="translate(42.5 433.125) rotate(0 100 60)"><path d="M30 0 C69.65 -4.74, 115.58 -2.57, 170 0 C192.01 3.3, 202.79 12.82, 200 30 C202.22 49.69, 202.24 64.61, 200 90 C196.79 110.71, 193.46 122.86, 170 120 C126.55 121.1, 85.52 121.17, 30 120 C11.34 122.82, -2.27 112.8, 0 90 C2.63 69.2, 3.78 44.88, 0 30 C-3.02 11.39, 7.92 -1.5, 30 0" stroke="none" stroke-width="0" fill="#f8f9fa"/><path d="M30 0 C74.19 0.47, 122.92 -0.01, 170 0 M30 0 C72.95 -2.08, 115.27 -1.32, 170 0 M170 0 C188.14 1.31, 201.73 8.19, 200 30 M170 0 C190.93 -0.76, 199.24 8.63, 200 30 M200 30 C200.84 50.3, 200.27 70.02, 200 90 M200 30 C199.37 50.39, 200.22 69.01, 200 90 M200 90 C198.21 110.72, 189.59 121.12, 170 120 M200 90 C200.92 110.6, 189.32 120.4, 170 120 M170 120 C118.2 121.56, 65.65 119.82, 30 120 M170 120 C141.16 119.3, 114.29 119.47, 30 120 M30 120 C8.67 118.97, -1.26 111.59, 0 90 M30 120 C8.11 118.75, 1.19 111.53, 0 90 M0 90 C-0.06 74.27, -1.96 55.99, 0 30 M0 90 C0.02 76.79, -0.14 64.61, 0 30 M0 30 C0.32 8.22, 11.6 1.59, 30 0 M0 30 C1.87 7.92, 8 1.16, 30 0" stroke="#343a40" stroke-width="2" fill="none"/></g><g transform="translate(36.25 426.875) rotate(0 18.6796875 9.199999999999989)"><text x="0" y="13.5203125" font-family="Helvetica, Segoe UI Emoji" font-size="16px" fill="#343a40" text-anchor="start" style="white-space: pre;" direction="ltr" dominant-baseline="alphabetic">State</text></g><g transform="translate(52.5 664.5) rotate(0 64.9296875 27.600000000000023)"><text x="0" y="13.5203125" font-family="Helvetica, Segoe UI Emoji" font-size="16px" fill="#343a40" text-anchor="start" style="white-space: pre;" direction="ltr" dominant-baseline="alphabetic">installedNames[]</text><text x="0" y="31.920312499999998" font-family="Helvetica, Segoe UI Emoji" font-size="16px" fill="#343a40" text-anchor="start" style="white-space: pre;" direction="ltr" dominant-baseline="alphabetic">updatableNames[]</text><text x="0" y="50.3203125" font-family="Helvetica, Segoe UI Emoji" font-size="16px" fill="#343a40" text-anchor="start" style="white-space: pre;" direction="ltr" dominant-baseline="alphabetic">installedSkills[]</text></g><g stroke-linecap="round" transform="translate(1011.25 193.125) rotate(0 275.00000000000006 350)"><path d="M32 0 C143.14 -1.71, 253.2 -1.05, 518 0 M518 0 C540.95 -1.98, 551.95 10.2, 550 32 M550 32 C550.94 163.84, 551.4 294.76, 550 668 M550 668 C548.81 689.9, 537.56 698.35, 518 700 M518 700 C339.23 701.05, 160.12 700.22, 32 700 M32 700 C9.1 701.63, 0.12 689.05, 0 668 M0 668 C-0.47 534.52, -0.71 400.15, 0 32 M0 32 C0.35 12.02, 9.11 0.36, 32 0" stroke="#e8590c" stroke-width="2.5" fill="none" stroke-dasharray="8 10"/></g><g transform="translate(990 121.25) rotate(0 131.84960937500006 12.649999999999999)"><text x="0" y="18.5904296875" font-family="Helvetica, Segoe UI Emoji" font-size="22px" fill="#e8590c" text-anchor="start" style="white-space: pre;" direction="ltr" dominant-baseline="alphabetic">Webview Sandbox (iframe)</text></g><g stroke-linecap="round" transform="translate(1007.5 188.125) rotate(0 110.00000000000006 30.000000000000007)"><path d="M15 0 C83.4 0.88, 148.03 -2.78, 205 0 C218.59 -3.05, 221.14 8.15, 220 15 C220.93 28.43, 223.09 35.14, 220 45 C221.25 55.49, 214.33 60.76, 205 60 C145.11 59.01, 82.39 63.83, 15 60 C1.89 57.17, 1.7 56.46, 0 45 C1.48 31.56, -1.41 21.74, 0 15 C3.3 8.13, 1.91 2.55, 15 0" stroke="none" stroke-width="0" fill="#ffe8cc"/><path d="M15 0 C86.56 1.54, 162.28 -2, 205 0 M15 0 C91.17 2.64, 165.12 2.18, 205 0 M205 0 C214.34 -0.66, 218.81 5.56, 220 15 M205 0 C212.96 -1.89, 221.57 5.71, 220 15 M220 15 C220.62 23.77, 218.53 37.04, 220 45 M220 15 C220.32 23.97, 220.52 33.76, 220 45 M220 45 C220.52 54.41, 215.35 61.35, 205 60 M220 45 C218.21 55.42, 214.62 61.5, 205 60 M205 60 C161.95 57.82, 116.49 57.11, 15 60 M205 60 C140.18 58.11, 77.18 57.92, 15 60 M15 60 C3.92 61.04, 1.33 54.83, 0 45 M15 60 C5.61 60.76, 0.12 57.01, 0 45 M0 45 C-1.04 37.68, -0.63 30.71, 0 15 M0 45 C-0.68 38.02, 1 30.25, 0 15 M0 15 C-1.81 3.26, 6.01 0, 15 0 M0 15 C1.36 6.6, 3.48 -1.91, 15 0" stroke="#e8590c" stroke-width="2" fill="none"/></g><g transform="translate(1037.5 206.25) rotate(0 60.90234375000006 9.200000000000003)"><text x="0" y="13.5203125" font-family="Helvetica, Segoe UI Emoji" font-size="16px" fill="#e8590c" text-anchor="start" style="white-space: pre;" direction="ltr" dominant-baseline="alphabetic">webview-script.ts</text></g><g transform="translate(1027.8182539682539 255.96626984126982) rotate(0 49.3515625 9.200000000000003)"><text x="0" y="13.5203125" font-family="Helvetica, Segoe UI Emoji" font-size="16px" fill="#868e96" text-anchor="start" style="white-space: pre;" direction="ltr" dominant-baseline="alphabetic">Client-side JS</text></g><g stroke-linecap="round" transform="translate(1007.5 313.125) rotate(0 110.00000000000006 30)"><path d="M15 0 C88.55 0.91, 160.8 -1.54, 205 0 C218.15 1.16, 221.53 1.79, 220 15 C220.72 25.84, 221.01 33.5, 220 45 C220.76 56.08, 215.83 61.34, 205 60 C135.69 59.54, 58.44 64.36, 15 60 C6.46 62.84, -0.59 51.98, 0 45 C-0.21 38.14, 3.44 21.6, 0 15 C2.55 3.59, 1.83 -1.62, 15 0" stroke="none" stroke-width="0" fill="#ffe8cc"/><path d="M15 0 C57.97 0.41, 104.45 -3.4, 205 0 M15 0 C84.84 1.39, 153.54 1.12, 205 0 M205 0 C215.56 -1.77, 218.35 6.37, 220 15 M205 0 C215.71 0.92, 220.75 5.6, 220 15 M220 15 C221.42 24.9, 219.5 32.76, 220 45 M220 15 C220.34 25.34, 219.64 35.34, 220 45 M220 45 C221.35 53.44, 215.36 59.67, 205 60 M220 45 C221.5 53.36, 214.5 57.71, 205 60 M205 60 C143.03 59.27, 82.39 57.17, 15 60 M205 60 C156.96 60.97, 111.09 62.18, 15 60 M15 60 C4.83 60.53, 0.66 55.1, 0 45 M15 60 C7.01 57.92, 1.08 52.83, 0 45 M0 45 C-1.56 36.53, -1.22 30, 0 15 M0 45 C0.57 37.77, -1.11 32.84, 0 15 M0 15 C0 6.18, 6.39 -1.32, 15 0 M0 15 C-1.91 5.98, 4.47 1.28, 15 0" stroke="#e8590c" stroke-width="2" fill="none"/></g><g transform="translate(1047.5 331.25) rotate(0 43.12890625000006 9.199999999999989)"><text x="0" y="13.5203125" font-family="Helvetica, Segoe UI Emoji" font-size="16px" fill="#e8590c" text-anchor="start" style="white-space: pre;" direction="ltr" dominant-baseline="alphabetic">templates.ts</text></g><g transform="translate(1002.5 389.125) rotate(0 64.01953125 9.199999999999989)"><text x="0" y="13.5203125" font-family="Helvetica, Segoe UI Emoji" font-size="16px" fill="#868e96" text-anchor="start" style="white-space: pre;" direction="ltr" dominant-baseline="alphabetic">HTML Generators</text></g><g stroke-linecap="round" transform="translate(1320 313.125) rotate(0 110 30)"><path d="M15 0 C68.52 6.05, 120.93 4.43, 205 0 C211.79 0.71, 223.46 7.86, 220 15 C219.52 24.93, 221.27 34.16, 220 45 C221.34 57.82, 212.73 62.8, 205 60 C136.2 58.78, 66.84 56.72, 15 60 C1.98 61.39, -2.08 53.5, 0 45 C-3.58 38.99, -1.91 24.7, 0 15 C-1.62 1.56, 2.91 1.14, 15 0" stroke="none" stroke-width="0" fill="#ffe8cc"/><path d="M15 0 C51.31 1.75, 93.07 -1.37, 205 0 M15 0 C79.11 0.91, 143.53 -0.2, 205 0 M205 0 C216.37 0.62, 220.8 5.65, 220 15 M205 0 C215.6 0.6, 218.35 3.2, 220 15 M220 15 C218.23 27.17, 219.61 39.01, 220 45 M220 15 C220.25 25.88, 219.3 35.59, 220 45 M220 45 C219.67 56.3, 213.58 59.56, 205 60 M220 45 C217.71 55.48, 214.67 58.19, 205 60 M205 60 C156.15 58.34, 108.7 60.96, 15 60 M205 60 C164.28 60.9, 122.5 61.32, 15 60 M15 60 C5.1 61.75, -1.81 55.94, 0 45 M15 60 C2.83 58.97, -1.18 54.44, 0 45 M0 45 C0.44 36.79, 1.72 33.72, 0 15 M0 45 C0.77 33.57, 0.86 22.82, 0 15 M0 15 C-1.32 3.34, 5.85 -0.46, 15 0 M0 15 C1.28 7.11, 6.78 1.8, 15 0" stroke="#e8590c" stroke-width="2" fill="none"/></g><g transform="translate(1360 331.25) rotate(0 28.89453125 9.199999999999989)"><text x="0" y="13.5203125" font-family="Helvetica, Segoe UI Emoji" font-size="16px" fill="#e8590c" text-anchor="start" style="white-space: pre;" direction="ltr" dominant-baseline="alphabetic">styles.ts</text></g><g transform="translate(1312.5 389.125) rotate(0 45.796875 9.199999999999989)"><text x="0" y="13.5203125" font-family="Helvetica, Segoe UI Emoji" font-size="16px" fill="#868e96" text-anchor="start" style="white-space: pre;" direction="ltr" dominant-baseline="alphabetic">CSS (nonce)</text></g><g stroke-linecap="round" transform="translate(1040 440.625) rotate(0 240.00000000000006 40)"><path d="M20 0 C166.69 -2.88, 312.2 0.45, 460 0 C476.19 0.2, 481.25 7.16, 480 20 C480.98 32.6, 482.97 40.24, 480 60 C482.8 75.89, 470.22 77.17, 460 80 C306.95 81.62, 155.18 82.09, 20 80 C5.16 79.47, 3.3 76.47, 0 60 C-3.68 49.81, -3.95 40.76, 0 20 C1.14 7.32, 4.28 2.33, 20 0" stroke="none" stroke-width="0" fill="#f8f9fa"/><path d="M20 0 C110.08 -1.5, 201.63 -2.23, 460 0 M20 0 C125.42 2.29, 231.81 2.15, 460 0 M460 0 C473.98 0.53, 480.52 5.23, 480 20 M460 0 C471.53 1.88, 480.14 6.34, 480 20 M480 20 C481.26 29.22, 480.67 36.24, 480 60 M480 20 C480.45 32.53, 480.92 44.69, 480 60 M480 60 C479.56 71.34, 473.75 79.72, 460 80 M480 60 C478.19 72.19, 474.22 79.23, 460 80 M460 80 C357.98 77.8, 253.83 79.14, 20 80 M460 80 C298.81 80.61, 137.72 80.13, 20 80 M20 80 C7.61 78.12, -0.89 72.31, 0 60 M20 80 C6.1 78.03, -0.93 71.76, 0 60 M0 60 C1.95 48.99, -1.45 32.99, 0 20 M0 60 C0.69 45.33, -0.83 32.4, 0 20 M0 20 C-0.46 7.78, 8.5 1.55, 20 0 M0 20 C1.8 6.11, 8.96 -1.95, 20 0" stroke="#343a40" stroke-width="2" fill="none"/></g><g transform="translate(1049.8182539682539 447.9662698412698) rotate(0 35.875 9.199999999999989)"><text x="0" y="13.5203125" font-family="Helvetica, Segoe UI Emoji" font-size="16px" fill="#343a40" text-anchor="start" style="white-space: pre;" direction="ltr" dominant-baseline="alphabetic">ViewState</text></g><g transform="translate(1049.8182539682539 472.9662698412698) rotate(0 125.109375 18.400000000000006)"><text x="0" y="13.5203125" font-family="Helvetica, Segoe UI Emoji" font-size="16px" fill="#343a40" text-anchor="start" style="white-space: pre;" direction="ltr" dominant-baseline="alphabetic">leaderboard | search-results | detail</text><text x="0" y="31.920312499999998" font-family="Helvetica, Segoe UI Emoji" font-size="16px" fill="#343a40" text-anchor="start" style="white-space: pre;" direction="ltr" dominant-baseline="alphabetic">| installed | audits | docs</text></g><g stroke-linecap="round"><g transform="translate(695.5 230.625) rotate(0 109.5 0)"><path d="M-0.4 -0.39 C36.16 -0.42, 181.9 0.44, 218.29 0.34 M1.59 -1.65 C38.64 -2.09, 184.18 -1.85, 220.62 -1.61" stroke="#1971c2" stroke-width="2" fill="none"/></g><g transform="translate(695.5 230.625) rotate(0 109.5 0)"><path d="M197.1 6.86 C201.34 3.97, 207.49 1.62, 220.62 -1.61 M197.1 6.86 C202.56 5.27, 207.55 3.36, 220.62 -1.61" stroke="#1971c2" stroke-width="2" fill="none"/></g><g transform="translate(695.5 230.625) rotate(0 109.5 0)"><path d="M197.16 -10.24 C201.46 -9.54, 207.59 -8.32, 220.62 -1.61 M197.16 -10.24 C202.73 -8.11, 207.7 -6.3, 220.62 -1.61" stroke="#1971c2" stroke-width="2" fill="none"/></g></g><mask/><g transform="translate(733.75 201.625) rotate(0 52.46875 9.200000000000003)"><text x="0" y="13.5203125" font-family="Helvetica, Segoe UI Emoji" font-size="16px" fill="#1971c2" text-anchor="start" style="white-space: pre;" direction="ltr" dominant-baseline="alphabetic">17 commands:</text></g><g transform="translate(710.818253968254 262.9662698412698) rotate(0 96.94921875 18.400000000000006)"><text x="0" y="13.5203125" font-family="Helvetica, Segoe UI Emoji" font-size="16px" fill="#495057" text-anchor="start" style="white-space: pre;" direction="ltr" dominant-baseline="alphabetic">search, leaderboard, detail,</text><text x="0" y="31.920312499999998" font-family="Helvetica, Segoe UI Emoji" font-size="16px" fill="#495057" text-anchor="start" style="white-space: pre;" direction="ltr" dominant-baseline="alphabetic">install, update, uninstall, ...</text></g><g stroke-linecap="round"><g transform="translate(969.5 418.125) rotate(0 -109.5 0)"><path d="M0.34 -1.06 C-36.26 -0.81, -183.49 0.56, -219.99 0.82 M-0.95 0.99 C-37.14 0.98, -181.42 -0.44, -217.8 -0.87" stroke="#e8590c" stroke-width="2" fill="none"/></g><g transform="translate(969.5 418.125) rotate(0 -109.5 0)"><path d="M-194.21 -9.17 C-202.33 -8.54, -205.49 -4.05, -217.8 -0.87 M-194.21 -9.17 C-201.95 -7, -211.02 -2.65, -217.8 -0.87" stroke="#e8590c" stroke-width="2" fill="none"/></g><g transform="translate(969.5 418.125) rotate(0 -109.5 0)"><path d="M-194.39 7.93 C-202.36 4, -205.47 3.91, -217.8 -0.87 M-194.39 7.93 C-202.12 4.28, -211.13 2.82, -217.8 -0.87" stroke="#e8590c" stroke-width="2" fill="none"/></g></g><mask/><g transform="translate(710.818253968254 327.9662698412698) rotate(0 42.24609375 9.199999999999989)"><text x="0" y="13.5203125" font-family="Helvetica, Segoe UI Emoji" font-size="16px" fill="#e8590c" text-anchor="start" style="white-space: pre;" direction="ltr" dominant-baseline="alphabetic">Responses:</text></g><g transform="translate(710.818253968254 349.9662698412698) rotate(0 95.15625 18.400000000000006)"><text x="0" y="13.5203125" font-family="Helvetica, Segoe UI Emoji" font-size="16px" fill="#495057" text-anchor="start" style="white-space: pre;" direction="ltr" dominant-baseline="alphabetic">searchResult, detailResult,</text><text x="0" y="31.920312499999998" font-family="Helvetica, Segoe UI Emoji" font-size="16px" fill="#495057" text-anchor="start" style="white-space: pre;" direction="ltr" dominant-baseline="alphabetic">updateButtonStates, ...</text></g><g stroke-linecap="round"><g stroke-opacity="0.4" fill-opacity="0.4" transform="translate(705 195.625) rotate(0 0 160)"><path d="M0 0 C-1.41 68.21, -1.39 135.67, 0 320" stroke="#868e96" stroke-width="1.5" fill="none" stroke-dasharray="1.5 7"/></g></g><mask/><g transform="translate(763.75 158.125) rotate(0 47.58203125 9.199999999999996)"><text x="0" y="13.5203125" font-family="Helvetica, Segoe UI Emoji" font-size="16px" fill="#868e96" text-anchor="start" style="white-space: pre;" direction="ltr" dominant-baseline="alphabetic">postMessage</text></g><g stroke-linecap="round" transform="translate(730 680.625) rotate(0 150 50)"><path d="M25 0 C96.01 -0.01, 167.97 -2.96, 275 0 C294.47 2.56, 296.89 5.5, 300 25 C299.78 39.34, 301.75 57.64, 300 75 C298.5 91.14, 294.96 103.13, 275 100 C218.84 97.24, 165.06 96.85, 25 100 C9.47 100.66, -2.39 93.99, 0 75 C2.68 59.5, -3.02 35.41, 0 25 C-2.62 6.19, 9.63 0.09, 25 0" stroke="none" stroke-width="0" fill="#d0ebff"/><path d="M25 0 C117.63 -0.39, 209.63 -1.99, 275 0 M25 0 C80.27 -0.85, 136.07 -0.29, 275 0 M275 0 C292.78 0.8, 300.52 7.74, 300 25 M275 0 C292.07 1.55, 298.21 8.75, 300 25 M300 25 C299.89 37.17, 300.74 53.05, 300 75 M300 25 C299.42 35.39, 299.24 46.48, 300 75 M300 75 C301.59 90.02, 290.58 101.04, 275 100 M300 75 C301.53 91.47, 292.28 100.76, 275 100 M275 100 C199.49 96.62, 121.72 97.32, 25 100 M275 100 C205.57 99.3, 136.53 99.82, 25 100 M25 100 C9.93 101.62, -1.81 89.92, 0 75 M25 100 C9.49 100, 1.36 93.27, 0 75 M0 75 C-0.04 64.42, 2.25 53.16, 0 25 M0 75 C-0.73 56.4, 1 37.48, 0 25 M0 25 C0.85 6.55, 8.73 1.92, 25 0 M0 25 C1.83 8.46, 9.13 0.32, 25 0" stroke="#1971c2" stroke-width="2" fill="none"/></g><g transform="translate(770 683.75) rotate(0 78.26953125 9.199999999999989)"><text x="0" y="13.5203125" font-family="Helvetica, Segoe UI Emoji" font-size="16px" fill="#1971c2" text-anchor="start" style="white-space: pre;" direction="ltr" dominant-baseline="alphabetic">Detail Request Dedup</text></g><g transform="translate(749.818253968254 717.9662698412699) rotate(0 115.625 18.399999999999977)"><text x="0" y="13.5203125" font-family="Helvetica, Segoe UI Emoji" font-size="16px" fill="#343a40" text-anchor="start" style="white-space: pre;" direction="ltr" dominant-baseline="alphabetic">detailRequestId counter</text><text x="0" y="31.920312499999998" font-family="Helvetica, Segoe UI Emoji" font-size="16px" fill="#343a40" text-anchor="start" style="white-space: pre;" direction="ltr" dominant-baseline="alphabetic">Stale responses silently dropped</text></g><g transform="translate(610.818253968254 797.9662698412699) rotate(0 182.5078125 18.399999999999977)"><text x="0" y="13.5203125" font-family="Helvetica, Segoe UI Emoji" font-size="16px" fill="#495057" text-anchor="start" style="white-space: pre;" direction="ltr" dominant-baseline="alphabetic">User clicks Skill A, then B before A loads —</text><text x="0" y="31.920312499999998" font-family="Helvetica, Segoe UI Emoji" font-size="16px" fill="#495057" text-anchor="start" style="white-space: pre;" direction="ltr" dominant-baseline="alphabetic">only B's response renders (prevents race condition)</text></g><g transform="translate(1018.818253968254 597.9662698412699) rotate(0 83.5390625 18.399999999999977)"><text x="0" y="13.5203125" font-family="Helvetica, Segoe UI Emoji" font-size="16px" fill="#495057" text-anchor="start" style="white-space: pre;" direction="ltr" dominant-baseline="alphabetic">CSP: default-src 'none';</text><text x="0" y="31.920312499999998" font-family="Helvetica, Segoe UI Emoji" font-size="16px" fill="#495057" text-anchor="start" style="white-space: pre;" direction="ltr" dominant-baseline="alphabetic">script-src 'nonce-...'</text></g><g transform="translate(1018.818253968254 697.9662698412699) rotate(0 135.63671875 18.399999999999977)"><text x="0" y="13.5203125" font-family="Helvetica, Segoe UI Emoji" font-size="16px" fill="#e03131" text-anchor="start" style="white-space: pre;" direction="ltr" dominant-baseline="alphabetic">Webview cannot fetch() externally —</text><text x="0" y="31.920312499999998" font-family="Helvetica, Segoe UI Emoji" font-size="16px" fill="#e03131" text-anchor="start" style="white-space: pre;" direction="ltr" dominant-baseline="alphabetic">all API calls go through extension host</text></g><g stroke-opacity="0.5" fill-opacity="0.5" stroke-linecap="round" transform="translate(1008.75 580.625) rotate(0 165.00000000000006 50)"><path d="M25 0 C89.04 -1.97, 151.53 -1.2, 305 0 M305 0 C321.26 1.12, 330.8 8.85, 330 25 M330 25 C328.53 38.88, 329.75 53.33, 330 75 M330 75 C328.58 91.23, 319.67 100.42, 305 100 M305 100 C225.57 98.42, 143.94 98.14, 25 100 M25 100 C7.08 101.59, -1.64 90.58, 0 75 M0 75 C0.2 58.07, -0.23 41.57, 0 25 M0 25 C-1.81 9.27, 6.45 -0.89, 25 0" stroke="#868e96" stroke-width="1.5" fill="none" stroke-dasharray="8 9"/></g><g transform="translate(726.818253968254 425.9662698412698) rotate(0 58.24609375 9.199999999999989)"><text x="0" y="13.5203125" font-family="Helvetica, Segoe UI Emoji" font-size="16px" fill="#1971c2" text-anchor="start" style="white-space: pre;" direction="ltr" dominant-baseline="alphabetic">webview → host</text></g><g transform="translate(726.818253968254 215.96626984126982) rotate(0 58.24609375 9.200000000000003)"><text x="0" y="13.5203125" font-family="Helvetica, Segoe UI Emoji" font-size="16px" fill="#e8590c" text-anchor="start" style="white-space: pre;" direction="ltr" dominant-baseline="alphabetic">host → webview</text></g><g stroke-linecap="round"><g stroke-opacity="0.4" fill-opacity="0.4" transform="translate(1008.75 555.625) rotate(0 165.00000000000006 0)"><path d="M0 0 C101.47 1.74, 202.71 2.57, 330 0" stroke="#868e96" stroke-width="1.5" fill="none" stroke-dasharray="1.5 7"/></g></g><mask/><g transform="translate(717.5 627.5) rotate(0 104.51171875 11.5)"><text x="0" y="16.900390625" font-family="Helvetica, Segoe UI Emoji" font-size="20px" fill="#1971c2" text-anchor="start" style="white-space: pre;" direction="ltr" dominant-baseline="alphabetic">Request Dedup Pattern</text></g></svg>