<svg version="1.1" xmlns="http://www.w3.org/2000/svg" viewBox="0 0 1311.25 978.125" width="2622.5" height="1956.25"><!-- svg-source:excalidraw --><metadata/><defs><style class="style-fonts">
      </style></defs><rect x="0" y="0" width="1311.25" height="978.125" fill="#ffffff"/><g stroke-linecap="round" transform="translate(676.2202127659575 719.7606382978723) rotate(0 157.20000000000005 32)"><path d="M16 0 C113.71 -2.52, 208.53 -2.42, 298.4 0 C310.27 1.19, 311.06 8.03, 314.4 16 C311.9 20.65, 317.67 33.38, 314.4 48 C315.69 59.55, 306.58 65.67, 298.4 64 C229.66 66.95, 162.08 66.71, 16 64 C7.09 66.42, -0.49 61.73, 0 48 C1.29 37.24, 0.26 24.19, 0 16 C-1.37 2.74, 4.73 3.56, 16 0" stroke="none" stroke-width="0" fill="#fff9db"/><path d="M16 0 C112.32 -1.1, 208.34 0.57, 298.4 0 M16 0 C87.88 0.05, 159.44 -0.09, 298.4 0 M298.4 0 C310.94 0.26, 314.34 5.72, 314.4 16 M298.4 0 C311.08 -2.16, 314.24 5.18, 314.4 16 M314.4 16 C316.28 24.05, 313.89 31.78, 314.4 48 M314.4 16 C314.7 28.17, 313.8 39.29, 314.4 48 M314.4 48 C314.18 57.88, 309.57 65.1, 298.4 64 M314.4 48 C316.34 57.84, 311.18 65.32, 298.4 64 M298.4 64 C198.45 64.44, 102.11 63.13, 16 64 M298.4 64 C189.8 66.58, 81.71 65.8, 16 64 M16 64 C6.85 63.01, -1.58 56.85, 0 48 M16 64 C5.31 63.04, -1.08 58.62, 0 48 M0 48 C-1.74 41.66, 1.2 30.69, 0 16 M0 48 C-0.21 38.42, 0.4 28.89, 0 16 M0 16 C1.58 7.26, 4.52 -1.65, 16 0 M0 16 C1.45 3.97, 4.62 1.75, 16 0" stroke="#ced4da" stroke-width="1" fill="none"/></g><g stroke-linecap="round" transform="translate(931.2202127659575 529.7606382978723) rotate(0 110 32)"><path d="M16 0 C67.31 -3.08, 121.37 0.58, 204 0 C215.86 -3.34, 222.7 3.36, 220 16 C217.26 31.45, 222.15 42.78, 220 48 C220.88 56.18, 216.34 61.77, 204 64 C165.59 59.78, 125.49 63.93, 16 64 C7.75 63.51, 3.07 62.02, 0 48 C1.25 36.74, 0.77 22.75, 0 16 C-2.59 4.73, 8.89 3.25, 16 0" stroke="none" stroke-width="0" fill="#fff9db"/><path d="M16 0 C73.4 0.66, 134.58 -1.85, 204 0 M16 0 C68.9 -0.41, 120.86 0.53, 204 0 M204 0 C214.93 -0.06, 220.39 7.09, 220 16 M204 0 C212.5 -0.16, 219.85 4.43, 220 16 M220 16 C219.79 25.76, 219.18 37.84, 220 48 M220 16 C221.03 23.53, 220.73 31.83, 220 48 M220 48 C219.21 59.17, 215.76 65.68, 204 64 M220 48 C219.17 60.78, 215.99 65.15, 204 64 M204 64 C153.76 64.6, 101.41 64.35, 16 64 M204 64 C158.98 63.05, 112.3 63.98, 16 64 M16 64 C4.34 62.42, -1.82 58.65, 0 48 M16 64 C4.37 62.92, -0.05 57.69, 0 48 M0 48 C1.61 38.57, -1.12 26.45, 0 16 M0 48 C-0.3 36.74, -0.33 25.01, 0 16 M0 16 C1.93 4.52, 3.69 1.26, 16 0 M0 16 C-1.36 4.62, 7.09 1.02, 16 0" stroke="#ced4da" stroke-width="1" fill="none"/></g><g stroke-linecap="round" transform="translate(1051.2202127659575 709.7606382978723) rotate(0 117.60000000000002 32)"><path d="M16 0 C77.49 0.15, 144.45 3.45, 219.2 0 C226.53 2.7, 233.22 8.87, 235.2 16 C237.41 29.82, 236 41.13, 235.2 48 C232.71 60.34, 227.64 60.82, 219.2 64 C146.09 66.18, 78.83 67.41, 16 64 C4.84 67.07, 3.35 61.3, 0 48 C0.41 36.56, -1.64 19.84, 0 16 C-0.61 8.89, 8.58 -1.22, 16 0" stroke="none" stroke-width="0" fill="#fff9db"/><path d="M16 0 C77.43 1.98, 135.18 1.03, 219.2 0 M16 0 C81.81 -0.86, 148.47 -1.24, 219.2 0 M219.2 0 C229.81 0.39, 236.95 3.45, 235.2 16 M219.2 0 C229.71 -0.15, 234.3 5.87, 235.2 16 M235.2 16 C234.9 25.56, 236.63 35.91, 235.2 48 M235.2 16 C234.91 28.83, 235.24 40.36, 235.2 48 M235.2 48 C235.7 59.76, 231.55 63.28, 219.2 64 M235.2 48 C237.31 59.99, 231.02 63.3, 219.2 64 M219.2 64 C158.72 63.19, 96.29 63.34, 16 64 M219.2 64 C138.32 64.81, 58.43 64.71, 16 64 M16 64 C3.76 62.18, -0.02 57.83, 0 48 M16 64 C4.25 63.95, -0.98 59.49, 0 48 M0 48 C1.57 34.7, 0.19 24.5, 0 16 M0 48 C0.62 36.17, 0.78 25.56, 0 16 M0 16 C-0.81 3.69, 6.6 -1.18, 16 0 M0 16 C-0.71 7.09, 6.35 -0.3, 16 0" stroke="#ced4da" stroke-width="1" fill="none"/></g><g transform="translate(10 10) rotate(0 104.9296875 18.4)"><text x="0" y="27.040625" font-family="Helvetica, Segoe UI Emoji" font-size="32px" fill="#1e1e1e" text-anchor="start" style="white-space: pre;" direction="ltr" dominant-baseline="alphabetic">CI/CD Pipeline</text></g><g transform="translate(22.5 51.875) rotate(0 138.4130859375 11.5)"><text x="0" y="16.900390625" font-family="Helvetica, Segoe UI Emoji" font-size="20px" fill="#868e96" text-anchor="start" style="white-space: pre;" direction="ltr" dominant-baseline="alphabetic">Build once, publish everywhere</text></g><g stroke-linecap="round" transform="translate(170 155.625) rotate(0 100 50.00000000000001)"><path d="M126.25 12.75 C138.37 15.03, 151.12 22.31, 174.75 38.25 C203.54 53.84, 196.94 47.81, 174.75 63.75 C157.65 70.39, 140.25 79.46, 126.25 87.25 C97.82 101.77, 99.05 101.37, 75.75 87.25 C66.25 81.71, 55.09 80.06, 25.25 63.75 C2.63 54.58, 1.71 52.82, 25.25 38.25 C38.59 29.86, 60.85 25.57, 75.75 12.75 C99.78 -1.43, 98.01 -3.27, 126.25 12.75" stroke="none" stroke-width="0" fill="#d0ebff"/><path d="M126.25 12.75 C144.29 23.13, 163.6 33.83, 174.75 38.25 M126.25 12.75 C141.07 19.92, 155.69 28.47, 174.75 38.25 M174.75 38.25 C198.12 50.86, 199.87 50.22, 174.75 63.75 M174.75 38.25 C200.54 51.62, 202.07 50.66, 174.75 63.75 M174.75 63.75 C160.5 72.12, 149.32 78.25, 126.25 87.25 M174.75 63.75 C162.05 69.96, 150.58 76.57, 126.25 87.25 M126.25 87.25 C100.28 101.84, 102.15 101, 75.75 87.25 M126.25 87.25 C100.3 100.14, 99.39 100.46, 75.75 87.25 M75.75 87.25 C54.76 80.31, 35.08 70.33, 25.25 63.75 M75.75 87.25 C61.05 80.19, 46.33 74.32, 25.25 63.75 M25.25 63.75 C-0.83 50.06, -0.04 50.15, 25.25 38.25 M25.25 63.75 C0.82 53.06, -1.87 53.18, 25.25 38.25 M25.25 38.25 C45.25 30.26, 62.33 19.44, 75.75 12.75 M25.25 38.25 C44.56 28.2, 61.08 19.99, 75.75 12.75 M75.75 12.75 C99.82 -0.62, 102.53 0.88, 126.25 12.75 M75.75 12.75 C100.7 0.31, 101.42 -1.67, 126.25 12.75" stroke="#1971c2" stroke-width="2" fill="none"/></g><g transform="translate(215 191.375) rotate(0 36.015625 18.4)"><text x="0" y="13.5203125" font-family="Helvetica, Segoe UI Emoji" font-size="16px" fill="#1971c2" text-anchor="start" style="white-space: pre;" direction="ltr" dominant-baseline="alphabetic">Push / PR</text><text x="0" y="31.920312499999998" font-family="Helvetica, Segoe UI Emoji" font-size="16px" fill="#1971c2" text-anchor="start" style="white-space: pre;" direction="ltr" dominant-baseline="alphabetic">to master</text></g><g stroke-linecap="round" transform="translate(982.5 155.625) rotate(0 100 50.00000000000001)"><path d="M126.25 12.75 C145.27 20.09, 162.29 33.41, 174.75 38.25 C196.94 47.81, 202.7 52.7, 174.75 63.75 C160.24 68.81, 139.09 80.7, 126.25 87.25 C99.05 101.37, 98.61 101.05, 75.75 87.25 C60.91 82.28, 42.87 74.31, 25.25 63.75 C1.71 52.82, 0.68 52.35, 25.25 38.25 C42.37 34.97, 50.82 23.61, 75.75 12.75 C98.01 -3.27, 102.45 2.15, 126.25 12.75" stroke="none" stroke-width="0" fill="#d0ebff"/><path d="M126.25 12.75 C138.94 20.6, 150.83 26.7, 174.75 38.25 M126.25 12.75 C145.57 23.68, 163.52 32.77, 174.75 38.25 M174.75 38.25 C199.87 50.22, 200.47 51.54, 174.75 63.75 M174.75 38.25 C202.07 50.66, 199.32 49.95, 174.75 63.75 M174.75 63.75 C158.25 74.06, 139.13 81.85, 126.25 87.25 M174.75 63.75 C161.2 71.5, 146.28 78.36, 126.25 87.25 M126.25 87.25 C102.15 101, 100.39 100.12, 75.75 87.25 M126.25 87.25 C99.39 100.46, 103.21 98.49, 75.75 87.25 M75.75 87.25 C55.69 80, 36.82 68.94, 25.25 63.75 M75.75 87.25 C55.98 78.01, 37.5 68.72, 25.25 63.75 M25.25 63.75 C-0.04 50.15, 0.71 52.79, 25.25 38.25 M25.25 63.75 C-1.87 53.18, 1.51 50.04, 25.25 38.25 M25.25 38.25 C40.09 30.18, 56.28 22.54, 75.75 12.75 M25.25 38.25 C43.32 29.42, 62.7 18.81, 75.75 12.75 M75.75 12.75 C102.53 0.88, 100.74 0.27, 126.25 12.75 M75.75 12.75 C101.42 -1.67, 99.43 -1.59, 126.25 12.75" stroke="#1971c2" stroke-width="2" fill="none"/></g><g transform="translate(1032.5 191.375) rotate(0 32.46875 18.4)"><text x="0" y="13.5203125" font-family="Helvetica, Segoe UI Emoji" font-size="16px" fill="#1971c2" text-anchor="start" style="white-space: pre;" direction="ltr" dominant-baseline="alphabetic">Tag push</text><text x="0" y="31.920312499999998" font-family="Helvetica, Segoe UI Emoji" font-size="16px" fill="#1971c2" text-anchor="start" style="white-space: pre;" direction="ltr" dominant-baseline="alphabetic">(v*)</text></g><g stroke-linecap="round" transform="translate(120 338.125) rotate(0 150 30)"><path d="M15 0 C73.73 4.31, 124.51 -0.41, 285 0 C297.7 1.7, 301.29 5.88, 300 15 C297.07 23.7, 298.3 30.22, 300 45 C297.61 56.05, 296.76 62.42, 285 60 C209.76 66.35, 131.73 64.97, 15 60 C5.68 61.35, -1.37 52.41, 0 45 C-1.75 35.07, -3.53 24.73, 0 15 C1.45 7.15, 7.12 -3.19, 15 0" stroke="none" stroke-width="0" fill="#d0ebff"/><path d="M15 0 C102.45 -0.7, 191.37 -1.37, 285 0 M15 0 C94.5 -1.91, 175.43 -2.16, 285 0 M285 0 C295.47 0.54, 301.8 4.7, 300 15 M285 0 C294.32 -1.05, 301.31 3.83, 300 15 M300 15 C299.26 27.51, 299.91 37.42, 300 45 M300 15 C299.8 25.67, 300.74 35.01, 300 45 M300 45 C299.39 55.12, 293.6 60.4, 285 60 M300 45 C302.21 53.49, 296.92 58.69, 285 60 M285 60 C177.47 60.73, 71.66 60.57, 15 60 M285 60 C224.95 59.61, 165.54 59.65, 15 60 M15 60 C5.71 61.79, -1.62 56.9, 0 45 M15 60 C6.51 59.04, -0.08 56.64, 0 45 M0 45 C1.25 33.78, 1.57 24.99, 0 15 M0 45 C-0.35 36.9, 1.01 29.87, 0 15 M0 15 C-0.26 5.27, 5.37 -1.46, 15 0 M0 15 C-1.57 3.41, 5.77 0.76, 15 0" stroke="#1971c2" stroke-width="2" fill="none"/></g><g transform="translate(205 356.25) rotate(0 53.7109375 11.5)"><text x="0" y="16.900390625" font-family="Helvetica, Segoe UI Emoji" font-size="20px" fill="#1971c2" text-anchor="start" style="white-space: pre;" direction="ltr" dominant-baseline="alphabetic">CI Workflow</text></g><g stroke-linecap="round"><g transform="translate(270 274.875) rotate(0 0 24.5)"><path d="M0.31 0.51 C0.25 8.68, 0.11 40.82, 0.07 48.98 M-0.2 0.3 C-0.36 8.56, -0.32 41.62, -0.32 49.68" stroke="#1971c2" stroke-width="2" fill="none"/></g><g transform="translate(270 274.875) rotate(0 0 24.5)"><path d="M-8.71 26.66 C-4.63 35.39, -2.45 44.07, -0.32 49.68 M-8.71 26.66 C-5.6 35.39, -2.2 44.64, -0.32 49.68" stroke="#1971c2" stroke-width="2" fill="none"/></g><g transform="translate(270 274.875) rotate(0 0 24.5)"><path d="M8.05 26.65 C5.85 35.43, 1.75 44.12, -0.32 49.68 M8.05 26.65 C4.66 35.38, 1.57 44.64, -0.32 49.68" stroke="#1971c2" stroke-width="2" fill="none"/></g></g><mask/><g stroke-linecap="round" transform="translate(120 450.625) rotate(0 150 30)"><path d="M15 0 C120.04 5.35, 231.41 4.25, 285 0 C295.88 -2.49, 301.67 2.77, 300 15 C301.63 18.96, 301.32 29.45, 300 45 C302.42 54.51, 298.07 63.35, 285 60 C185.67 62.34, 84.53 60.74, 15 60 C2.41 59.39, 3.56 58.25, 0 45 C-3.06 38.47, 2.37 31.15, 0 15 C-3.19 7.16, 1.68 0.96, 15 0" stroke="none" stroke-width="0" fill="#f1f3f5"/><path d="M15 0 C96.2 -2.02, 177.29 -0.61, 285 0 M15 0 C70.31 0.32, 126.44 0.85, 285 0 M285 0 C294.7 -0.59, 299.09 6.14, 300 15 M285 0 C293.83 1.99, 301.06 6.73, 300 15 M300 15 C299.35 23.18, 301.23 32.04, 300 45 M300 15 C300.78 22.61, 300.34 30.13, 300 45 M300 45 C300.4 56.92, 293.69 61.67, 285 60 M300 45 C298.69 57.24, 294.05 61.46, 285 60 M285 60 C207.77 60.37, 130.67 61.59, 15 60 M285 60 C214.93 60.24, 146.23 59.32, 15 60 M15 60 C6.9 61.31, -0.83 54.93, 0 45 M15 60 C6.64 61.51, 0.05 54.8, 0 45 M0 45 C1.97 33.31, -1.61 24.51, 0 15 M0 45 C0.53 37.65, 0.23 30.74, 0 15 M0 15 C-1.46 3.64, 3.62 0.67, 15 0 M0 15 C0.76 2.87, 6.72 -1.26, 15 0" stroke="#868e96" stroke-width="2" fill="none"/></g><g transform="translate(150 468.75) rotate(0 105.310546875 10.349999999999994)"><text x="0" y="15.2103515625" font-family="Helvetica, Segoe UI Emoji" font-size="18px" fill="#868e96" text-anchor="start" style="white-space: pre;" direction="ltr" dominant-baseline="alphabetic">Node 18 + Node 20 Matrix</text></g><g stroke-linecap="round"><g transform="translate(270 409.875) rotate(0 0 14.5)"><path d="M-0.02 0.11 C-0.02 4.84, 0.49 23.67, 0.48 28.48 M-0.69 -0.31 C-0.77 4.46, 0.25 23.94, 0.3 28.92" stroke="#1971c2" stroke-width="2" fill="none"/></g><g transform="translate(270 409.875) rotate(0 0 14.5)"><path d="M-5.1 15.46 C-2.83 21.39, -1.52 26, 0.3 28.92 M-5.1 15.46 C-3.45 19.73, -2.01 23.24, 0.3 28.92" stroke="#1971c2" stroke-width="2" fill="none"/></g><g transform="translate(270 409.875) rotate(0 0 14.5)"><path d="M4.81 15.14 C3.19 21.2, 0.59 25.93, 0.3 28.92 M4.81 15.14 C3.56 19.51, 2.08 23.12, 0.3 28.92" stroke="#1971c2" stroke-width="2" fill="none"/></g></g><mask/><g stroke-linecap="round" transform="translate(120 560.625) rotate(0 150 20)"><path d="M10 0 C70.16 -1.14, 126.43 -0.54, 290 0 C294.44 -3.18, 301.77 1.39, 300 10 C301.52 19.18, 299.27 26.59, 300 30 C303.35 39.3, 300.25 41.71, 290 40 C190.78 39.46, 93.19 44.18, 10 40 C6.58 38.78, -1.43 33.68, 0 30 C1.98 22.63, 2.02 18.31, 0 10 C0.96 3.54, 2.23 1.61, 10 0" stroke="none" stroke-width="0" fill="#d0ebff"/><path d="M10 0 C99.04 -1.86, 185.29 -0.52, 290 0 M10 0 C83.7 -0.69, 155.8 -0.93, 290 0 M290 0 C297.8 -1.02, 301.73 4.26, 300 10 M290 0 C298.39 -1.01, 301.04 3.08, 300 10 M300 10 C301.73 14.49, 301.89 21.58, 300 30 M300 10 C299.24 17.2, 300.9 23.35, 300 30 M300 30 C301.67 35.52, 298.61 39.17, 290 40 M300 30 C301.46 36.28, 295.77 41.74, 290 40 M290 40 C219.84 37.41, 148.98 38.01, 10 40 M290 40 C217.28 42.65, 146.31 41.6, 10 40 M10 40 C3.27 41.43, 1.31 36.71, 0 30 M10 40 C3.13 41.44, -0.28 38.48, 0 30 M0 30 C1.35 20.89, -0.54 15.67, 0 10 M0 30 C0.21 22.39, -0.66 15.54, 0 10 M0 10 C0.67 3.99, 1.48 1.5, 10 0 M0 10 C-1.26 5.59, 5.15 -1.96, 10 0" stroke="#1971c2" stroke-width="1" fill="none"/></g><g transform="translate(235 570.625) rotate(0 23.5625 9.199999999999989)"><text x="0" y="13.5203125" font-family="Helvetica, Segoe UI Emoji" font-size="16px" fill="#1971c2" text-anchor="start" style="white-space: pre;" direction="ltr" dominant-baseline="alphabetic">npm ci</text></g><g stroke-linecap="round"><g transform="translate(270 522.375) rotate(0 0 14.5)"><path d="M-0.52 -0.04 C-0.54 4.68, -0.14 23.92, -0.04 28.78 M0.22 -0.53 C0.11 4.49, -0.42 24.31, -0.49 29.37" stroke="#1971c2" stroke-width="2" fill="none"/></g><g transform="translate(270 522.375) rotate(0 0 14.5)"><path d="M-5.16 15.65 C-3.66 20.01, -2.4 24.61, -0.49 29.37 M-5.16 15.65 C-3.68 19.98, -1.84 24.44, -0.49 29.37" stroke="#1971c2" stroke-width="2" fill="none"/></g><g transform="translate(270 522.375) rotate(0 0 14.5)"><path d="M4.75 15.85 C3.09 20.1, 1.18 24.64, -0.49 29.37 M4.75 15.85 C2.99 20.11, 1.59 24.51, -0.49 29.37" stroke="#1971c2" stroke-width="2" fill="none"/></g></g><mask/><g stroke-linecap="round" transform="translate(120 623.125) rotate(0 150 20)"><path d="M10 0 C105.32 0.96, 195.63 4.03, 290 0 C294.72 1.37, 297.61 4.38, 300 10 C303.31 20.33, 302.88 27.53, 300 30 C301.71 38.49, 297.35 41.35, 290 40 C219.37 41.84, 142.35 38.25, 10 40 C0.34 36.73, 1.45 38.82, 0 30 C-3.01 23.78, 0.52 14.54, 0 10 C1.61 5.37, 0.3 -1.92, 10 0" stroke="none" stroke-width="0" fill="#d0ebff"/><path d="M10 0 C118.45 -0.45, 227.47 0.56, 290 0 M10 0 C118.88 1.07, 228.08 1.3, 290 0 M290 0 C297.59 1.5, 299.12 4.24, 300 10 M290 0 C296.41 -0.9, 300.58 4.59, 300 10 M300 10 C301.08 18.69, 299.31 25.49, 300 30 M300 10 C299.38 15.43, 299.47 20.17, 300 30 M300 30 C299.17 37.94, 296.33 39.22, 290 40 M300 30 C301.74 35.53, 294.85 37.91, 290 40 M290 40 C206.2 38.34, 123 40.36, 10 40 M290 40 C228.43 41.38, 168.04 41.91, 10 40 M10 40 C3.38 39.82, 1.25 36.42, 0 30 M10 40 C5.15 42.22, -0.93 34.77, 0 30 M0 30 C1.64 23.62, -0.14 15.74, 0 10 M0 30 C-0.55 23.97, 0.48 16.33, 0 10 M0 10 C1.5 2.24, 5.3 1.58, 10 0 M0 10 C-1.96 1.29, 5.06 1.08, 10 0" stroke="#1971c2" stroke-width="1" fill="none"/></g><g transform="translate(230 633.125) rotate(0 30.6796875 9.199999999999989)"><text x="0" y="13.5203125" font-family="Helvetica, Segoe UI Emoji" font-size="16px" fill="#1971c2" text-anchor="start" style="white-space: pre;" direction="ltr" dominant-baseline="alphabetic">npm test</text></g><g stroke-linecap="round"><g transform="translate(270 607.375) rotate(0 0 4.5)"><path d="M-0.14 0.08 C-0.12 1.64, 0.08 7.85, 0.1 9.32 M0.43 -0.18 C0.42 1.29, -0.01 7.29, -0.13 8.86" stroke="#1971c2" stroke-width="2" fill="none"/></g><g transform="translate(270 607.375) rotate(0 0 4.5)"><path d="M-1.36 4.53 C-0.96 5.84, -0.51 7.05, -0.13 8.86 M-1.36 4.53 C-1.07 5.77, -0.67 6.93, -0.13 8.86" stroke="#1971c2" stroke-width="2" fill="none"/></g><g transform="translate(270 607.375) rotate(0 0 4.5)"><path d="M1.71 4.76 C1.21 6, 0.77 7.14, -0.13 8.86 M1.71 4.76 C1.17 5.94, 0.74 7.04, -0.13 8.86" stroke="#1971c2" stroke-width="2" fill="none"/></g></g><mask/><g stroke-linecap="round" transform="translate(120 685.625) rotate(0 150 20)"><path d="M10 0 C108.36 1.92, 205.05 1.59, 290 0 C297.72 1.76, 302.42 2.84, 300 10 C303.92 19.41, 302.16 26.09, 300 30 C301.35 35.3, 294.08 39.39, 290 40 C177.21 36.4, 64.11 39.81, 10 40 C5.49 42.12, -3.19 38.83, 0 30 C-1.2 27.46, 1.94 18.66, 0 10 C-1.92 0.75, 0.41 -0.68, 10 0" stroke="none" stroke-width="0" fill="#d0ebff"/><path d="M10 0 C92.56 0.88, 174.07 -0.95, 290 0 M10 0 C81.93 1.45, 153.1 0.76, 290 0 M290 0 C297.58 -0.22, 299.21 3.84, 300 10 M290 0 C297.93 1.94, 299.17 5.44, 300 10 M300 10 C300.22 15.74, 300.5 26.22, 300 30 M300 10 C301.14 14.27, 300.8 19.21, 300 30 M300 30 C299.22 38.18, 295.68 38.42, 290 40 M300 30 C297.91 36.65, 295.71 38.92, 290 40 M290 40 C207.95 39.52, 124.61 41.77, 10 40 M290 40 C218.16 41.55, 145.25 42.01, 10 40 M10 40 C3.09 41.58, 1.93 35.86, 0 30 M10 40 C1.44 41.45, -1.36 35.95, 0 30 M0 30 C0.18 22.84, -1.54 13.59, 0 10 M0 30 C-0.99 26.13, -0.62 21.75, 0 10 M0 10 C1.58 1.63, 1.56 1.5, 10 0 M0 10 C1.08 4.16, 3.9 -1.59, 10 0" stroke="#1971c2" stroke-width="1" fill="none"/></g><g transform="translate(210 695.625) rotate(0 48.47265625 9.199999999999989)"><text x="0" y="13.5203125" font-family="Helvetica, Segoe UI Emoji" font-size="16px" fill="#1971c2" text-anchor="start" style="white-space: pre;" direction="ltr" dominant-baseline="alphabetic">npm run build</text></g><g stroke-linecap="round"><g transform="translate(270 669.875) rotate(0 0 4.5)"><path d="M0.32 -0.05 C0.29 1.4, -0.08 7.36, -0.1 8.84 M0.06 -0.39 C-0.04 1.11, -0.44 7.62, -0.44 9.21" stroke="#1971c2" stroke-width="2" fill="none"/></g><g transform="translate(270 669.875) rotate(0 0 4.5)"><path d="M-1.83 4.93 C-1.4 6.26, -0.99 7.78, -0.44 9.21 M-1.83 4.93 C-1.41 5.96, -1.09 7.05, -0.44 9.21" stroke="#1971c2" stroke-width="2" fill="none"/></g><g transform="translate(270 669.875) rotate(0 0 4.5)"><path d="M1.25 5.03 C0.69 6.34, 0.09 7.82, -0.44 9.21 M1.25 5.03 C0.9 6.04, 0.46 7.11, -0.44 9.21" stroke="#1971c2" stroke-width="2" fill="none"/></g></g><mask/><g stroke-linecap="round" transform="translate(120 775.625) rotate(0 150 30)"><path d="M15 0 C107.43 -0.62, 204.98 0.45, 285 0 C294.51 3.07, 303.35 7.63, 300 15 C300.94 28.33, 298.89 36.38, 300 45 C299.39 58.56, 298.25 58.78, 285 60 C215.89 58.22, 146.17 54.04, 15 60 C7.16 56.68, 0.96 55.2, 0 45 C-3.28 35, -2.83 25.92, 0 15 C-0.68 5.16, 2.48 -2.93, 15 0" stroke="none" stroke-width="0" fill="#f8f9fa"/><path d="M15 0 C102.84 -0.4, 192.49 -0.49, 285 0 M15 0 C119.06 -1.23, 223.73 -1.9, 285 0 M285 0 C295.5 1.1, 301.68 4.28, 300 15 M285 0 C297.11 1.32, 301.15 4.3, 300 15 M300 15 C301.71 22.87, 301.46 32.22, 300 45 M300 15 C299.71 26.53, 300.63 38.34, 300 45 M300 45 C298.42 53.18, 294.98 59.17, 285 60 M300 45 C298.92 54.95, 294.02 60.82, 285 60 M285 60 C180.86 61.36, 74.61 63.13, 15 60 M285 60 C186.76 59.72, 88.15 60.57, 15 60 M15 60 C4.19 58.35, 1.26 53.82, 0 45 M15 60 C4.29 61.75, 1.02 54.7, 0 45 M0 45 C-1.42 34.21, 0.62 26.86, 0 15 M0 45 C0.76 39.57, -1.08 31.68, 0 15 M0 15 C1.5 5.94, 5.72 0.49, 15 0 M0 15 C-1.59 6.07, 3.58 -2.03, 15 0" stroke="#343a40" stroke-width="2" fill="none"/></g><g transform="translate(195 793.75) rotate(0 56.6845703125 11.5)"><text x="0" y="16.900390625" font-family="Helvetica, Segoe UI Emoji" font-size="20px" fill="#343a40" text-anchor="start" style="white-space: pre;" direction="ltr" dominant-baseline="alphabetic">VSIX Artifact</text></g><g stroke-linecap="round"><g transform="translate(270 734.875) rotate(0 0 14.5)"><path d="M-0.25 0.31 C-0.28 5.25, -0.36 24.63, -0.28 29.48 M0.62 0 C0.78 4.81, 0.91 24, 0.81 28.76" stroke="#1971c2" stroke-width="2" fill="none"/></g><g transform="translate(270 734.875) rotate(0 0 14.5)"><path d="M-4.09 15.11 C-2.3 18.64, -0.69 23.24, 0.81 28.76 M-4.09 15.11 C-2.32 20.07, -0.35 25.53, 0.81 28.76" stroke="#1971c2" stroke-width="2" fill="none"/></g><g transform="translate(270 734.875) rotate(0 0 14.5)"><path d="M5.83 15.15 C4.79 18.65, 3.57 23.24, 0.81 28.76 M5.83 15.15 C3.87 20.12, 2.12 25.57, 0.81 28.76" stroke="#1971c2" stroke-width="2" fill="none"/></g></g><mask/><g stroke-linecap="round" transform="translate(876.25 338.125) rotate(0 175 30)"><path d="M15 0 C91.47 -2.31, 166.69 0.38, 335 0 C347.63 3.58, 351.71 6.82, 350 15 C347.61 23.96, 353.76 37.38, 350 45 C348.78 53.57, 342.01 56.73, 335 60 C223.87 63.89, 114.88 63.05, 15 60 C5.2 58.89, 1.61 57.03, 0 45 C-2.64 37.85, 0.45 29.54, 0 15 C-2.93 3.46, 4.65 -2.21, 15 0" stroke="none" stroke-width="0" fill="#d0ebff"/><path d="M15 0 C100.88 -0.06, 188.84 -0.22, 335 0 M15 0 C96.63 0.43, 179.19 0.84, 335 0 M335 0 C344.28 1.84, 351.15 6, 350 15 M335 0 C344.3 0.14, 348.39 5.46, 350 15 M350 15 C348.66 28.83, 348.97 40.03, 350 45 M350 15 C349.39 22.71, 348.97 31.98, 350 45 M350 45 C349.17 54.06, 344.96 59.15, 335 60 M350 45 C350.82 57.06, 343.13 62.18, 335 60 M335 60 C219 60.84, 101.03 59.8, 15 60 M335 60 C219.63 61.49, 102.34 62.21, 15 60 M15 60 C3.82 59.38, 1.53 55.88, 0 45 M15 60 C4.7 60.31, 0.42 53.33, 0 45 M0 45 C0.87 36.19, 1.71 29.99, 0 15 M0 45 C-1.12 33.8, 0.23 21.46, 0 15 M0 15 C0.49 3.62, 5.93 -1.24, 15 0 M0 15 C-2.03 6.13, 3.76 0.87, 15 0" stroke="#1971c2" stroke-width="2" fill="none"/></g><g transform="translate(991.25 356.25) rotate(0 41.1376953125 11.5)"><text x="0" y="16.900390625" font-family="Helvetica, Segoe UI Emoji" font-size="20px" fill="#1971c2" text-anchor="start" style="white-space: pre;" direction="ltr" dominant-baseline="alphabetic">Build Job</text></g><g stroke-linecap="round"><g transform="translate(1082.5 274.875) rotate(0 0 24.5)"><path d="M0.48 0.25 C0.49 8.43, 0.45 40.64, 0.41 48.76 M0.06 -0.09 C0.01 8.18, 0.2 41.07, 0.19 49.33" stroke="#1971c2" stroke-width="2" fill="none"/></g><g transform="translate(1082.5 274.875) rotate(0 0 24.5)"><path d="M-8.25 26.33 C-4.83 35.26, -2.72 43.17, 0.19 49.33 M-8.25 26.33 C-5.58 33.39, -3.6 40.07, 0.19 49.33" stroke="#1971c2" stroke-width="2" fill="none"/></g><g transform="translate(1082.5 274.875) rotate(0 0 24.5)"><path d="M8.51 26.29 C5.95 35.3, 2.07 43.23, 0.19 49.33 M8.51 26.29 C6.34 33.37, 3.48 40.07, 0.19 49.33" stroke="#1971c2" stroke-width="2" fill="none"/></g></g><mask/><g stroke-linecap="round" transform="translate(876.25 463.125) rotate(0 175 30)"><path d="M15 0 C134.85 -1.59, 252.52 -2.24, 335 0 C346.82 0.68, 351.35 3.63, 350 15 C353.15 20.62, 348.48 25.69, 350 45 C346.73 56.45, 347.15 62.12, 335 60 C268.01 56.42, 198.91 57.41, 15 60 C7.03 56.96, -1.92 52.41, 0 45 C-2.41 35.5, -1.44 31.52, 0 15 C-2.21 8.42, 5.53 -0.53, 15 0" stroke="none" stroke-width="0" fill="#f8f9fa"/><path d="M15 0 C95.74 -1.65, 175.02 -1.19, 335 0 M15 0 C99.01 -1.48, 182.49 -0.83, 335 0 M335 0 C346 -0.61, 350.12 3.6, 350 15 M335 0 C345.46 2.21, 348.49 6.92, 350 15 M350 15 C351.57 21.95, 349.51 31.08, 350 45 M350 15 C349.76 22.1, 349.29 30.01, 350 45 M350 45 C349.15 55.71, 346.79 58.38, 335 60 M350 45 C352.18 56.51, 344.04 59.92, 335 60 M335 60 C216 60.92, 97.07 61.15, 15 60 M335 60 C208.57 57.74, 81.04 58.69, 15 60 M15 60 C5.88 59.74, 0.27 55.37, 0 45 M15 60 C3.33 58.43, -1.59 55.77, 0 45 M0 45 C-0.82 36.97, 1.86 23.31, 0 15 M0 45 C0.13 38.91, -0.92 32.79, 0 15 M0 15 C-1.24 3.23, 5.99 -1.08, 15 0 M0 15 C0.87 3.47, 5.67 1.12, 15 0" stroke="#343a40" stroke-width="2" fill="none"/></g><g transform="translate(986.25 481.25) rotate(0 56.6845703125 11.5)"><text x="0" y="16.900390625" font-family="Helvetica, Segoe UI Emoji" font-size="20px" fill="#343a40" text-anchor="start" style="white-space: pre;" direction="ltr" dominant-baseline="alphabetic">VSIX Artifact</text></g><g stroke-linecap="round"><g transform="translate(1051.25 411.125) rotate(0 0 19.5)"><path d="M-0.24 0.25 C-0.29 6.64, -0.13 32.28, -0.06 38.78 M0.63 -0.1 C0.48 6.34, -0.4 32.96, -0.52 39.37" stroke="#1971c2" stroke-width="2" fill="none"/></g><g transform="translate(1051.25 411.125) rotate(0 0 19.5)"><path d="M-6.69 20.87 C-4.04 27.18, -2.73 33.94, -0.52 39.37 M-6.69 20.87 C-3.98 27.73, -1.99 33.86, -0.52 39.37" stroke="#1971c2" stroke-width="2" fill="none"/></g><g transform="translate(1051.25 411.125) rotate(0 0 19.5)"><path d="M6.65 21.24 C4.67 27.39, 1.36 34.03, -0.52 39.37 M6.65 21.24 C4.62 27.94, 1.88 33.94, -0.52 39.37" stroke="#1971c2" stroke-width="2" fill="none"/></g></g><mask/><g stroke-linecap="round" transform="translate(676.25 615.625) rotate(0 125 40)"><path d="M20 0 C104.05 -1.71, 185.68 -2.13, 230 0 C241.97 -2.59, 249.39 10.23, 250 20 C246.77 32.33, 251.21 53.37, 250 60 C252.12 70.15, 245.49 76.68, 230 80 C162.82 80.77, 90.1 77.27, 20 80 C4.08 77.07, -0.68 73.49, 0 60 C0.24 48.59, 4.01 42.12, 0 20 C-0.53 5.13, 7.46 -2.16, 20 0" stroke="none" stroke-width="0" fill="#d3f9d8"/><path d="M20 0 C98.57 -1.54, 177.98 0.13, 230 0 M20 0 C101.18 -1.26, 181.08 -1.65, 230 0 M230 0 C241.93 0.4, 251.92 5.36, 250 20 M230 0 C245.25 -1.31, 252.24 5.71, 250 20 M250 20 C251.45 33.56, 248.36 47.27, 250 60 M250 20 C249.81 31.54, 250.19 44.83, 250 60 M250 60 C248.38 75.23, 244.65 79.17, 230 80 M250 60 C249.92 74.98, 244.84 80.05, 230 80 M230 80 C170.24 81.47, 106.97 78.32, 20 80 M230 80 C154.4 79.82, 77.33 79.54, 20 80 M20 80 C7.04 78.54, -1.36 71.95, 0 60 M20 80 C7.44 80.76, -2.13 75.06, 0 60 M0 60 C-2.09 48.42, 1.11 41.33, 0 20 M0 60 C0.37 45.95, -0.98 33.63, 0 20 M0 20 C-1.08 7.43, 5.34 0.58, 20 0 M0 20 C1.12 8.21, 6.35 1.96, 20 0" stroke="#2f9e44" stroke-width="2" fill="none"/></g><g transform="translate(706.25 635.625) rotate(0 77.81640625 18.399999999999977)"><text x="0" y="13.5203125" font-family="Helvetica, Segoe UI Emoji" font-size="16px" fill="#2f9e44" text-anchor="start" style="white-space: pre;" direction="ltr" dominant-baseline="alphabetic">VS Code Marketplace</text><text x="0" y="31.920312499999998" font-family="Helvetica, Segoe UI Emoji" font-size="16px" fill="#2f9e44" text-anchor="start" style="white-space: pre;" direction="ltr" dominant-baseline="alphabetic">vsce publish</text></g><g stroke-linecap="round"><g transform="translate(986.375 538.625) rotate(0 -67 29.5)"><path d="M-0.47 0.3 C-22.79 10.33, -111.02 50.04, -133.34 60.01 M1.48 -0.58 C-20.98 9.13, -111.13 48.6, -133.94 58.42" stroke="#2f9e44" stroke-width="2" fill="none"/></g><g transform="translate(986.375 538.625) rotate(0 -67 29.5)"><path d="M-115.81 41.21 C-121.59 48.18, -126.67 52.31, -133.94 58.42 M-115.81 41.21 C-123.12 48.11, -130.62 54.98, -133.94 58.42" stroke="#2f9e44" stroke-width="2" fill="none"/></g><g transform="translate(986.375 538.625) rotate(0 -67 29.5)"><path d="M-108.99 56.9 C-117.11 58.42, -124.55 57.13, -133.94 58.42 M-108.99 56.9 C-119.06 57.68, -129.24 58.41, -133.94 58.42" stroke="#2f9e44" stroke-width="2" fill="none"/></g></g><mask/><g stroke-linecap="round" transform="translate(1051.25 615.625) rotate(0 125 40)"><path d="M20 0 C94.16 -1.84, 163.66 -1.17, 230 0 C246.89 3.25, 248.78 5.23, 250 20 C251.5 30.8, 246.16 39.51, 250 60 C246.68 74.29, 243.54 78.89, 230 80 C155.88 74.9, 82.58 76.58, 20 80 C6.83 77.48, -2.93 71.79, 0 60 C0.97 47.86, -1.09 37.57, 0 20 C-2.16 3.27, 3.27 0.27, 20 0" stroke="none" stroke-width="0" fill="#d3f9d8"/><path d="M20 0 C81.61 1.02, 140.65 1.15, 230 0 M20 0 C95.1 -0.05, 170.27 1.42, 230 0 M230 0 C242.02 1.67, 248.86 8.61, 250 20 M230 0 C242.38 1.46, 249.61 5.77, 250 20 M250 20 C247.98 35.01, 248.97 49.12, 250 60 M250 20 C250.73 31.1, 250.78 44.49, 250 60 M250 60 C249.17 73.27, 244.76 81.31, 230 80 M250 60 C250.05 73.13, 244.77 79.72, 230 80 M230 80 C148.94 80.37, 69.75 78.7, 20 80 M230 80 C151.1 79.92, 71.32 79.15, 20 80 M20 80 C5.28 80.67, 0.66 71.48, 0 60 M20 80 C8.39 78.74, 2.26 75.15, 0 60 M0 60 C1.3 52.12, 0.85 41.42, 0 20 M0 60 C0.74 45.6, 0.63 31.62, 0 20 M0 20 C0.58 7.64, 8.01 -0.27, 20 0 M0 20 C1.96 8.81, 8.35 2.29, 20 0" stroke="#2f9e44" stroke-width="2" fill="none"/></g><g transform="translate(1101.25 635.625) rotate(0 44.0234375 18.399999999999977)"><text x="0" y="13.5203125" font-family="Helvetica, Segoe UI Emoji" font-size="16px" fill="#2f9e44" text-anchor="start" style="white-space: pre;" direction="ltr" dominant-baseline="alphabetic">Open VSX</text><text x="0" y="31.920312499999998" font-family="Helvetica, Segoe UI Emoji" font-size="16px" fill="#2f9e44" text-anchor="start" style="white-space: pre;" direction="ltr" dominant-baseline="alphabetic">ovsx publish</text></g><g stroke-linecap="round"><g transform="translate(1137.375 538.625) rotate(0 17 29.5)"><path d="M1.01 -0.43 C6.81 9.41, 29.5 49.84, 35.1 59.69 M0.08 -1.71 C5.79 7.73, 29.05 47.68, 34.73 57.93" stroke="#2f9e44" stroke-width="2" fill="none"/></g><g transform="translate(1137.375 538.625) rotate(0 17 29.5)"><path d="M15.66 41.76 C21.23 48.69, 29.3 53.12, 34.73 57.93 M15.66 41.76 C21.01 47.21, 25.29 51.44, 34.73 57.93" stroke="#2f9e44" stroke-width="2" fill="none"/></g><g transform="translate(1137.375 538.625) rotate(0 17 29.5)"><path d="M30.52 33.29 C31.3 43.1, 34.54 50.28, 34.73 57.93 M30.52 33.29 C31.87 40.91, 32.15 47.42, 34.73 57.93" stroke="#2f9e44" stroke-width="2" fill="none"/></g></g><mask/><g transform="translate(702.5 720.375) rotate(0 64.61328125 9.199999999999989)"><text x="0" y="13.5203125" font-family="Helvetica, Segoe UI Emoji" font-size="16px" fill="#495057" text-anchor="start" style="white-space: pre;" direction="ltr" dominant-baseline="alphabetic">VSCE_PAT secret</text></g><g transform="translate(1101.2202127659575 702.7606382978723) rotate(0 65.05859375 9.199999999999989)"><text x="0" y="13.5203125" font-family="Helvetica, Segoe UI Emoji" font-size="16px" fill="#495057" text-anchor="start" style="white-space: pre;" direction="ltr" dominant-baseline="alphabetic">OVSX_PAT secret</text></g><g stroke-linecap="round" transform="translate(457.5 868.125) rotate(0 249.99999999999997 50)"><path d="M25 0 C144.24 -1.54, 262.57 -1.93, 475 0 M475 0 C492.07 1.92, 498.69 10, 500 25 M500 25 C501.76 36.8, 499.7 50.8, 500 75 M500 75 C499.01 90.09, 489.85 99.98, 475 100 M475 100 C358.36 100.3, 243.41 99.17, 25 100 M25 100 C10.23 101.31, -0.83 91.6, 0 75 M0 75 C-0.5 57.68, -0.58 39.43, 0 25 M0 25 C1.93 7.52, 6.69 1.26, 25 0" stroke="#868e96" stroke-width="2.5" fill="none" stroke-dasharray="8 10"/></g><g transform="translate(507.5 906.25) rotate(0 162.74218749999997 9.199999999999989)"><text x="0" y="13.5203125" font-family="Helvetica, Segoe UI Emoji" font-size="16px" fill="#868e96" text-anchor="start" style="white-space: pre;" direction="ltr" dominant-baseline="alphabetic">npm version patch → git tag → git push --tags</text></g><g transform="translate(626.25 832.875) rotate(0 56.6171875 9.199999999999989)"><text x="0" y="13.5203125" font-family="Helvetica, Segoe UI Emoji" font-size="16px" fill="#868e96" text-anchor="start" style="white-space: pre;" direction="ltr" dominant-baseline="alphabetic">Release Trigger</text></g><g transform="translate(686.2202127659575 731.7606382978723) rotate(0 110.7265625 18.399999999999977)"><text x="0" y="13.5203125" font-family="Helvetica, Segoe UI Emoji" font-size="16px" fill="#495057" text-anchor="start" style="white-space: pre;" direction="ltr" dominant-baseline="alphabetic">Parallel, independent jobs —</text><text x="0" y="31.920312499999998" font-family="Helvetica, Segoe UI Emoji" font-size="16px" fill="#495057" text-anchor="start" style="white-space: pre;" direction="ltr" dominant-baseline="alphabetic">if one fails, the other completes</text></g><g transform="translate(941.2202127659575 541.7606382978723) rotate(0 73.82421875 18.400000000000006)"><text x="0" y="13.5203125" font-family="Helvetica, Segoe UI Emoji" font-size="16px" fill="#495057" text-anchor="start" style="white-space: pre;" direction="ltr" dominant-baseline="alphabetic">Same binary on both</text><text x="0" y="31.920312499999998" font-family="Helvetica, Segoe UI Emoji" font-size="16px" fill="#495057" text-anchor="start" style="white-space: pre;" direction="ltr" dominant-baseline="alphabetic">marketplaces</text></g><g transform="translate(1061.2202127659575 721.7606382978723) rotate(0 88.9140625 18.399999999999977)"><text x="0" y="13.5203125" font-family="Helvetica, Segoe UI Emoji" font-size="16px" fill="#495057" text-anchor="start" style="white-space: pre;" direction="ltr" dominant-baseline="alphabetic">Serves Cursor, Windsurf,</text><text x="0" y="31.920312499999998" font-family="Helvetica, Segoe UI Emoji" font-size="16px" fill="#495057" text-anchor="start" style="white-space: pre;" direction="ltr" dominant-baseline="alphabetic">VSCodium users</text></g><g stroke-linecap="round" transform="translate(676.2202127659575 719.7606382978723) rotate(0 157.20000000000005 32)"><path d="M16 0 C101.95 -1.77, 182.75 0.29, 298.4 0 C307.8 -2.48, 316.77 5.48, 314.4 16 C315.42 28.86, 311.31 40.89, 314.4 48 C312.77 58.18, 311.02 61.41, 298.4 64 C195.48 62.35, 92.29 59.17, 16 64 C3.54 64.39, 1.38 56.9, 0 48 C2.87 38.79, 1.48 25.39, 0 16 C2.56 5, 2.07 0.12, 16 0" stroke="none" stroke-width="0" fill="#fff9db"/><path d="M16 0 C111.33 1.16, 205.88 3.2, 298.4 0 M16 0 C77.06 -1.34, 137.59 -2.14, 298.4 0 M298.4 0 C310 -1.24, 312.63 6.32, 314.4 16 M298.4 0 C307.82 0.87, 312.87 6, 314.4 16 M314.4 16 C316.32 29.02, 316.08 40.32, 314.4 48 M314.4 16 C314.94 26.74, 313.84 38.07, 314.4 48 M314.4 48 C316.38 60.47, 308.39 63.2, 298.4 64 M314.4 48 C312.49 56.57, 309.99 65.38, 298.4 64 M298.4 64 C195.63 65.7, 95.77 64.82, 16 64 M298.4 64 C200.61 61.64, 103.01 62.04, 16 64 M16 64 C5.42 62.6, -1.63 57.81, 0 48 M16 64 C5.11 62.59, 2.19 59, 0 48 M0 48 C-1.06 36.98, -1.75 29.89, 0 16 M0 48 C1.25 40.65, -0.11 33.39, 0 16 M0 16 C1.16 5.8, 7.17 1.1, 16 0 M0 16 C0.25 5.28, 4.39 0.62, 16 0" stroke="#ced4da" stroke-width="1" fill="none"/></g><g stroke-linecap="round" transform="translate(931.2202127659575 529.7606382978723) rotate(0 110 32)"><path d="M16 0 C73.72 -4.48, 134.12 -3.27, 204 0 C212.19 2.37, 220.15 7.94, 220 16 C220.51 23.54, 220.62 36.09, 220 48 C219.52 60.62, 212.08 66.24, 204 64 C143.58 61.19, 77.64 61.43, 16 64 C5.72 65.38, -1.77 60.02, 0 48 C1.96 41.38, -0.62 35.01, 0 16 C-0.33 2.07, 5.45 2.73, 16 0" stroke="none" stroke-width="0" fill="#fff9db"/><path d="M16 0 C77.52 0.56, 142.81 -3.11, 204 0 M16 0 C56.08 -0.64, 94.76 -0.42, 204 0 M204 0 C213.43 -1.77, 220.99 4.25, 220 16 M204 0 C215.54 -1.53, 220.67 6.46, 220 16 M220 16 C221.82 29.21, 221.95 40.45, 220 48 M220 16 C219.68 26.5, 219.89 39.43, 220 48 M220 48 C221.8 57.99, 213.87 62.34, 204 64 M220 48 C217.91 59.59, 216.04 65.36, 204 64 M204 64 C164.78 62.38, 123.88 63.16, 16 64 M204 64 C136.27 62.18, 69.78 63.04, 16 64 M16 64 C3.94 62.37, -0.86 58.47, 0 48 M16 64 C3.92 66.19, 0.34 58.33, 0 48 M0 48 C-1.96 37.88, 0.08 30.24, 0 16 M0 48 C0.13 41.13, 0.4 35.7, 0 16 M0 16 C0.46 7.17, 6.43 0.22, 16 0 M0 16 C-0.05 4.39, 5.95 -0.03, 16 0" stroke="#ced4da" stroke-width="1" fill="none"/></g><g stroke-linecap="round" transform="translate(1051.2202127659575 709.7606382978723) rotate(0 117.60000000000002 32)"><path d="M16 0 C84.11 2.42, 155.53 -2.23, 219.2 0 C232.24 0.15, 237.81 6.75, 235.2 16 C232.01 24.2, 233.7 29.79, 235.2 48 C237.15 56.08, 232.11 65.03, 219.2 64 C170.56 62.75, 123.96 65.59, 16 64 C6.71 62.23, 1.36 56.61, 0 48 C0.75 39.48, 2.15 32.61, 0 16 C-3.27 5.45, 8.07 -3.1, 16 0" stroke="none" stroke-width="0" fill="#fff9db"/><path d="M16 0 C59.87 2.41, 98.7 -0.59, 219.2 0 M16 0 C92.42 -1.27, 168.81 -1.21, 219.2 0 M219.2 0 C228.1 0.99, 234.12 6.09, 235.2 16 M219.2 0 C228.34 0.67, 236.32 6.88, 235.2 16 M235.2 16 C236.94 27.15, 236.42 35.34, 235.2 48 M235.2 16 C234.6 26.04, 236.31 37.31, 235.2 48 M235.2 48 C234.52 57.87, 228.21 62.18, 219.2 64 M235.2 48 C236.13 60.04, 231.22 61.96, 219.2 64 M219.2 64 C146.15 63.94, 73.7 65.5, 16 64 M219.2 64 C174.65 62.53, 131.6 62.07, 16 64 M16 64 C3.7 63.14, -0.2 57.44, 0 48 M16 64 C7.52 64.34, -0.34 57.69, 0 48 M0 48 C-1.7 37.85, -1.1 25.42, 0 16 M0 48 C-0.73 38.27, 0.28 27.85, 0 16 M0 16 C1.83 6.43, 5.55 -0.05, 16 0 M0 16 C-0.95 5.95, 5.3 0.16, 16 0" stroke="#ced4da" stroke-width="1" fill="none"/></g><g transform="translate(10 10) rotate(0 104.9296875 18.4)"><text x="0" y="27.040625" font-family="Helvetica, Segoe UI Emoji" font-size="32px" fill="#1e1e1e" text-anchor="start" style="white-space: pre;" direction="ltr" dominant-baseline="alphabetic">CI/CD Pipeline</text></g><g transform="translate(22.5 51.875) rotate(0 138.4130859375 11.5)"><text x="0" y="16.900390625" font-family="Helvetica, Segoe UI Emoji" font-size="20px" fill="#868e96" text-anchor="start" style="white-space: pre;" direction="ltr" dominant-baseline="alphabetic">Build once, publish everywhere</text></g><g stroke-linecap="round" transform="translate(170 155.625) rotate(0 100 50.00000000000001)"><path d="M126.25 12.75 C135.33 21.32, 149.15 27.44, 174.75 38.25 C201.42 48.23, 200.79 51.95, 174.75 63.75 C164.31 70.2, 152.12 75.36, 126.25 87.25 C102.03 97.5, 100.17 101.37, 75.75 87.25 C64.16 82.45, 49.7 76.7, 25.25 63.75 C-2.05 48.67, 2.54 52.59, 25.25 38.25 C41.81 25.87, 59.03 23.41, 75.75 12.75 C97.9 1.46, 100.9 -2.04, 126.25 12.75" stroke="none" stroke-width="0" fill="#d0ebff"/><path d="M126.25 12.75 C144 24.82, 166.03 34.19, 174.75 38.25 M126.25 12.75 C141.19 19.92, 158.05 28.53, 174.75 38.25 M174.75 38.25 C200.76 49.67, 200.58 51.98, 174.75 63.75 M174.75 38.25 C201.55 50.69, 201.96 53.14, 174.75 63.75 M174.75 63.75 C157.9 73.13, 139.53 80.76, 126.25 87.25 M174.75 63.75 C164.55 69.25, 152.19 74.12, 126.25 87.25 M126.25 87.25 C99.18 100.81, 102.2 101.18, 75.75 87.25 M126.25 87.25 C98.96 101.38, 98.88 100.61, 75.75 87.25 M75.75 87.25 C61.52 78.61, 43.88 71.67, 25.25 63.75 M75.75 87.25 C64.05 81.32, 53.27 76.89, 25.25 63.75 M25.25 63.75 C-1.23 52.9, 0.29 50.71, 25.25 38.25 M25.25 63.75 C-0.98 51.51, -1.38 48.83, 25.25 38.25 M25.25 38.25 C33.64 33.7, 47.88 28.46, 75.75 12.75 M25.25 38.25 C38.34 32.32, 51.63 24.96, 75.75 12.75 M75.75 12.75 C100.95 -0.82, 101.54 -0.03, 126.25 12.75 M75.75 12.75 C101.16 1.06, 102.36 0.01, 126.25 12.75" stroke="#1971c2" stroke-width="2" fill="none"/></g><g transform="translate(215 191.375) rotate(0 36.015625 18.4)"><text x="0" y="13.5203125" font-family="Helvetica, Segoe UI Emoji" font-size="16px" fill="#1971c2" text-anchor="start" style="white-space: pre;" direction="ltr" dominant-baseline="alphabetic">Push / PR</text><text x="0" y="31.920312499999998" font-family="Helvetica, Segoe UI Emoji" font-size="16px" fill="#1971c2" text-anchor="start" style="white-space: pre;" direction="ltr" dominant-baseline="alphabetic">to master</text></g><g stroke-linecap="round" transform="translate(982.5 155.625) rotate(0 100 50.00000000000001)"><path d="M126.25 12.75 C138.92 21.53, 153.03 22.9, 174.75 38.25 C200.79 51.95, 196.68 52.06, 174.75 63.75 C159.74 72.45, 151 73.7, 126.25 87.25 C100.17 101.37, 98.97 97.21, 75.75 87.25 C61.29 83.07, 48.37 73.5, 25.25 63.75 C2.54 52.59, 1.15 50, 25.25 38.25 C44.15 32.35, 59.68 21.61, 75.75 12.75 C100.9 -2.04, 103.37 -2.66, 126.25 12.75" stroke="none" stroke-width="0" fill="#d0ebff"/><path d="M126.25 12.75 C137.39 18.58, 147.36 21.97, 174.75 38.25 M126.25 12.75 C143.39 21.47, 160.08 30.18, 174.75 38.25 M174.75 38.25 C200.58 51.98, 201.34 50.73, 174.75 63.75 M174.75 38.25 C201.96 53.14, 201.68 53.29, 174.75 63.75 M174.75 63.75 C158.76 71.25, 139.72 79.84, 126.25 87.25 M174.75 63.75 C155.22 72.13, 135.36 82.74, 126.25 87.25 M126.25 87.25 C102.2 101.18, 99.23 101.2, 75.75 87.25 M126.25 87.25 C98.88 100.61, 101.13 99.29, 75.75 87.25 M75.75 87.25 C57.13 77.28, 39.16 70.24, 25.25 63.75 M75.75 87.25 C60.11 79.59, 44.55 73.48, 25.25 63.75 M25.25 63.75 C0.29 50.71, -0.85 51.44, 25.25 38.25 M25.25 63.75 C-1.38 48.83, -2.17 51.17, 25.25 38.25 M25.25 38.25 C39.27 32.53, 48.43 27.07, 75.75 12.75 M25.25 38.25 C43.82 28.77, 61.32 19.12, 75.75 12.75 M75.75 12.75 C101.54 -0.03, 101.14 0.92, 126.25 12.75 M75.75 12.75 C102.36 0.01, 99.41 1.74, 126.25 12.75" stroke="#1971c2" stroke-width="2" fill="none"/></g><g transform="translate(1032.5 191.375) rotate(0 32.46875 18.4)"><text x="0" y="13.5203125" font-family="Helvetica, Segoe UI Emoji" font-size="16px" fill="#1971c2" text-anchor="start" style="white-space: pre;" direction="ltr" dominant-baseline="alphabetic">Tag push</text><text x="0" y="31.920312499999998" font-family="Helvetica, Segoe UI Emoji" font-size="16px" fill="#1971c2" text-anchor="start" style="white-space: pre;" direction="ltr" dominant-baseline="alphabetic">(v*)</text></g><g stroke-linecap="round" transform="translate(120 338.125) rotate(0 150 30)"><path d="M15 0 C114.9 -4.93, 213.2 -2.01, 285 0 C291.68 1.06, 298.37 4.52, 300 15 C300.64 23.12, 298.78 37.63, 300 45 C297.97 52.21, 293.21 60.39, 285 60 C192.03 59.61, 104.27 62.68, 15 60 C6.15 59, 2.56 54.67, 0 45 C-3.11 40.18, -0.11 30.4, 0 15 C2.37 2.34, 6.42 2.35, 15 0" stroke="none" stroke-width="0" fill="#d0ebff"/><path d="M15 0 C116.63 -1.84, 218.22 -1.73, 285 0 M15 0 C72.43 0.62, 129.49 1.53, 285 0 M285 0 C296.34 -0.27, 301.7 6.86, 300 15 M285 0 C296.68 2.29, 301.09 6.16, 300 15 M300 15 C298.67 24.23, 302.09 35.94, 300 45 M300 15 C298.97 23.39, 300.48 31.56, 300 45 M300 45 C298.23 56.2, 293.15 60.53, 285 60 M300 45 C300.13 54.29, 296.03 61.3, 285 60 M285 60 C225.5 58.18, 168.62 57.39, 15 60 M285 60 C225.52 60.54, 167.13 59.68, 15 60 M15 60 C4.15 60.44, -1.2 53.11, 0 45 M15 60 C2.83 60.17, -1.48 52.73, 0 45 M0 45 C-1.14 36.37, 0.88 26.36, 0 15 M0 45 C-0.19 32.84, 0.1 21.49, 0 15 M0 15 C0.14 5.92, 6.18 0.01, 15 0 M0 15 C-1.59 6.74, 4.19 -1.58, 15 0" stroke="#1971c2" stroke-width="2" fill="none"/></g><g transform="translate(205 356.25) rotate(0 53.7109375 11.5)"><text x="0" y="16.900390625" font-family="Helvetica, Segoe UI Emoji" font-size="20px" fill="#1971c2" text-anchor="start" style="white-space: pre;" direction="ltr" dominant-baseline="alphabetic">CI Workflow</text></g><g stroke-linecap="round"><g transform="translate(270 274.875) rotate(0 0 24.5)"><path d="M-0.38 0.26 C-0.47 8.32, -0.45 40.44, -0.34 48.51 M0.43 -0.09 C0.5 8.01, 0.78 40.76, 0.72 48.96" stroke="#1971c2" stroke-width="2" fill="none"/></g><g transform="translate(270 274.875) rotate(0 0 24.5)"><path d="M-7.7 25.96 C-4.38 33.09, -2.9 41.93, 0.72 48.96 M-7.7 25.96 C-5.44 31.89, -3.18 37.23, 0.72 48.96" stroke="#1971c2" stroke-width="2" fill="none"/></g><g transform="translate(270 274.875) rotate(0 0 24.5)"><path d="M9.06 25.93 C6.75 33.02, 2.6 41.86, 0.72 48.96 M9.06 25.93 C7.2 31.81, 5.34 37.16, 0.72 48.96" stroke="#1971c2" stroke-width="2" fill="none"/></g></g><mask/><g stroke-linecap="round" transform="translate(120 450.625) rotate(0 150 30)"><path d="M15 0 C107.36 -3.44, 199.07 -2.11, 285 0 C294.52 1.95, 297.41 7.24, 300 15 C300.99 22.83, 296.83 32.93, 300 45 C300.39 56.38, 293.23 61.36, 285 60 C220.64 63.59, 153 64.7, 15 60 C4.67 56.73, 0.12 57.73, 0 45 C-2.26 40.95, -2.88 33.58, 0 15 C2.35 1.9, 1.43 -2.51, 15 0" stroke="none" stroke-width="0" fill="#f1f3f5"/><path d="M15 0 C101.65 -2.37, 191.02 -1.83, 285 0 M15 0 C106.64 -0.09, 197.42 0.05, 285 0 M285 0 C296.86 1.46, 301.99 5.95, 300 15 M285 0 C296.16 0.44, 300.86 4.13, 300 15 M300 15 C301.75 21.16, 299.15 27.02, 300 45 M300 15 C300.71 20.39, 300.72 26.62, 300 45 M300 45 C300.53 55.11, 294.39 60.9, 285 60 M300 45 C301.3 53.06, 293.77 58.35, 285 60 M285 60 C224.84 58.82, 166.2 59.94, 15 60 M285 60 C220.47 59.97, 156.33 59.84, 15 60 M15 60 C3.11 58.11, 0.15 53.71, 0 45 M15 60 C2.73 60.42, 2.16 55.43, 0 45 M0 45 C0.33 39.13, 0.96 29.81, 0 15 M0 45 C0.11 36.14, 0.58 27.73, 0 15 M0 15 C0.01 3.62, 6.51 -0.71, 15 0 M0 15 C-1.58 6.52, 5.09 1.66, 15 0" stroke="#868e96" stroke-width="2" fill="none"/></g><g transform="translate(150 468.75) rotate(0 105.310546875 10.349999999999994)"><text x="0" y="15.2103515625" font-family="Helvetica, Segoe UI Emoji" font-size="18px" fill="#868e96" text-anchor="start" style="white-space: pre;" direction="ltr" dominant-baseline="alphabetic">Node 18 + Node 20 Matrix</text></g><g stroke-linecap="round"><g transform="translate(270 409.875) rotate(0 0 14.5)"><path d="M-0.49 0.27 C-0.58 5.2, -0.32 24.39, -0.3 29.21 M0.27 -0.07 C0.33 4.72, 0.7 23.64, 0.78 28.35" stroke="#1971c2" stroke-width="2" fill="none"/></g><g transform="translate(270 409.875) rotate(0 0 14.5)"><path d="M-4.43 14.82 C-2.31 19.14, -0.58 23.74, 0.78 28.35 M-4.43 14.82 C-2.73 19.56, -0.63 23.98, 0.78 28.35" stroke="#1971c2" stroke-width="2" fill="none"/></g><g transform="translate(270 409.875) rotate(0 0 14.5)"><path d="M5.49 14.64 C4.17 18.97, 2.46 23.64, 0.78 28.35 M5.49 14.64 C3.92 19.47, 2.76 23.95, 0.78 28.35" stroke="#1971c2" stroke-width="2" fill="none"/></g></g><mask/><g stroke-linecap="round" transform="translate(120 560.625) rotate(0 150 20)"><path d="M10 0 C100.14 -1.51, 194.26 -3.13, 290 0 C298.91 1.03, 297.5 2.5, 300 10 C298.01 17.15, 301.18 21.75, 300 30 C301.36 34.61, 294.34 42.54, 290 40 C195.58 38.68, 94.73 39.02, 10 40 C6.07 36.9, 1.46 36.57, 0 30 C1.18 27.49, -3.33 16.7, 0 10 C-2.51 2.22, 1.24 -2.4, 10 0" stroke="none" stroke-width="0" fill="#d0ebff"/><path d="M10 0 C75.85 -0.47, 142.34 -0.61, 290 0 M10 0 C108.33 1.01, 205.92 1.06, 290 0 M290 0 C297.62 1.01, 300.38 4.08, 300 10 M290 0 C295.79 -1.66, 299.61 5.61, 300 10 M300 10 C298.27 15.98, 300.74 26.8, 300 30 M300 10 C298.9 17.45, 299.88 24.05, 300 30 M300 30 C300.9 37.8, 294.98 38.93, 290 40 M300 30 C298.35 34.8, 296.23 40.1, 290 40 M290 40 C225.42 38.14, 162.6 39.3, 10 40 M290 40 C209.66 39.75, 129.51 40.53, 10 40 M10 40 C2.04 38.02, 0.37 38.54, 0 30 M10 40 C3.77 39.01, 1.06 38, 0 30 M0 30 C0.04 23.49, -1.01 17.61, 0 10 M0 30 C0.58 24.03, -0.7 18.81, 0 10 M0 10 C-0.71 1.96, 4.65 0.08, 10 0 M0 10 C1.66 4.24, 1.56 0.51, 10 0" stroke="#1971c2" stroke-width="1" fill="none"/></g><g transform="translate(235 570.625) rotate(0 23.5625 9.199999999999989)"><text x="0" y="13.5203125" font-family="Helvetica, Segoe UI Emoji" font-size="16px" fill="#1971c2" text-anchor="start" style="white-space: pre;" direction="ltr" dominant-baseline="alphabetic">npm ci</text></g><g stroke-linecap="round"><g transform="translate(270 522.375) rotate(0 0 14.5)"><path d="M0.21 -0.36 C0.19 4.56, 0.13 24.39, 0.16 29.27 M-0.35 0.64 C-0.45 5.43, -0.28 23.63, -0.19 28.44" stroke="#1971c2" stroke-width="2" fill="none"/></g><g transform="translate(270 522.375) rotate(0 0 14.5)"><path d="M-5.33 14.88 C-4.05 19.82, -1.42 24.83, -0.19 28.44 M-5.33 14.88 C-3.53 19.1, -2.15 22.81, -0.19 28.44" stroke="#1971c2" stroke-width="2" fill="none"/></g><g transform="translate(270 522.375) rotate(0 0 14.5)"><path d="M4.59 14.75 C2.4 19.75, 1.57 24.81, -0.19 28.44 M4.59 14.75 C3.55 19.05, 2.09 22.8, -0.19 28.44" stroke="#1971c2" stroke-width="2" fill="none"/></g></g><mask/><g stroke-linecap="round" transform="translate(120 623.125) rotate(0 150 20)"><path d="M10 0 C79.37 -0.38, 153.51 -4.02, 290 0 C295.84 1.37, 297.97 0.54, 300 10 C298.27 16.36, 297.99 17.68, 300 30 C302.54 38.26, 297.82 39, 290 40 C186.17 38.59, 79.79 37.61, 10 40 C3.24 37.96, 2.37 34.01, 0 30 C-3.81 20.7, -1.35 14.33, 0 10 C-2.4 2.81, 0.29 1.75, 10 0" stroke="none" stroke-width="0" fill="#d0ebff"/><path d="M10 0 C79.3 2.17, 148.73 1.21, 290 0 M10 0 C118.61 -1.21, 226.08 -1.43, 290 0 M290 0 C297.42 -0.76, 298.56 3, 300 10 M290 0 C298.94 2.07, 299.22 2.42, 300 10 M300 10 C301.01 15.52, 298.05 19.88, 300 30 M300 10 C299.75 14.6, 300.62 17.46, 300 30 M300 30 C298.93 35.23, 295.04 39.62, 290 40 M300 30 C300.1 35.06, 294.79 39.01, 290 40 M290 40 C208.96 41.81, 126.82 42.38, 10 40 M290 40 C222.84 37.48, 154.82 38.12, 10 40 M10 40 C5.21 40.38, -0.86 37.59, 0 30 M10 40 C4.67 40.53, 2.11 37.93, 0 30 M0 30 C0.54 23.75, 0.14 18.48, 0 10 M0 30 C0.76 22.46, -0.69 16.29, 0 10 M0 10 C0.08 4.78, 4.12 -1.54, 10 0 M0 10 C0.51 3.94, 1.21 0.68, 10 0" stroke="#1971c2" stroke-width="1" fill="none"/></g><g transform="translate(230 633.125) rotate(0 30.6796875 9.199999999999989)"><text x="0" y="13.5203125" font-family="Helvetica, Segoe UI Emoji" font-size="16px" fill="#1971c2" text-anchor="start" style="white-space: pre;" direction="ltr" dominant-baseline="alphabetic">npm test</text></g><g stroke-linecap="round"><g transform="translate(270 607.375) rotate(0 0 4.5)"><path d="M0.17 0.24 C0.2 1.77, -0.07 7.8, -0.05 9.3 M-0.17 0.05 C-0.16 1.49, -0.42 7.39, -0.35 8.83" stroke="#1971c2" stroke-width="2" fill="none"/></g><g transform="translate(270 607.375) rotate(0 0 4.5)"><path d="M-1.88 4.6 C-1.41 5.57, -1.03 6.72, -0.35 8.83 M-1.88 4.6 C-1.25 6.19, -0.7 7.73, -0.35 8.83" stroke="#1971c2" stroke-width="2" fill="none"/></g><g transform="translate(270 607.375) rotate(0 0 4.5)"><path d="M1.2 4.61 C0.94 5.58, 0.61 6.73, -0.35 8.83 M1.2 4.61 C0.67 6.2, 0.08 7.74, -0.35 8.83" stroke="#1971c2" stroke-width="2" fill="none"/></g></g><mask/><g stroke-linecap="round" transform="translate(120 685.625) rotate(0 150 20)"><path d="M10 0 C71.92 -1.74, 138.74 -2.66, 290 0 C293.87 -1.79, 300.39 4.71, 300 10 C297.8 17.56, 301.73 21.19, 300 30 C299 39.23, 296.34 36.73, 290 40 C206.21 36.6, 118.61 38.49, 10 40 C0.68 41.42, 2.35 33.57, 0 30 C-1.84 23.58, -0.27 18.93, 0 10 C1.75 4.31, 4.69 -3.58, 10 0" stroke="none" stroke-width="0" fill="#d0ebff"/><path d="M10 0 C101.95 -0.14, 195.75 -0.32, 290 0 M10 0 C122 -0.8, 233.41 -1.64, 290 0 M290 0 C296.33 1.98, 301.8 2.66, 300 10 M290 0 C295.75 -1.91, 297.91 4.26, 300 10 M300 10 C301.32 15.35, 300.65 24.51, 300 30 M300 10 C299.25 14.85, 299.37 19.96, 300 30 M300 30 C299.62 36.76, 295.27 38.37, 290 40 M300 30 C299.01 36.44, 295.25 42.19, 290 40 M290 40 C202.25 38.17, 112.38 37.64, 10 40 M290 40 C204.06 38.6, 117.98 37.55, 10 40 M10 40 C4.26 41.16, 0.46 38.5, 0 30 M10 40 C4.6 40.25, -0.05 35.72, 0 30 M0 30 C0.93 24.64, 0.01 15.54, 0 10 M0 30 C0.73 22.53, 0.79 15.37, 0 10 M0 10 C-1.54 3.77, 3.86 -1.84, 10 0 M0 10 C0.68 2.29, 3.03 1.25, 10 0" stroke="#1971c2" stroke-width="1" fill="none"/></g><g transform="translate(210 695.625) rotate(0 48.47265625 9.199999999999989)"><text x="0" y="13.5203125" font-family="Helvetica, Segoe UI Emoji" font-size="16px" fill="#1971c2" text-anchor="start" style="white-space: pre;" direction="ltr" dominant-baseline="alphabetic">npm run build</text></g><g stroke-linecap="round"><g transform="translate(270 669.875) rotate(0 0 4.5)"><path d="M0.3 0.33 C0.31 1.9, 0.28 7.88, 0.26 9.35 M0.03 0.19 C-0.01 1.67, 0.11 7.51, 0.11 8.91" stroke="#1971c2" stroke-width="2" fill="none"/></g><g transform="translate(270 669.875) rotate(0 0 4.5)"><path d="M-1.47 4.7 C-0.75 6.35, -0.16 7.86, 0.11 8.91 M-1.47 4.7 C-0.94 6.12, -0.37 7.73, 0.11 8.91" stroke="#1971c2" stroke-width="2" fill="none"/></g><g transform="translate(270 669.875) rotate(0 0 4.5)"><path d="M1.6 4.66 C1.19 6.34, 0.66 7.86, 0.11 8.91 M1.6 4.66 C1.06 6.1, 0.55 7.72, 0.11 8.91" stroke="#1971c2" stroke-width="2" fill="none"/></g></g><mask/><g stroke-linecap="round" transform="translate(120 775.625) rotate(0 150 30)"><path d="M15 0 C75.62 -3.63, 138.03 -1.15, 285 0 C296.38 -1.77, 301.36 2.95, 300 15 C301.53 21.06, 302.94 28.79, 300 45 C296.73 55.12, 297.73 56.9, 285 60 C194.9 55.76, 102.21 59.68, 15 60 C1.9 56.43, -2.51 53.88, 0 45 C-2.68 39.49, 1.34 31.84, 0 15 C-3.58 3.14, 5.72 1.21, 15 0" stroke="none" stroke-width="0" fill="#f8f9fa"/><path d="M15 0 C93.45 -0.41, 170.35 -1.18, 285 0 M15 0 C100.56 0.67, 188.01 1.51, 285 0 M285 0 C294.32 -0.8, 298.34 3.18, 300 15 M285 0 C295.93 1.38, 301.36 2.96, 300 15 M300 15 C299.84 25.19, 300.62 37.73, 300 45 M300 15 C299.03 21.28, 299.88 27.24, 300 45 M300 45 C298.37 54.14, 294.8 58.77, 285 60 M300 45 C302.19 55.34, 294.66 59.02, 285 60 M285 60 C196.59 58.12, 110.13 56.45, 15 60 M285 60 C198.69 60.76, 113.52 60.58, 15 60 M15 60 C6.83 61.1, 0.22 54.95, 0 45 M15 60 C4.05 60.62, -0.03 55.16, 0 45 M0 45 C-1.56 36.13, -0.88 22.86, 0 15 M0 45 C0.38 33.25, 0.21 23.31, 0 15 M0 15 C-1.84 5.59, 4.1 -0.27, 15 0 M0 15 C1.25 3.34, 6.43 0.66, 15 0" stroke="#343a40" stroke-width="2" fill="none"/></g><g transform="translate(195 793.75) rotate(0 56.6845703125 11.5)"><text x="0" y="16.900390625" font-family="Helvetica, Segoe UI Emoji" font-size="20px" fill="#343a40" text-anchor="start" style="white-space: pre;" direction="ltr" dominant-baseline="alphabetic">VSIX Artifact</text></g><g stroke-linecap="round"><g transform="translate(270 734.875) rotate(0 0 14.5)"><path d="M0.55 0.26 C0.51 5.04, 0.34 24.35, 0.28 29.1 M0.16 -0.08 C0.03 4.49, 0.02 23.3, -0.01 28.19" stroke="#1971c2" stroke-width="2" fill="none"/></g><g transform="translate(270 734.875) rotate(0 0 14.5)"><path d="M-4.92 14.55 C-2.59 20.25, -0.87 25.52, -0.01 28.19 M-4.92 14.55 C-3.32 18.45, -2.52 21.56, -0.01 28.19" stroke="#1971c2" stroke-width="2" fill="none"/></g><g transform="translate(270 734.875) rotate(0 0 14.5)"><path d="M5 14.59 C3.43 20.33, 1.25 25.58, -0.01 28.19 M5 14.59 C4 18.47, 2.2 21.57, -0.01 28.19" stroke="#1971c2" stroke-width="2" fill="none"/></g></g><mask/><g stroke-linecap="round" transform="translate(876.25 338.125) rotate(0 175 30)"><path d="M15 0 C93.24 2.97, 169.69 2.95, 335 0 C342.95 -2.33, 352.54 6.59, 350 15 C349.52 21.69, 349.97 37.66, 350 45 C346.9 56.46, 344.9 57.96, 335 60 C219.58 59.42, 98.37 59.83, 15 60 C3.88 57.91, -2.4 54.48, 0 45 C1.09 34.95, -2.12 32.79, 0 15 C1.21 6.94, 3.98 -0.57, 15 0" stroke="none" stroke-width="0" fill="#d0ebff"/><path d="M15 0 C135.13 -0.8, 254.36 -1.6, 335 0 M15 0 C88.6 -2.45, 160.66 -2.8, 335 0 M335 0 C343.18 0.81, 351.2 6.18, 350 15 M335 0 C342.96 1.38, 347.88 5.61, 350 15 M350 15 C351.04 22.48, 348.84 31.9, 350 45 M350 15 C349.24 20.75, 349.51 28.03, 350 45 M350 45 C348.77 56.9, 345.29 59.71, 335 60 M350 45 C349.02 55.51, 343.62 57.83, 335 60 M335 60 C267.81 58.81, 204.7 58.82, 15 60 M335 60 C252.95 61.94, 170.95 61.38, 15 60 M15 60 C4.95 59.18, 0.54 54.97, 0 45 M15 60 C5.16 61.06, 1.36 55.01, 0 45 M0 45 C-1.6 39.39, -0.15 32.59, 0 15 M0 45 C0.49 33.9, 0.53 24.19, 0 15 M0 15 C-0.27 6.09, 3.56 1.24, 15 0 M0 15 C0.66 3.4, 4.47 0.87, 15 0" stroke="#1971c2" stroke-width="2" fill="none"/></g><g transform="translate(991.25 356.25) rotate(0 41.1376953125 11.5)"><text x="0" y="16.900390625" font-family="Helvetica, Segoe UI Emoji" font-size="20px" fill="#1971c2" text-anchor="start" style="white-space: pre;" direction="ltr" dominant-baseline="alphabetic">Build Job</text></g><g stroke-linecap="round"><g transform="translate(1082.5 274.875) rotate(0 0 24.5)"><path d="M0.1 0.21 C0.03 8.26, -0.18 40.38, -0.21 48.6 M-0.51 -0.16 C-0.7 7.93, -0.75 40.95, -0.75 49.1" stroke="#1971c2" stroke-width="2" fill="none"/></g><g transform="translate(1082.5 274.875) rotate(0 0 24.5)"><path d="M-9.1 26.07 C-5.77 33.68, -3.96 41.9, -0.75 49.1 M-9.1 26.07 C-5.86 34.85, -2.79 44.66, -0.75 49.1" stroke="#1971c2" stroke-width="2" fill="none"/></g><g transform="translate(1082.5 274.875) rotate(0 0 24.5)"><path d="M7.66 26.09 C5.17 33.71, 1.16 41.92, -0.75 49.1 M7.66 26.09 C4.21 34.84, 0.6 44.63, -0.75 49.1" stroke="#1971c2" stroke-width="2" fill="none"/></g></g><mask/><g stroke-linecap="round" transform="translate(876.25 463.125) rotate(0 175 30)"><path d="M15 0 C115.38 0.54, 212.22 3.76, 335 0 C346.59 1.15, 349 7.56, 350 15 C352.24 20.63, 350.97 32.35, 350 45 C347.96 57.37, 342.34 61.42, 335 60 C216.35 55.22, 99.75 54.32, 15 60 C4.48 56.96, 1.75 55.98, 0 45 C1.26 36.08, 2.47 23.73, 0 15 C-0.57 6.31, 6.43 2.32, 15 0" stroke="none" stroke-width="0" fill="#f8f9fa"/><path d="M15 0 C126.66 -1.85, 239.16 0.55, 335 0 M15 0 C139.27 0.26, 264.98 1.31, 335 0 M335 0 C346.18 -1.77, 351.2 3.15, 350 15 M335 0 C345.61 0.13, 349.29 6.03, 350 15 M350 15 C348.31 24.07, 349.37 36.48, 350 45 M350 15 C349.66 21.29, 350.71 28.95, 350 45 M350 45 C349.71 54.15, 345.44 58.8, 335 60 M350 45 C347.83 52.83, 345.17 58.52, 335 60 M335 60 C270.88 61.5, 206.87 62.91, 15 60 M335 60 C231.65 61.22, 127.85 61.42, 15 60 M15 60 C4.97 60.14, 0.92 56.18, 0 45 M15 60 C5.01 58.41, 1.74 54.19, 0 45 M0 45 C1.25 38.85, -1.74 31.57, 0 15 M0 45 C-0.18 35.08, 0.82 24.7, 0 15 M0 15 C1.24 5.57, 3.61 -0.46, 15 0 M0 15 C0.87 3.7, 3.22 -1.14, 15 0" stroke="#343a40" stroke-width="2" fill="none"/></g><g transform="translate(986.25 481.25) rotate(0 56.6845703125 11.5)"><text x="0" y="16.900390625" font-family="Helvetica, Segoe UI Emoji" font-size="20px" fill="#343a40" text-anchor="start" style="white-space: pre;" direction="ltr" dominant-baseline="alphabetic">VSIX Artifact</text></g><g stroke-linecap="round"><g transform="translate(1051.25 411.125) rotate(0 0 19.5)"><path d="M-0.4 -0.09 C-0.34 6.53, 0.51 33.02, 0.54 39.5 M0.4 -0.62 C0.42 5.88, 0.56 32.14, 0.39 38.78" stroke="#1971c2" stroke-width="2" fill="none"/></g><g transform="translate(1051.25 411.125) rotate(0 0 19.5)"><path d="M-6.13 20.41 C-4.13 27.6, -0.89 32.5, 0.39 38.78 M-6.13 20.41 C-4.31 25.51, -2.53 29.57, 0.39 38.78" stroke="#1971c2" stroke-width="2" fill="none"/></g><g transform="translate(1051.25 411.125) rotate(0 0 19.5)"><path d="M7.21 20.51 C4.71 27.62, 3.45 32.49, 0.39 38.78 M7.21 20.51 C5.55 25.53, 3.87 29.56, 0.39 38.78" stroke="#1971c2" stroke-width="2" fill="none"/></g></g><mask/><g stroke-linecap="round" transform="translate(676.25 615.625) rotate(0 125 40)"><path d="M20 0 C93.16 3.57, 162.84 1.28, 230 0 C245.89 -0.33, 246.73 6.78, 250 20 C249.28 32.99, 251.75 47.42, 250 60 C251.42 75.68, 240.24 76.43, 230 80 C179.55 77.6, 130.66 79.6, 20 80 C7.65 81.35, -3.58 71.47, 0 60 C-1.26 46.63, 1.07 35.82, 0 20 C2.32 7.6, 7.57 2.05, 20 0" stroke="none" stroke-width="0" fill="#d3f9d8"/><path d="M20 0 C76.77 1.9, 129.44 -0.39, 230 0 M20 0 C66.08 -0.23, 110.32 -0.22, 230 0 M230 0 C241.49 0.53, 250.11 6.05, 250 20 M230 0 C244.36 1.3, 248.06 5.44, 250 20 M250 20 C249.76 27.73, 248.04 37.4, 250 60 M250 20 C249.9 31.46, 249.33 43.44, 250 60 M250 60 C248.8 71.44, 241.45 80.15, 230 80 M250 60 C248.52 71.06, 243.76 82.16, 230 80 M230 80 C164.07 81.27, 97.71 81.83, 20 80 M230 80 C164.92 79.22, 99.42 79.64, 20 80 M20 80 C7.85 80.01, -1.38 74.85, 0 60 M20 80 C5.86 78.42, 1.52 73.43, 0 60 M0 60 C0.28 45.63, -2 30.8, 0 20 M0 60 C-0.67 50.43, 0.34 38.92, 0 20 M0 20 C-0.46 7.43, 5.54 -1.55, 20 0 M0 20 C-1.14 6.91, 7.55 -1.13, 20 0" stroke="#2f9e44" stroke-width="2" fill="none"/></g><g transform="translate(706.25 635.625) rotate(0 77.81640625 18.399999999999977)"><text x="0" y="13.5203125" font-family="Helvetica, Segoe UI Emoji" font-size="16px" fill="#2f9e44" text-anchor="start" style="white-space: pre;" direction="ltr" dominant-baseline="alphabetic">VS Code Marketplace</text><text x="0" y="31.920312499999998" font-family="Helvetica, Segoe UI Emoji" font-size="16px" fill="#2f9e44" text-anchor="start" style="white-space: pre;" direction="ltr" dominant-baseline="alphabetic">vsce publish</text></g><g stroke-linecap="round"><g transform="translate(986.375 538.625) rotate(0 -67 29.5)"><path d="M1.08 -0.41 C-21.3 9.06, -111.78 48.02, -134.48 58 M0.19 -1.66 C-22.37 8.43, -113.52 49.17, -135.68 59.02" stroke="#2f9e44" stroke-width="2" fill="none"/></g><g transform="translate(986.375 538.625) rotate(0 -67 29.5)"><path d="M-117.7 41.64 C-123.3 45.93, -129.37 49.83, -135.68 59.02 M-117.7 41.64 C-124.6 48.26, -130.76 53.84, -135.68 59.02" stroke="#2f9e44" stroke-width="2" fill="none"/></g><g transform="translate(986.375 538.625) rotate(0 -67 29.5)"><path d="M-110.74 57.26 C-118.46 57.19, -126.51 56.66, -135.68 59.02 M-110.74 57.26 C-120.1 58.6, -128.62 58.87, -135.68 59.02" stroke="#2f9e44" stroke-width="2" fill="none"/></g></g><mask/><g stroke-linecap="round" transform="translate(1051.25 615.625) rotate(0 125 40)"><path d="M20 0 C96.96 1.19, 175.39 -3.95, 230 0 C243.45 2.73, 246.9 8.13, 250 20 C246.93 33.31, 251.94 40.69, 250 60 C246.43 70.82, 242.22 77.91, 230 80 C182.54 78.05, 133.19 74.02, 20 80 C4.81 80.72, 1.21 75.27, 0 60 C1.54 51.45, 1.05 39.16, 0 20 C2.05 6.24, 9.77 3.37, 20 0" stroke="none" stroke-width="0" fill="#d3f9d8"/><path d="M20 0 C103.07 -0.84, 185.93 1.34, 230 0 M20 0 C96.09 0.83, 171.36 1.69, 230 0 M230 0 C242.72 0.9, 251.13 4.98, 250 20 M230 0 C242.1 -1.65, 248.13 6.23, 250 20 M250 20 C248.86 31.98, 248.49 46.26, 250 60 M250 20 C250.16 31.98, 249 44.22, 250 60 M250 60 C250.15 72.04, 241.36 80.37, 230 80 M250 60 C252.16 73.77, 242.34 81.06, 230 80 M230 80 C155.8 81.9, 79.61 80.97, 20 80 M230 80 C161.76 80.65, 92.7 79.52, 20 80 M20 80 C8.18 79.29, -1.38 74.65, 0 60 M20 80 C6.76 81.66, 0.9 71.56, 0 60 M0 60 C0.48 46.22, -0.37 35.33, 0 20 M0 60 C-0.94 50.65, 0.13 41.2, 0 20 M0 20 C-1.55 5.67, 6.88 0.77, 20 0 M0 20 C-1.13 7.53, 5.36 -1.49, 20 0" stroke="#2f9e44" stroke-width="2" fill="none"/></g><g transform="translate(1101.25 635.625) rotate(0 44.0234375 18.399999999999977)"><text x="0" y="13.5203125" font-family="Helvetica, Segoe UI Emoji" font-size="16px" fill="#2f9e44" text-anchor="start" style="white-space: pre;" direction="ltr" dominant-baseline="alphabetic">Open VSX</text><text x="0" y="31.920312499999998" font-family="Helvetica, Segoe UI Emoji" font-size="16px" fill="#2f9e44" text-anchor="start" style="white-space: pre;" direction="ltr" dominant-baseline="alphabetic">ovsx publish</text></g><g stroke-linecap="round"><g transform="translate(1137.375 538.625) rotate(0 17 29.5)"><path d="M-1 -1.09 C4.82 8.94, 28.53 49.88, 34.48 59.72 M0.68 0.95 C6.42 10.68, 28.18 48.35, 33.79 57.97" stroke="#2f9e44" stroke-width="2" fill="none"/></g><g transform="translate(1137.375 538.625) rotate(0 17 29.5)"><path d="M14.61 41.94 C17.83 47.17, 25.95 51.81, 33.79 57.97 M14.61 41.94 C19.03 45.56, 22.51 49.35, 33.79 57.97" stroke="#2f9e44" stroke-width="2" fill="none"/></g><g transform="translate(1137.375 538.625) rotate(0 17 29.5)"><path d="M29.4 33.36 C28.65 40.75, 32.83 47.68, 33.79 57.97 M29.4 33.36 C30.74 38.66, 31.1 44.26, 33.79 57.97" stroke="#2f9e44" stroke-width="2" fill="none"/></g></g><mask/><g transform="translate(702.5 720.375) rotate(0 64.61328125 9.199999999999989)"><text x="0" y="13.5203125" font-family="Helvetica, Segoe UI Emoji" font-size="16px" fill="#495057" text-anchor="start" style="white-space: pre;" direction="ltr" dominant-baseline="alphabetic">VSCE_PAT secret</text></g><g transform="translate(1101.2202127659575 702.7606382978723) rotate(0 65.05859375 9.199999999999989)"><text x="0" y="13.5203125" font-family="Helvetica, Segoe UI Emoji" font-size="16px" fill="#495057" text-anchor="start" style="white-space: pre;" direction="ltr" dominant-baseline="alphabetic">OVSX_PAT secret</text></g><g stroke-linecap="round" transform="translate(457.5 868.125) rotate(0 249.99999999999997 50)"><path d="M25 0 C119.64 -2.16, 213.73 -2.19, 475 0 M475 0 C492.2 0.11, 499.39 9.23, 500 25 M500 25 C498.14 41.2, 499.2 60.74, 500 75 M500 75 C498.6 90.04, 490.81 99.8, 475 100 M475 100 C367.49 99.91, 260.48 99.74, 25 100 M25 100 C6.44 98.11, 0.15 90.38, 0 75 M0 75 C0.28 64.08, 0.83 56.04, 0 25 M0 25 C0.46 10.17, 9.43 0.22, 25 0" stroke="#868e96" stroke-width="2.5" fill="none" stroke-dasharray="8 10"/></g><g transform="translate(507.5 906.25) rotate(0 162.74218749999997 9.199999999999989)"><text x="0" y="13.5203125" font-family="Helvetica, Segoe UI Emoji" font-size="16px" fill="#868e96" text-anchor="start" style="white-space: pre;" direction="ltr" dominant-baseline="alphabetic">npm version patch → git tag → git push --tags</text></g><g transform="translate(626.25 832.875) rotate(0 56.6171875 9.199999999999989)"><text x="0" y="13.5203125" font-family="Helvetica, Segoe UI Emoji" font-size="16px" fill="#868e96" text-anchor="start" style="white-space: pre;" direction="ltr" dominant-baseline="alphabetic">Release Trigger</text></g><g transform="translate(686.2202127659575 731.7606382978723) rotate(0 110.7265625 18.399999999999977)"><text x="0" y="13.5203125" font-family="Helvetica, Segoe UI Emoji" font-size="16px" fill="#495057" text-anchor="start" style="white-space: pre;" direction="ltr" dominant-baseline="alphabetic">Parallel, independent jobs —</text><text x="0" y="31.920312499999998" font-family="Helvetica, Segoe UI Emoji" font-size="16px" fill="#495057" text-anchor="start" style="white-space: pre;" direction="ltr" dominant-baseline="alphabetic">if one fails, the other completes</text></g><g transform="translate(941.2202127659575 541.7606382978723) rotate(0 73.82421875 18.400000000000006)"><text x="0" y="13.5203125" font-family="Helvetica, Segoe UI Emoji" font-size="16px" fill="#495057" text-anchor="start" style="white-space: pre;" direction="ltr" dominant-baseline="alphabetic">Same binary on both</text><text x="0" y="31.920312499999998" font-family="Helvetica, Segoe UI Emoji" font-size="16px" fill="#495057" text-anchor="start" style="white-space: pre;" direction="ltr" dominant-baseline="alphabetic">marketplaces</text></g><g transform="translate(1061.2202127659575 721.7606382978723) rotate(0 88.9140625 18.399999999999977)"><text x="0" y="13.5203125" font-family="Helvetica, Segoe UI Emoji" font-size="16px" fill="#495057" text-anchor="start" style="white-space: pre;" direction="ltr" dominant-baseline="alphabetic">Serves Cursor, Windsurf,</text><text x="0" y="31.920312499999998" font-family="Helvetica, Segoe UI Emoji" font-size="16px" fill="#495057" text-anchor="start" style="white-space: pre;" direction="ltr" dominant-baseline="alphabetic">VSCodium users</text></g></svg>